<svg width="803" height="425" viewBox="0 0 803 425" fill="none" xmlns="http://www.w3.org/2000/svg">
<path d="M182.85 386.588C184.163 386.588 185.311 387.122 186.295 388.189L195.769 398.407C188.551 406.779 179.775 413.304 169.44 417.982C159.187 422.661 146.76 425 132.16 425C119.528 425 108.045 422.825 97.71 418.475C87.375 414.043 78.5575 407.887 71.2574 400.008C63.9573 392.046 58.2976 382.525 54.2785 371.445C50.2593 360.365 48.2498 348.177 48.2498 334.88C48.2498 321.584 50.3414 309.396 54.5246 298.315C58.7078 287.235 64.5724 277.714 72.1186 269.753C79.7468 261.791 88.8514 255.636 99.4325 251.286C110.014 246.854 121.702 244.638 134.498 244.638C147.047 244.638 158.12 246.648 167.717 250.67C177.314 254.692 185.762 260.15 193.062 267.044L185.188 278.002C184.696 278.822 184.04 279.52 183.22 280.094C182.481 280.587 181.456 280.833 180.144 280.833C178.667 280.833 176.863 280.053 174.73 278.494C172.597 276.852 169.809 275.047 166.364 273.077C162.919 271.107 158.612 269.342 153.445 267.783C148.278 266.142 141.921 265.321 134.375 265.321C125.27 265.321 116.944 266.921 109.398 270.122C101.852 273.241 95.3313 277.796 89.8357 283.788C84.4222 289.779 80.1979 297.084 77.1631 305.702C74.1282 314.32 72.6108 324.046 72.6108 334.88C72.6108 345.878 74.1692 355.687 77.2861 364.305C80.485 372.923 84.7913 380.227 90.2048 386.219C95.7004 392.128 102.139 396.643 109.521 399.761C116.986 402.88 125.024 404.44 133.636 404.44C138.886 404.44 143.602 404.153 147.785 403.578C152.051 402.921 155.947 401.936 159.474 400.623C163.083 399.31 166.405 397.669 169.44 395.699C172.556 393.647 175.632 391.226 178.667 388.435C180.062 387.204 181.456 386.588 182.85 386.588Z" fill="#4F4F4F"/>
<path d="M597.91 334.88C597.91 348.095 595.819 360.119 591.635 370.953C587.452 381.787 581.546 391.061 573.918 398.777C566.29 406.492 557.104 412.483 546.358 416.751C535.695 420.937 523.884 423.03 510.924 423.03H445.1V246.607H510.924C523.884 246.607 535.695 248.741 546.358 253.009C557.104 257.195 566.29 263.187 573.918 270.984C581.546 278.699 587.452 287.974 591.635 298.808C595.819 309.642 597.91 321.666 597.91 334.88ZM573.426 334.88C573.426 324.046 571.95 314.361 568.997 305.825C566.044 297.289 561.861 290.067 556.447 284.157C551.034 278.248 544.472 273.734 536.762 270.615C529.051 267.496 520.439 265.936 510.924 265.936H468.969V403.701H510.924C520.439 403.701 529.051 402.142 536.762 399.023C544.472 395.904 551.034 391.431 556.447 385.603C561.861 379.694 566.044 372.471 568.997 363.935C571.95 355.399 573.426 345.714 573.426 334.88Z" fill="#4F4F4F"/>
<path d="M753.363 403.578L753.24 423.03H644.6V246.607H753.24V266.059H668.469V324.662H737.123V343.375H668.469V403.578H753.363Z" fill="#4F4F4F"/>
<path d="M275.336 259.485C271.157 259.485 268.007 260.839 265.886 263.547C263.827 266.19 262.798 269.865 262.798 274.572C262.798 278.119 262.954 281.504 263.266 284.727C263.578 287.951 263.921 291.078 264.295 294.109C264.732 297.075 265.106 300.008 265.418 302.91C265.73 305.811 265.886 308.745 265.886 311.711C265.886 314.161 265.543 316.514 264.856 318.771C264.233 320.963 263.297 322.994 262.049 324.864C260.802 326.67 259.242 328.282 257.371 329.7C255.562 331.054 253.503 332.086 251.195 332.795C253.503 333.504 255.562 334.568 257.371 335.986C259.242 337.341 260.802 338.952 262.049 340.822C263.297 342.628 264.233 344.659 264.856 346.915C265.543 349.108 265.886 351.396 265.886 353.782C265.886 356.748 265.73 359.714 265.418 362.68C265.106 365.581 264.732 368.547 264.295 371.578C263.921 374.544 263.578 377.639 263.266 380.862C262.954 384.086 262.798 387.471 262.798 391.017C262.798 395.66 263.827 399.335 265.886 402.043C268.007 404.751 271.157 406.105 275.336 406.105H275.804C276.241 406.105 276.771 406.202 277.395 406.395C278.019 406.589 278.611 406.911 279.173 407.362C279.734 407.814 280.202 408.362 280.576 409.007C281.013 409.651 281.231 410.457 281.231 411.424V423.03H276.272C270.096 423.03 264.732 422.224 260.178 420.612C255.687 419 251.944 416.712 248.949 413.746C246.018 410.844 243.834 407.298 242.4 403.107C241.027 398.98 240.341 394.403 240.341 389.373C240.341 386.278 240.528 383.248 240.902 380.282C241.277 377.252 241.682 374.254 242.119 371.288C242.618 368.257 243.055 365.291 243.429 362.39C243.865 359.424 244.084 356.458 244.084 353.492C244.084 349.623 243.273 346.464 241.651 344.014C240.029 341.564 237.284 340.339 233.417 340.339V325.251C237.284 325.251 240.029 324.026 241.651 321.576C243.273 319.126 244.084 315.966 244.084 312.098C244.084 309.132 243.865 306.198 243.429 303.297C243.055 300.331 242.618 297.365 242.119 294.399C241.682 291.369 241.277 288.37 240.902 285.404C240.528 282.374 240.341 279.311 240.341 276.216C240.341 271.187 241.027 266.609 242.4 262.483C243.834 258.292 246.018 254.713 248.949 251.747C251.944 248.782 255.687 246.493 260.178 244.881C264.732 243.269 270.096 242.463 276.272 242.463H281.231V254.165C281.231 255.133 281.013 255.938 280.576 256.583C280.202 257.228 279.734 257.776 279.173 258.227C278.611 258.679 278.019 259.001 277.395 259.195C276.771 259.388 276.241 259.485 275.804 259.485H275.336Z" fill="url(#paint0_linear)"/>
<path d="M396.064 340.339C392.197 340.339 389.452 341.564 387.83 344.014C386.208 346.464 385.397 349.623 385.397 353.492C385.397 356.458 385.584 359.424 385.959 362.39C386.333 365.291 386.738 368.257 387.175 371.288C387.674 374.254 388.111 377.252 388.485 380.282C388.922 383.248 389.14 386.278 389.14 389.373C389.14 394.403 388.423 398.98 386.988 403.107C385.616 407.298 383.432 410.844 380.438 413.746C377.506 416.712 373.763 419 369.21 420.612C364.718 422.224 359.385 423.03 353.209 423.03H348.25V411.424C348.25 410.457 348.437 409.651 348.811 409.007C349.185 408.362 349.653 407.814 350.215 407.362C350.776 406.911 351.369 406.589 351.993 406.395C352.616 406.202 353.178 406.105 353.677 406.105H354.145C358.324 406.105 361.443 404.751 363.502 402.043C365.623 399.335 366.683 395.66 366.683 391.017C366.683 387.471 366.527 384.086 366.215 380.862C365.903 377.639 365.529 374.544 365.092 371.578C364.718 368.547 364.375 365.581 364.063 362.68C363.751 359.714 363.595 356.748 363.595 353.782C363.595 351.396 363.907 349.108 364.531 346.915C365.217 344.659 366.184 342.628 367.432 340.822C368.679 338.952 370.208 337.341 372.017 335.986C373.888 334.568 376.009 333.504 378.379 332.795C376.009 332.086 373.888 331.054 372.017 329.7C370.208 328.282 368.679 326.67 367.432 324.864C366.184 322.994 365.217 320.963 364.531 318.771C363.907 316.514 363.595 314.161 363.595 311.711C363.595 308.745 363.751 305.811 364.063 302.91C364.375 300.008 364.718 297.075 365.092 294.109C365.529 291.078 365.903 287.951 366.215 284.727C366.527 281.504 366.683 278.119 366.683 274.572C366.683 269.865 365.623 266.19 363.502 263.547C361.443 260.839 358.324 259.485 354.145 259.485H353.677C353.178 259.485 352.616 259.388 351.993 259.195C351.369 259.001 350.776 258.679 350.215 258.227C349.653 257.776 349.185 257.228 348.811 256.583C348.437 255.938 348.25 255.133 348.25 254.165V242.463H353.209C359.385 242.463 364.718 243.269 369.21 244.881C373.763 246.493 377.506 248.782 380.438 251.747C383.432 254.713 385.616 258.292 386.988 262.483C388.423 266.609 389.14 271.187 389.14 276.216C389.14 279.311 388.922 282.374 388.485 285.404C388.111 288.37 387.674 291.369 387.175 294.399C386.738 297.365 386.333 300.331 385.959 303.297C385.584 306.198 385.397 309.132 385.397 312.098C385.397 315.966 386.208 319.126 387.83 321.576C389.452 324.026 392.197 325.251 396.064 325.251V340.339Z" fill="url(#paint1_linear)"/>
<path d="M81.393 114.53C81.393 124.134 80.1465 132.738 77.6536 140.341C75.2438 147.944 71.6291 154.387 66.8095 159.669C62.0731 164.872 56.2148 168.873 49.2347 171.675C42.2546 174.476 34.2357 175.877 25.1782 175.877C16.9517 175.877 8.55894 174.756 0 172.515C0.166193 170.194 0.373934 167.913 0.623223 165.672C0.872513 163.351 1.08025 161.07 1.24645 158.829C1.41264 157.469 1.91122 156.388 2.74218 155.588C3.65624 154.707 5.02734 154.267 6.85546 154.267C8.35119 154.267 10.304 154.627 12.7138 155.348C15.2067 156.068 18.5305 156.428 22.6853 156.428C28.1697 156.428 33.0724 155.628 37.3934 154.027C41.7144 152.426 45.3291 149.945 48.2375 146.584C51.1459 143.222 53.3479 138.94 54.8437 133.738C56.4225 128.456 57.2119 122.213 57.2119 115.01V28.7145H81.393V114.53Z" fill="#4F4F4F"/>
<path d="M302.725 87.9983C302.725 100.884 300.606 112.729 296.368 123.534C292.13 134.258 286.147 143.502 278.419 151.266C270.691 159.029 261.384 165.072 250.499 169.394C239.696 173.636 227.73 175.756 214.601 175.756C201.472 175.756 189.506 173.636 178.703 169.394C167.901 165.072 158.636 159.029 150.908 151.266C143.18 143.502 137.197 134.258 132.959 123.534C128.721 112.729 126.602 100.884 126.602 87.9983C126.602 75.1127 128.721 63.3075 132.959 52.5829C137.197 41.7782 143.18 32.4941 150.908 24.7308C158.636 16.8874 167.901 10.8047 178.703 6.48282C189.506 2.16094 201.472 0 214.601 0C227.73 0 239.696 2.16094 250.499 6.48282C261.384 10.8047 270.691 16.8874 278.419 24.7308C286.147 32.4941 292.13 41.7782 296.368 52.5829C300.606 63.3075 302.725 75.1127 302.725 87.9983ZM277.921 87.9983C277.921 77.4337 276.425 67.9496 273.433 59.5459C270.442 51.1423 266.204 44.0592 260.72 38.2967C255.235 32.4541 248.588 27.9722 240.777 24.8508C232.965 21.7295 224.24 20.1688 214.601 20.1688C205.045 20.1688 196.361 21.7295 188.55 24.8508C180.739 27.9722 174.05 32.4541 168.483 38.2967C162.998 44.0592 158.76 51.1423 155.769 59.5459C152.777 67.9496 151.282 77.4337 151.282 87.9983C151.282 98.5629 152.777 108.047 155.769 116.451C158.76 124.774 162.998 131.857 168.483 137.7C174.05 143.462 180.739 147.904 188.55 151.026C196.361 154.067 205.045 155.588 214.601 155.588C224.24 155.588 232.965 154.067 240.777 151.026C248.588 147.904 255.235 143.462 260.72 137.7C266.204 131.857 270.442 124.774 273.433 116.451C276.425 108.047 277.921 98.5629 277.921 87.9983Z" fill="#4F4F4F"/>
<path d="M402.511 91.1197C409.408 91.1197 415.474 90.2393 420.709 88.4785C426.027 86.7177 430.473 84.2767 434.046 81.1553C437.702 77.9539 440.444 74.1523 442.272 69.7504C444.101 65.3484 445.015 60.5063 445.015 55.224C445.015 44.2593 441.483 35.6955 434.42 29.5329C427.44 23.3702 416.803 20.2888 402.511 20.2888H373.843V91.1197H402.511ZM402.511 1.92084C413.812 1.92084 423.617 3.2014 431.927 5.76252C440.32 8.24359 447.258 11.8051 452.743 16.4472C458.227 21.0892 462.299 26.6916 464.958 33.2545C467.7 39.8173 469.071 47.1405 469.071 55.224C469.071 63.2275 467.617 70.5507 464.708 77.1936C461.8 83.8365 457.521 89.559 451.87 94.361C446.303 99.1631 439.364 102.925 431.054 105.646C422.828 108.287 413.313 109.608 402.511 109.608H373.843V173.956H349.786V1.92084H402.511Z" fill="#4F4F4F"/>
<path d="M564.695 91.1197C571.592 91.1197 577.658 90.2393 582.893 88.4785C588.211 86.7177 592.657 84.2767 596.23 81.1553C599.886 77.9539 602.628 74.1523 604.457 69.7504C606.285 65.3484 607.199 60.5063 607.199 55.224C607.199 44.2593 603.667 35.6955 596.604 29.5329C589.624 23.3702 578.988 20.2888 564.695 20.2888H536.027V91.1197H564.695ZM564.695 1.92084C575.996 1.92084 585.801 3.2014 594.111 5.76252C602.504 8.24359 609.442 11.8051 614.927 16.4472C620.411 21.0892 624.483 26.6916 627.142 33.2545C629.884 39.8173 631.255 47.1405 631.255 55.224C631.255 63.2275 629.801 70.5507 626.893 77.1936C623.984 83.8365 619.705 89.559 614.054 94.361C608.487 99.1631 601.548 102.925 593.239 105.646C585.012 108.287 575.497 109.608 564.695 109.608H536.027V173.956H511.97V1.92084H564.695Z" fill="#4F4F4F"/>
<path d="M737.562 105.406V143.115H713.38V105.406L647.942 1.92084H669.132C671.292 1.92084 672.996 2.44106 674.242 3.48152C675.488 4.44193 676.569 5.7225 677.483 7.3232L718.366 74.1923C719.862 76.9935 721.233 79.6347 722.48 82.1157C723.726 84.5168 724.806 86.9578 725.72 89.4389C726.634 86.9578 727.673 84.5168 728.836 82.1157C730 79.6347 731.288 76.9935 732.7 74.1923L773.459 7.3232C774.207 5.9626 775.246 4.72206 776.575 3.60157C777.905 2.48108 779.608 1.92084 781.686 1.92084H803L737.562 105.406Z" fill="#4F4F4F"/>
<path d="M56.8652 -3.05176e-05H80.9897V20.6913H56.8652V-3.05176e-05Z" fill="#F94673"/>
<rect x="713.395" y="151.738" width="24.1245" height="24.1399" fill="#F94673"/>
<defs>
<linearGradient id="paint0_linear" x1="314.741" y1="242.463" x2="314.741" y2="423.03" gradientUnits="userSpaceOnUse">
<stop stop-color="#68EFE5"/>
<stop offset="1" stop-color="#F1C0FF"/>
</linearGradient>
<linearGradient id="paint1_linear" x1="314.741" y1="242.463" x2="314.741" y2="423.03" gradientUnits="userSpaceOnUse">
<stop stop-color="#68EFE5"/>
<stop offset="1" stop-color="#F1C0FF"/>
</linearGradient>
</defs>
</svg>
