<svg width="180" height="180" viewBox="0 0 180 180" fill="none" xmlns="http://www.w3.org/2000/svg">
<path d="M148.4 17H31.6C23.57 17 17 23.57 17 31.6V148.4C17 156.43 23.57 163 31.6 163H148.4C156.43 163 163 156.43 163 148.4V31.6C163 23.57 156.43 17 148.4 17Z" fill="white"/>
<path d="M148.4 148.4H31.6V31.6001H148.4V148.4Z" fill="#F0A0FD"/>
<path d="M133.8 46.2H97.2999C89.27 46.2 82.7 52.77 82.7 60.8V77.444C78.32 79.999 75.4 84.5979 75.4 90C75.4 98.0299 81.9699 104.6 90 104.6C98.0299 104.6 104.6 98.0299 104.6 90C104.6 84.5979 101.68 79.926 97.2999 77.444V60.8H119.2V119.2H60.8V60.8H75.4V46.2H46.2V133.8H133.8V46.2Z" fill="white"/>
</svg>
