<svg width="180" height="180" viewBox="0 0 180 180" fill="none" xmlns="http://www.w3.org/2000/svg">
<path fill-rule="evenodd" clip-rule="evenodd" d="M162 57.2727V18H122.727V31.0909H57.2727V18H18V57.2727H31.0909V122.727H18V162H57.2727V148.909H122.727V162H162V122.727H148.909V57.2727H162ZM31.0909 31.0908H44.1819V44.1817H31.0909V31.0908ZM31.0909 148.909H44.1819V135.818H31.0909V148.909ZM148.909 148.909H135.818V135.818H148.909V148.909ZM135.818 31.0908V44.1817H148.909V31.0908H135.818Z" fill="white"/>
<path d="M122.727 135.818H57.2727V122.727H44.1818V57.2728H57.2727V44.1819H122.727V57.2728H135.818V122.727H122.727V135.818Z" fill="#FFBB49"/>
<path d="M101.324 103.091H78.4802L73.702 116.182H63.0984L85.3529 57.2727H94.5166L116.837 116.182H106.167L101.324 103.091Z" fill="white"/>
<path d="M81.425 94.8433H98.5087L89.9996 69.7742L81.425 94.8433H81.425Z" fill="#FFBB49"/>
</svg>
