<svg width="642" height="249" viewBox="0 0 642 249" fill="none" xmlns="http://www.w3.org/2000/svg">
<path d="M43 203H641.5" stroke="#D3D3D3" stroke-linecap="round" stroke-dasharray="3 3"/>
<path d="M43 152.5H641.5" stroke="#D3D3D3" stroke-linecap="round" stroke-dasharray="3 3"/>
<path d="M43 102H641.5" stroke="#D3D3D3" stroke-linecap="round" stroke-dasharray="3 3"/>
<path d="M43 51.5H641.5" stroke="#D3D3D3" stroke-linecap="round" stroke-dasharray="3 3"/>
<path d="M43 1H641.5" stroke="#D3D3D3" stroke-linecap="round" stroke-dasharray="3 3"/>
<path d="M83.0695 236.14V245.5H81.7305V239.084C81.7305 238.98 81.7327 238.868 81.737 238.746C81.7457 238.621 81.7565 238.495 81.7695 238.369L78.76 243.927C78.643 244.157 78.4632 244.271 78.2205 244.271H78.006C77.759 244.271 77.5792 244.157 77.4665 243.927L74.4115 238.356C74.4245 238.482 74.4332 238.608 74.4375 238.733C74.4462 238.859 74.4505 238.976 74.4505 239.084V245.5H73.1115V236.14H74.249C74.3833 236.14 74.4873 236.153 74.561 236.179C74.6347 236.201 74.7018 236.272 74.7625 236.393L77.7655 241.834C77.8305 241.96 77.8912 242.09 77.9475 242.224C78.0082 242.354 78.0623 242.488 78.11 242.627C78.162 242.488 78.2162 242.352 78.2725 242.218C78.3332 242.079 78.396 241.947 78.461 241.821L81.4185 236.393C81.4792 236.272 81.5463 236.201 81.62 236.179C81.6937 236.153 81.7977 236.14 81.932 236.14H83.0695ZM89.0411 242.601C88.5427 242.618 88.1224 242.659 87.7801 242.724C87.4377 242.785 87.1604 242.865 86.9481 242.965C86.7357 243.06 86.5819 243.175 86.4866 243.309C86.3956 243.444 86.3501 243.591 86.3501 243.751C86.3501 243.907 86.3739 244.042 86.4216 244.154C86.4736 244.263 86.5429 244.354 86.6296 244.427C86.7206 244.497 86.8246 244.549 86.9416 244.583C87.0629 244.614 87.1951 244.629 87.3381 244.629C87.7021 244.629 88.0141 244.562 88.2741 244.427C88.5384 244.289 88.7941 244.089 89.0411 243.83V242.601ZM85.3361 239.793C86.0857 239.095 86.9784 238.746 88.0141 238.746C88.3954 238.746 88.7334 238.809 89.0281 238.935C89.3271 239.056 89.5762 239.23 89.7756 239.455C89.9792 239.68 90.1331 239.949 90.2371 240.261C90.3454 240.569 90.3996 240.911 90.3996 241.288V245.5H89.7756C89.6412 245.5 89.5394 245.48 89.4701 245.441C89.4007 245.398 89.3422 245.314 89.2946 245.188L89.1581 244.648C88.9891 244.8 88.8222 244.937 88.6576 245.058C88.4929 245.175 88.3217 245.275 88.1441 245.357C87.9707 245.439 87.7822 245.5 87.5786 245.539C87.3792 245.582 87.1582 245.604 86.9156 245.604C86.6469 245.604 86.3956 245.567 86.1616 245.493C85.9319 245.42 85.7326 245.309 85.5636 245.162C85.3946 245.01 85.2602 244.824 85.1606 244.603C85.0652 244.382 85.0176 244.122 85.0176 243.823C85.0176 243.567 85.0847 243.318 85.2191 243.075C85.3577 242.833 85.5831 242.616 85.8951 242.425C86.2114 242.23 86.6252 242.07 87.1366 241.944C87.6522 241.819 88.2871 241.747 89.0411 241.73V241.288C89.0411 240.811 88.9392 240.456 88.7356 240.222C88.5319 239.988 88.2329 239.871 87.8386 239.871C87.5699 239.871 87.3446 239.906 87.1626 239.975C86.9806 240.04 86.8224 240.111 86.6881 240.189C86.5537 240.267 86.4346 240.341 86.3306 240.41C86.2266 240.475 86.1161 240.508 85.9991 240.508C85.9037 240.508 85.8214 240.484 85.7521 240.436C85.6871 240.384 85.6329 240.322 85.5896 240.248L85.3361 239.793ZM98.3914 238.87L94.7384 247.385C94.6908 247.485 94.6323 247.563 94.5629 247.619C94.4979 247.675 94.3961 247.704 94.2574 247.704H93.2239L94.4459 245.051L91.7419 238.87H92.9574C93.0744 238.87 93.1633 238.898 93.2239 238.954C93.2889 239.006 93.3366 239.069 93.3669 239.143L94.9464 242.906C94.9854 243.015 95.0201 243.123 95.0504 243.231C95.0851 243.335 95.1176 243.444 95.1479 243.556C95.1826 243.444 95.2173 243.333 95.2519 243.225C95.2866 243.117 95.3256 243.008 95.3689 242.9L96.8834 239.143C96.9138 239.065 96.9636 239 97.0329 238.948C97.1066 238.896 97.1868 238.87 97.2734 238.87H98.3914ZM102.627 238.766C103.117 238.766 103.559 238.846 103.953 239.006C104.352 239.167 104.69 239.394 104.967 239.689C105.249 239.984 105.465 240.341 105.617 240.761C105.769 241.182 105.844 241.654 105.844 242.178C105.844 242.703 105.769 243.175 105.617 243.595C105.465 244.016 105.249 244.375 104.967 244.674C104.69 244.969 104.352 245.197 103.953 245.357C103.559 245.517 103.117 245.598 102.627 245.598C102.133 245.598 101.687 245.517 101.288 245.357C100.894 245.197 100.556 244.969 100.274 244.674C99.9923 244.375 99.7757 244.016 99.624 243.595C99.4723 243.175 99.3965 242.703 99.3965 242.178C99.3965 241.654 99.4723 241.182 99.624 240.761C99.7757 240.341 99.9923 239.984 100.274 239.689C100.556 239.394 100.894 239.167 101.288 239.006C101.687 238.846 102.133 238.766 102.627 238.766ZM102.627 244.505C103.225 244.505 103.669 244.306 103.959 243.907C104.254 243.504 104.401 242.93 104.401 242.185C104.401 241.44 104.254 240.865 103.959 240.462C103.669 240.055 103.225 239.851 102.627 239.851C102.02 239.851 101.57 240.055 101.275 240.462C100.98 240.865 100.833 241.44 100.833 242.185C100.833 242.93 100.98 243.504 101.275 243.907C101.57 244.306 102.02 244.505 102.627 244.505ZM117.549 244.44V245.5H112.446V244.44H114.396V238.577C114.396 238.369 114.403 238.157 114.416 237.94L112.914 239.208C112.849 239.26 112.782 239.295 112.713 239.312C112.648 239.325 112.585 239.325 112.524 239.312C112.468 239.299 112.416 239.279 112.368 239.253C112.325 239.223 112.29 239.191 112.264 239.156L111.829 238.545L114.65 236.12H115.787V244.44H117.549Z" fill="#D3D3D3"/>
<path d="M103 199.5V110.5" stroke="#0EBDCA" stroke-width="8" stroke-linecap="round"/>
<path d="M88 199.5V163.5" stroke="#0EE788" stroke-width="8" stroke-linecap="round"/>
<path d="M0.84786 49.714C0.91286 49.272 1.03419 48.8842 1.21186 48.5505C1.39386 48.2168 1.62136 47.9395 1.89436 47.7185C2.16736 47.4932 2.47936 47.3242 2.83036 47.2115C3.18569 47.0945 3.56919 47.036 3.98086 47.036C4.39686 47.036 4.77386 47.0967 5.11186 47.218C5.45419 47.335 5.74669 47.4997 5.98936 47.712C6.23636 47.9243 6.42486 48.1778 6.55486 48.4725C6.68919 48.7672 6.75636 49.09 6.75636 49.441C6.75636 49.74 6.71953 50.0043 6.64586 50.234C6.57653 50.4593 6.47469 50.6587 6.34036 50.832C6.21036 51.0053 6.05003 51.1505 5.85936 51.2675C5.66869 51.3845 5.45419 51.482 5.21586 51.56C5.79653 51.729 6.23203 51.9998 6.52236 52.3725C6.81269 52.7408 6.95786 53.2045 6.95786 53.7635C6.95786 54.2142 6.87336 54.615 6.70436 54.966C6.53536 55.317 6.30569 55.6138 6.01536 55.8565C5.72936 56.0992 5.39353 56.2855 5.00786 56.4155C4.62653 56.5412 4.22136 56.604 3.79236 56.604C3.31136 56.604 2.89536 56.5477 2.54436 56.435C2.19336 56.318 1.89003 56.1533 1.63436 55.941C1.38303 55.7243 1.17286 55.4643 1.00386 55.161C0.83486 54.8577 0.69186 54.5175 0.57486 54.1405L1.17936 53.887C1.33969 53.8177 1.49136 53.7982 1.63436 53.8285C1.78169 53.8588 1.88786 53.939 1.95286 54.069C2.02219 54.2077 2.10019 54.3572 2.18686 54.5175C2.27353 54.6735 2.38403 54.8187 2.51836 54.953C2.65703 55.083 2.82603 55.1935 3.02536 55.2845C3.22903 55.3712 3.47819 55.4145 3.77286 55.4145C4.07186 55.4145 4.33186 55.3668 4.55286 55.2715C4.77819 55.1718 4.96453 55.0462 5.11186 54.8945C5.26353 54.7385 5.37619 54.5652 5.44986 54.3745C5.52353 54.1838 5.56036 53.9953 5.56036 53.809C5.56036 53.575 5.53219 53.3605 5.47586 53.1655C5.41953 52.9662 5.30903 52.7972 5.14436 52.6585C4.98403 52.5198 4.75436 52.4115 4.45536 52.3335C4.16069 52.2512 3.77286 52.21 3.29186 52.21V51.2025C3.68619 51.1982 4.01769 51.1592 4.28636 51.0855C4.55936 51.0075 4.77603 50.9035 4.93636 50.7735C5.10103 50.6392 5.21803 50.4788 5.28736 50.2925C5.36103 50.1062 5.39786 49.9025 5.39786 49.6815C5.39786 49.4432 5.36103 49.233 5.28736 49.051C5.21369 48.869 5.10969 48.7173 4.97536 48.596C4.84536 48.4703 4.68936 48.3772 4.50736 48.3165C4.32536 48.2558 4.12386 48.2255 3.90286 48.2255C3.69053 48.2255 3.49336 48.2558 3.31136 48.3165C3.13369 48.3772 2.97336 48.4617 2.83036 48.57C2.69169 48.6783 2.57469 48.8083 2.47936 48.96C2.38403 49.1073 2.31469 49.2698 2.27136 49.4475C2.21069 49.6252 2.12836 49.7443 2.02436 49.805C1.92469 49.8657 1.77736 49.8787 1.58236 49.844L0.84786 49.714ZM15.4544 51.82C15.4544 52.639 15.3655 53.3475 15.1879 53.9455C15.0145 54.5435 14.774 55.0397 14.4664 55.434C14.1587 55.8283 13.7969 56.1208 13.3809 56.3115C12.9649 56.5022 12.5164 56.5975 12.0354 56.5975C11.5544 56.5975 11.1059 56.5022 10.6899 56.3115C10.2739 56.1208 9.91204 55.8283 9.60438 55.434C9.30104 55.0397 9.06271 54.5435 8.88938 53.9455C8.71604 53.3475 8.62938 52.639 8.62938 51.82C8.62938 51.001 8.71604 50.2925 8.88938 49.6945C9.06271 49.0922 9.30104 48.596 9.60438 48.206C9.91204 47.8117 10.2739 47.5192 10.6899 47.3285C11.1059 47.1335 11.5544 47.036 12.0354 47.036C12.5164 47.036 12.9649 47.1335 13.3809 47.3285C13.7969 47.5192 14.1587 47.8117 14.4664 48.206C14.774 48.596 15.0145 49.0922 15.1879 49.6945C15.3655 50.2925 15.4544 51.001 15.4544 51.82ZM14.0114 51.82C14.0114 51.1267 13.955 50.5503 13.8424 50.091C13.734 49.6273 13.5889 49.2568 13.4069 48.9795C13.2249 48.7022 13.0147 48.505 12.7764 48.388C12.538 48.271 12.291 48.2125 12.0354 48.2125C11.7754 48.2125 11.5262 48.271 11.2879 48.388C11.0539 48.505 10.8459 48.7022 10.6639 48.9795C10.4819 49.2568 10.3367 49.6273 10.2284 50.091C10.12 50.5503 10.0659 51.1267 10.0659 51.82C10.0659 52.5133 10.12 53.0918 10.2284 53.5555C10.3367 54.0148 10.4819 54.3832 10.6639 54.6605C10.8459 54.9378 11.0539 55.135 11.2879 55.252C11.5262 55.369 11.7754 55.4275 12.0354 55.4275C12.291 55.4275 12.538 55.369 12.7764 55.252C13.0147 55.135 13.2249 54.9378 13.4069 54.6605C13.5889 54.3832 13.734 54.0148 13.8424 53.5555C13.955 53.0918 14.0114 52.5133 14.0114 51.82ZM21.2339 49.402C21.2339 49.7617 21.1754 50.0845 21.0584 50.3705C20.9457 50.6565 20.7919 50.9013 20.5969 51.105C20.4019 51.3043 20.1766 51.4582 19.9209 51.5665C19.6652 51.6705 19.3966 51.7225 19.1149 51.7225C18.8116 51.7225 18.5299 51.6705 18.2699 51.5665C18.0142 51.4582 17.7911 51.3043 17.6004 51.105C17.4141 50.9013 17.2667 50.6565 17.1584 50.3705C17.0501 50.0845 16.9959 49.7617 16.9959 49.402C16.9959 49.0337 17.0501 48.7043 17.1584 48.414C17.2667 48.1193 17.4141 47.8723 17.6004 47.673C17.7911 47.4693 18.0142 47.3133 18.2699 47.205C18.5299 47.0967 18.8116 47.0425 19.1149 47.0425C19.4182 47.0425 19.6977 47.0967 19.9534 47.205C20.2134 47.3133 20.4366 47.4693 20.6229 47.673C20.8136 47.8723 20.9631 48.1193 21.0714 48.414C21.1797 48.7043 21.2339 49.0337 21.2339 49.402ZM20.1549 49.402C20.1549 49.1377 20.1267 48.9145 20.0704 48.7325C20.0184 48.5462 19.9447 48.3967 19.8494 48.284C19.7584 48.167 19.6479 48.0847 19.5179 48.037C19.3922 47.985 19.2579 47.959 19.1149 47.959C18.9676 47.959 18.8311 47.985 18.7054 48.037C18.5797 48.0847 18.4714 48.167 18.3804 48.284C18.2894 48.3967 18.2179 48.5462 18.1659 48.7325C18.1139 48.9145 18.0879 49.1377 18.0879 49.402C18.0879 49.662 18.1139 49.8808 18.1659 50.0585C18.2179 50.2362 18.2894 50.3813 18.3804 50.494C18.4714 50.6023 18.5797 50.6803 18.7054 50.728C18.8311 50.7757 18.9676 50.7995 19.1149 50.7995C19.2579 50.7995 19.3922 50.7757 19.5179 50.728C19.6479 50.6803 19.7584 50.6023 19.8494 50.494C19.9447 50.3813 20.0184 50.2362 20.0704 50.0585C20.1267 49.8808 20.1549 49.662 20.1549 49.402ZM24.4449 47.3675C24.4926 47.3068 24.5489 47.2548 24.6139 47.2115C24.6832 47.1638 24.7786 47.14 24.8999 47.14H25.9074L19.0109 56.2855C18.9632 56.3462 18.9047 56.3982 18.8354 56.4415C18.7661 56.4805 18.6816 56.5 18.5819 56.5H17.5419L24.4449 47.3675ZM26.4729 54.2965C26.4729 54.6562 26.4144 54.979 26.2974 55.265C26.1804 55.551 26.0244 55.7937 25.8294 55.993C25.6344 56.1923 25.4091 56.3462 25.1534 56.4545C24.8977 56.5585 24.6291 56.6105 24.3474 56.6105C24.0441 56.6105 23.7624 56.5585 23.5024 56.4545C23.2467 56.3462 23.0236 56.1923 22.8329 55.993C22.6466 55.7937 22.4992 55.551 22.3909 55.265C22.2869 54.979 22.2349 54.6562 22.2349 54.2965C22.2349 53.9282 22.2869 53.5988 22.3909 53.3085C22.4992 53.0138 22.6466 52.7647 22.8329 52.561C23.0236 52.3573 23.2467 52.2035 23.5024 52.0995C23.7624 51.9912 24.0441 51.937 24.3474 51.937C24.6507 51.937 24.9324 51.9912 25.1924 52.0995C25.4524 52.2035 25.6756 52.3573 25.8619 52.561C26.0526 52.7647 26.2021 53.0138 26.3104 53.3085C26.4187 53.5988 26.4729 53.9282 26.4729 54.2965ZM25.3939 54.2965C25.3939 54.0322 25.3657 53.809 25.3094 53.627C25.2574 53.4407 25.1837 53.2912 25.0884 53.1785C24.9931 53.0615 24.8804 52.9792 24.7504 52.9315C24.6247 52.8795 24.4904 52.8535 24.3474 52.8535C24.2044 52.8535 24.0701 52.8795 23.9444 52.9315C23.8187 52.9792 23.7082 53.0615 23.6129 53.1785C23.5219 53.2912 23.4504 53.4407 23.3984 53.627C23.3464 53.809 23.3204 54.0322 23.3204 54.2965C23.3204 54.5565 23.3464 54.7753 23.3984 54.953C23.4504 55.1307 23.5219 55.2758 23.6129 55.3885C23.7082 55.4968 23.8187 55.5748 23.9444 55.6225C24.0701 55.6702 24.2044 55.694 24.3474 55.694C24.4904 55.694 24.6247 55.6702 24.7504 55.6225C24.8804 55.5748 24.9931 55.4968 25.0884 55.3885C25.1837 55.2758 25.2574 55.1307 25.3094 54.953C25.3657 54.7753 25.3939 54.5565 25.3939 54.2965Z" fill="#D3D3D3"/>
<path d="M6.47686 105.18C6.62853 105.18 6.74769 105.226 6.83436 105.317C6.92103 105.404 6.96436 105.516 6.96436 105.655V106.5H0.63336V106.025C0.63336 105.93 0.65286 105.83 0.69186 105.726C0.73086 105.622 0.793694 105.527 0.88036 105.44L3.79236 102.522C4.03936 102.275 4.25819 102.039 4.44886 101.813C4.64386 101.588 4.80853 101.363 4.94286 101.137C5.08153 100.912 5.18553 100.685 5.25486 100.455C5.32853 100.221 5.36536 99.9762 5.36536 99.7205C5.36536 99.4735 5.32636 99.2568 5.24836 99.0705C5.17469 98.8798 5.07069 98.7238 4.93636 98.6025C4.80636 98.4768 4.64819 98.3837 4.46186 98.323C4.27986 98.258 4.07836 98.2255 3.85736 98.2255C3.64503 98.2255 3.44786 98.2558 3.26586 98.3165C3.08819 98.3772 2.92786 98.4617 2.78486 98.57C2.64619 98.6783 2.52919 98.8083 2.43386 98.96C2.34286 99.1073 2.27569 99.2698 2.23236 99.4475C2.16736 99.6252 2.08286 99.7443 1.97886 99.805C1.87919 99.8657 1.73186 99.8787 1.53686 99.844L0.80236 99.714C0.86736 99.272 0.988694 98.8842 1.16636 98.5505C1.34836 98.2168 1.57586 97.9395 1.84886 97.7185C2.12186 97.4932 2.43386 97.3242 2.78486 97.2115C3.14019 97.0945 3.52369 97.036 3.93536 97.036C4.35136 97.036 4.73269 97.0988 5.07936 97.2245C5.43036 97.3458 5.73153 97.5213 5.98286 97.751C6.23853 97.9763 6.43786 98.2515 6.58086 98.5765C6.72386 98.9015 6.79536 99.2677 6.79536 99.675C6.79536 100.022 6.74336 100.342 6.63936 100.637C6.53969 100.932 6.40319 101.213 6.22986 101.482C6.05653 101.751 5.85286 102.013 5.61886 102.268C5.38919 102.52 5.14653 102.775 4.89086 103.035L2.62886 105.349C2.81519 105.297 3.00153 105.256 3.18786 105.226C3.37853 105.196 3.55836 105.18 3.72736 105.18H6.47686ZM15.4544 101.82C15.4544 102.639 15.3655 103.347 15.1879 103.945C15.0145 104.543 14.774 105.04 14.4664 105.434C14.1587 105.828 13.7969 106.121 13.3809 106.311C12.9649 106.502 12.5164 106.598 12.0354 106.598C11.5544 106.598 11.1059 106.502 10.6899 106.311C10.2739 106.121 9.91204 105.828 9.60438 105.434C9.30104 105.04 9.06271 104.543 8.88938 103.945C8.71604 103.347 8.62938 102.639 8.62938 101.82C8.62938 101.001 8.71604 100.292 8.88938 99.6945C9.06271 99.0922 9.30104 98.596 9.60438 98.206C9.91204 97.8117 10.2739 97.5192 10.6899 97.3285C11.1059 97.1335 11.5544 97.036 12.0354 97.036C12.5164 97.036 12.9649 97.1335 13.3809 97.3285C13.7969 97.5192 14.1587 97.8117 14.4664 98.206C14.774 98.596 15.0145 99.0922 15.1879 99.6945C15.3655 100.292 15.4544 101.001 15.4544 101.82ZM14.0114 101.82C14.0114 101.127 13.955 100.55 13.8424 100.091C13.734 99.6273 13.5889 99.2568 13.4069 98.9795C13.2249 98.7022 13.0147 98.505 12.7764 98.388C12.538 98.271 12.291 98.2125 12.0354 98.2125C11.7754 98.2125 11.5262 98.271 11.2879 98.388C11.0539 98.505 10.8459 98.7022 10.6639 98.9795C10.4819 99.2568 10.3367 99.6273 10.2284 100.091C10.12 100.55 10.0659 101.127 10.0659 101.82C10.0659 102.513 10.12 103.092 10.2284 103.555C10.3367 104.015 10.4819 104.383 10.6639 104.66C10.8459 104.938 11.0539 105.135 11.2879 105.252C11.5262 105.369 11.7754 105.427 12.0354 105.427C12.291 105.427 12.538 105.369 12.7764 105.252C13.0147 105.135 13.2249 104.938 13.4069 104.66C13.5889 104.383 13.734 104.015 13.8424 103.555C13.955 103.092 14.0114 102.513 14.0114 101.82ZM21.2339 99.402C21.2339 99.7617 21.1754 100.084 21.0584 100.37C20.9457 100.656 20.7919 100.901 20.5969 101.105C20.4019 101.304 20.1766 101.458 19.9209 101.566C19.6652 101.67 19.3966 101.722 19.1149 101.722C18.8116 101.722 18.5299 101.67 18.2699 101.566C18.0142 101.458 17.7911 101.304 17.6004 101.105C17.4141 100.901 17.2667 100.656 17.1584 100.37C17.0501 100.084 16.9959 99.7617 16.9959 99.402C16.9959 99.0337 17.0501 98.7043 17.1584 98.414C17.2667 98.1193 17.4141 97.8723 17.6004 97.673C17.7911 97.4693 18.0142 97.3133 18.2699 97.205C18.5299 97.0967 18.8116 97.0425 19.1149 97.0425C19.4182 97.0425 19.6977 97.0967 19.9534 97.205C20.2134 97.3133 20.4366 97.4693 20.6229 97.673C20.8136 97.8723 20.9631 98.1193 21.0714 98.414C21.1797 98.7043 21.2339 99.0337 21.2339 99.402ZM20.1549 99.402C20.1549 99.1377 20.1267 98.9145 20.0704 98.7325C20.0184 98.5462 19.9447 98.3967 19.8494 98.284C19.7584 98.167 19.6479 98.0847 19.5179 98.037C19.3922 97.985 19.2579 97.959 19.1149 97.959C18.9676 97.959 18.8311 97.985 18.7054 98.037C18.5797 98.0847 18.4714 98.167 18.3804 98.284C18.2894 98.3967 18.2179 98.5462 18.1659 98.7325C18.1139 98.9145 18.0879 99.1377 18.0879 99.402C18.0879 99.662 18.1139 99.8808 18.1659 100.058C18.2179 100.236 18.2894 100.381 18.3804 100.494C18.4714 100.602 18.5797 100.68 18.7054 100.728C18.8311 100.776 18.9676 100.799 19.1149 100.799C19.2579 100.799 19.3922 100.776 19.5179 100.728C19.6479 100.68 19.7584 100.602 19.8494 100.494C19.9447 100.381 20.0184 100.236 20.0704 100.058C20.1267 99.8808 20.1549 99.662 20.1549 99.402ZM24.4449 97.3675C24.4926 97.3068 24.5489 97.2548 24.6139 97.2115C24.6832 97.1638 24.7786 97.14 24.8999 97.14H25.9074L19.0109 106.286C18.9632 106.346 18.9047 106.398 18.8354 106.441C18.7661 106.48 18.6816 106.5 18.5819 106.5H17.5419L24.4449 97.3675ZM26.4729 104.296C26.4729 104.656 26.4144 104.979 26.2974 105.265C26.1804 105.551 26.0244 105.794 25.8294 105.993C25.6344 106.192 25.4091 106.346 25.1534 106.454C24.8977 106.559 24.6291 106.611 24.3474 106.611C24.0441 106.611 23.7624 106.559 23.5024 106.454C23.2467 106.346 23.0236 106.192 22.8329 105.993C22.6466 105.794 22.4992 105.551 22.3909 105.265C22.2869 104.979 22.2349 104.656 22.2349 104.296C22.2349 103.928 22.2869 103.599 22.3909 103.308C22.4992 103.014 22.6466 102.765 22.8329 102.561C23.0236 102.357 23.2467 102.203 23.5024 102.099C23.7624 101.991 24.0441 101.937 24.3474 101.937C24.6507 101.937 24.9324 101.991 25.1924 102.099C25.4524 102.203 25.6756 102.357 25.8619 102.561C26.0526 102.765 26.2021 103.014 26.3104 103.308C26.4187 103.599 26.4729 103.928 26.4729 104.296ZM25.3939 104.296C25.3939 104.032 25.3657 103.809 25.3094 103.627C25.2574 103.441 25.1837 103.291 25.0884 103.178C24.9931 103.061 24.8804 102.979 24.7504 102.931C24.6247 102.879 24.4904 102.853 24.3474 102.853C24.2044 102.853 24.0701 102.879 23.9444 102.931C23.8187 102.979 23.7082 103.061 23.6129 103.178C23.5219 103.291 23.4504 103.441 23.3984 103.627C23.3464 103.809 23.3204 104.032 23.3204 104.296C23.3204 104.556 23.3464 104.775 23.3984 104.953C23.4504 105.131 23.5219 105.276 23.6129 105.388C23.7082 105.497 23.8187 105.575 23.9444 105.622C24.0701 105.67 24.2044 105.694 24.3474 105.694C24.4904 105.694 24.6247 105.67 24.7504 105.622C24.8804 105.575 24.9931 105.497 25.0884 105.388C25.1837 105.276 25.2574 105.131 25.3094 104.953C25.3657 104.775 25.3939 104.556 25.3939 104.296Z" fill="#D3D3D3"/>
<path d="M6.75636 155.44V156.5H1.65386V155.44H3.60386V149.577C3.60386 149.369 3.61036 149.157 3.62336 148.94L2.12186 150.208C2.05686 150.26 1.98969 150.295 1.92036 150.312C1.85536 150.325 1.79253 150.325 1.73186 150.312C1.67553 150.299 1.62353 150.279 1.57586 150.253C1.53253 150.223 1.49786 150.191 1.47186 150.156L1.03636 149.545L3.85736 147.12H4.99486V155.44H6.75636ZM15.4544 151.82C15.4544 152.639 15.3655 153.347 15.1879 153.945C15.0145 154.543 14.774 155.04 14.4664 155.434C14.1587 155.828 13.7969 156.121 13.3809 156.311C12.9649 156.502 12.5164 156.598 12.0354 156.598C11.5544 156.598 11.1059 156.502 10.6899 156.311C10.2739 156.121 9.91204 155.828 9.60438 155.434C9.30104 155.04 9.06271 154.543 8.88938 153.945C8.71604 153.347 8.62938 152.639 8.62938 151.82C8.62938 151.001 8.71604 150.292 8.88938 149.694C9.06271 149.092 9.30104 148.596 9.60438 148.206C9.91204 147.812 10.2739 147.519 10.6899 147.328C11.1059 147.133 11.5544 147.036 12.0354 147.036C12.5164 147.036 12.9649 147.133 13.3809 147.328C13.7969 147.519 14.1587 147.812 14.4664 148.206C14.774 148.596 15.0145 149.092 15.1879 149.694C15.3655 150.292 15.4544 151.001 15.4544 151.82ZM14.0114 151.82C14.0114 151.127 13.955 150.55 13.8424 150.091C13.734 149.627 13.5889 149.257 13.4069 148.979C13.2249 148.702 13.0147 148.505 12.7764 148.388C12.538 148.271 12.291 148.212 12.0354 148.212C11.7754 148.212 11.5262 148.271 11.2879 148.388C11.0539 148.505 10.8459 148.702 10.6639 148.979C10.4819 149.257 10.3367 149.627 10.2284 150.091C10.12 150.55 10.0659 151.127 10.0659 151.82C10.0659 152.513 10.12 153.092 10.2284 153.555C10.3367 154.015 10.4819 154.383 10.6639 154.66C10.8459 154.938 11.0539 155.135 11.2879 155.252C11.5262 155.369 11.7754 155.427 12.0354 155.427C12.291 155.427 12.538 155.369 12.7764 155.252C13.0147 155.135 13.2249 154.938 13.4069 154.66C13.5889 154.383 13.734 154.015 13.8424 153.555C13.955 153.092 14.0114 152.513 14.0114 151.82ZM21.2339 149.402C21.2339 149.762 21.1754 150.084 21.0584 150.37C20.9457 150.656 20.7919 150.901 20.5969 151.105C20.4019 151.304 20.1766 151.458 19.9209 151.566C19.6652 151.67 19.3966 151.722 19.1149 151.722C18.8116 151.722 18.5299 151.67 18.2699 151.566C18.0142 151.458 17.7911 151.304 17.6004 151.105C17.4141 150.901 17.2667 150.656 17.1584 150.37C17.0501 150.084 16.9959 149.762 16.9959 149.402C16.9959 149.034 17.0501 148.704 17.1584 148.414C17.2667 148.119 17.4141 147.872 17.6004 147.673C17.7911 147.469 18.0142 147.313 18.2699 147.205C18.5299 147.097 18.8116 147.042 19.1149 147.042C19.4182 147.042 19.6977 147.097 19.9534 147.205C20.2134 147.313 20.4366 147.469 20.6229 147.673C20.8136 147.872 20.9631 148.119 21.0714 148.414C21.1797 148.704 21.2339 149.034 21.2339 149.402ZM20.1549 149.402C20.1549 149.138 20.1267 148.914 20.0704 148.732C20.0184 148.546 19.9447 148.397 19.8494 148.284C19.7584 148.167 19.6479 148.085 19.5179 148.037C19.3922 147.985 19.2579 147.959 19.1149 147.959C18.9676 147.959 18.8311 147.985 18.7054 148.037C18.5797 148.085 18.4714 148.167 18.3804 148.284C18.2894 148.397 18.2179 148.546 18.1659 148.732C18.1139 148.914 18.0879 149.138 18.0879 149.402C18.0879 149.662 18.1139 149.881 18.1659 150.058C18.2179 150.236 18.2894 150.381 18.3804 150.494C18.4714 150.602 18.5797 150.68 18.7054 150.728C18.8311 150.776 18.9676 150.799 19.1149 150.799C19.2579 150.799 19.3922 150.776 19.5179 150.728C19.6479 150.68 19.7584 150.602 19.8494 150.494C19.9447 150.381 20.0184 150.236 20.0704 150.058C20.1267 149.881 20.1549 149.662 20.1549 149.402ZM24.4449 147.367C24.4926 147.307 24.5489 147.255 24.6139 147.211C24.6832 147.164 24.7786 147.14 24.8999 147.14H25.9074L19.0109 156.286C18.9632 156.346 18.9047 156.398 18.8354 156.441C18.7661 156.48 18.6816 156.5 18.5819 156.5H17.5419L24.4449 147.367ZM26.4729 154.296C26.4729 154.656 26.4144 154.979 26.2974 155.265C26.1804 155.551 26.0244 155.794 25.8294 155.993C25.6344 156.192 25.4091 156.346 25.1534 156.454C24.8977 156.559 24.6291 156.611 24.3474 156.611C24.0441 156.611 23.7624 156.559 23.5024 156.454C23.2467 156.346 23.0236 156.192 22.8329 155.993C22.6466 155.794 22.4992 155.551 22.3909 155.265C22.2869 154.979 22.2349 154.656 22.2349 154.296C22.2349 153.928 22.2869 153.599 22.3909 153.308C22.4992 153.014 22.6466 152.765 22.8329 152.561C23.0236 152.357 23.2467 152.203 23.5024 152.099C23.7624 151.991 24.0441 151.937 24.3474 151.937C24.6507 151.937 24.9324 151.991 25.1924 152.099C25.4524 152.203 25.6756 152.357 25.8619 152.561C26.0526 152.765 26.2021 153.014 26.3104 153.308C26.4187 153.599 26.4729 153.928 26.4729 154.296ZM25.3939 154.296C25.3939 154.032 25.3657 153.809 25.3094 153.627C25.2574 153.441 25.1837 153.291 25.0884 153.178C24.9931 153.061 24.8804 152.979 24.7504 152.931C24.6247 152.879 24.4904 152.853 24.3474 152.853C24.2044 152.853 24.0701 152.879 23.9444 152.931C23.8187 152.979 23.7082 153.061 23.6129 153.178C23.5219 153.291 23.4504 153.441 23.3984 153.627C23.3464 153.809 23.3204 154.032 23.3204 154.296C23.3204 154.556 23.3464 154.775 23.3984 154.953C23.4504 155.131 23.5219 155.276 23.6129 155.388C23.7082 155.497 23.8187 155.575 23.9444 155.622C24.0701 155.67 24.2044 155.694 24.3474 155.694C24.4904 155.694 24.6247 155.67 24.7504 155.622C24.8804 155.575 24.9931 155.497 25.0884 155.388C25.1837 155.276 25.2574 155.131 25.3094 154.953C25.3657 154.775 25.3939 154.556 25.3939 154.296Z" fill="#D3D3D3"/>
<path d="M15.4544 201.82C15.4544 202.639 15.3655 203.347 15.1879 203.945C15.0145 204.543 14.774 205.04 14.4664 205.434C14.1587 205.828 13.7969 206.121 13.3809 206.311C12.9649 206.502 12.5164 206.598 12.0354 206.598C11.5544 206.598 11.1059 206.502 10.6899 206.311C10.2739 206.121 9.91204 205.828 9.60438 205.434C9.30104 205.04 9.06271 204.543 8.88938 203.945C8.71604 203.347 8.62938 202.639 8.62938 201.82C8.62938 201.001 8.71604 200.292 8.88938 199.694C9.06271 199.092 9.30104 198.596 9.60438 198.206C9.91204 197.812 10.2739 197.519 10.6899 197.328C11.1059 197.133 11.5544 197.036 12.0354 197.036C12.5164 197.036 12.9649 197.133 13.3809 197.328C13.7969 197.519 14.1587 197.812 14.4664 198.206C14.774 198.596 15.0145 199.092 15.1879 199.694C15.3655 200.292 15.4544 201.001 15.4544 201.82ZM14.0114 201.82C14.0114 201.127 13.955 200.55 13.8424 200.091C13.734 199.627 13.5889 199.257 13.4069 198.979C13.2249 198.702 13.0147 198.505 12.7764 198.388C12.538 198.271 12.291 198.212 12.0354 198.212C11.7754 198.212 11.5262 198.271 11.2879 198.388C11.0539 198.505 10.8459 198.702 10.6639 198.979C10.4819 199.257 10.3367 199.627 10.2284 200.091C10.12 200.55 10.0659 201.127 10.0659 201.82C10.0659 202.513 10.12 203.092 10.2284 203.555C10.3367 204.015 10.4819 204.383 10.6639 204.66C10.8459 204.938 11.0539 205.135 11.2879 205.252C11.5262 205.369 11.7754 205.427 12.0354 205.427C12.291 205.427 12.538 205.369 12.7764 205.252C13.0147 205.135 13.2249 204.938 13.4069 204.66C13.5889 204.383 13.734 204.015 13.8424 203.555C13.955 203.092 14.0114 202.513 14.0114 201.82ZM21.2339 199.402C21.2339 199.762 21.1754 200.084 21.0584 200.37C20.9457 200.656 20.7919 200.901 20.5969 201.105C20.4019 201.304 20.1766 201.458 19.9209 201.566C19.6652 201.67 19.3966 201.722 19.1149 201.722C18.8116 201.722 18.5299 201.67 18.2699 201.566C18.0142 201.458 17.7911 201.304 17.6004 201.105C17.4141 200.901 17.2667 200.656 17.1584 200.37C17.0501 200.084 16.9959 199.762 16.9959 199.402C16.9959 199.034 17.0501 198.704 17.1584 198.414C17.2667 198.119 17.4141 197.872 17.6004 197.673C17.7911 197.469 18.0142 197.313 18.2699 197.205C18.5299 197.097 18.8116 197.042 19.1149 197.042C19.4182 197.042 19.6977 197.097 19.9534 197.205C20.2134 197.313 20.4366 197.469 20.6229 197.673C20.8136 197.872 20.9631 198.119 21.0714 198.414C21.1797 198.704 21.2339 199.034 21.2339 199.402ZM20.1549 199.402C20.1549 199.138 20.1267 198.914 20.0704 198.732C20.0184 198.546 19.9447 198.397 19.8494 198.284C19.7584 198.167 19.6479 198.085 19.5179 198.037C19.3922 197.985 19.2579 197.959 19.1149 197.959C18.9676 197.959 18.8311 197.985 18.7054 198.037C18.5797 198.085 18.4714 198.167 18.3804 198.284C18.2894 198.397 18.2179 198.546 18.1659 198.732C18.1139 198.914 18.0879 199.138 18.0879 199.402C18.0879 199.662 18.1139 199.881 18.1659 200.058C18.2179 200.236 18.2894 200.381 18.3804 200.494C18.4714 200.602 18.5797 200.68 18.7054 200.728C18.8311 200.776 18.9676 200.799 19.1149 200.799C19.2579 200.799 19.3922 200.776 19.5179 200.728C19.6479 200.68 19.7584 200.602 19.8494 200.494C19.9447 200.381 20.0184 200.236 20.0704 200.058C20.1267 199.881 20.1549 199.662 20.1549 199.402ZM24.4449 197.367C24.4926 197.307 24.5489 197.255 24.6139 197.211C24.6832 197.164 24.7786 197.14 24.8999 197.14H25.9074L19.0109 206.286C18.9632 206.346 18.9047 206.398 18.8354 206.441C18.7661 206.48 18.6816 206.5 18.5819 206.5H17.5419L24.4449 197.367ZM26.4729 204.296C26.4729 204.656 26.4144 204.979 26.2974 205.265C26.1804 205.551 26.0244 205.794 25.8294 205.993C25.6344 206.192 25.4091 206.346 25.1534 206.454C24.8977 206.559 24.6291 206.611 24.3474 206.611C24.0441 206.611 23.7624 206.559 23.5024 206.454C23.2467 206.346 23.0236 206.192 22.8329 205.993C22.6466 205.794 22.4992 205.551 22.3909 205.265C22.2869 204.979 22.2349 204.656 22.2349 204.296C22.2349 203.928 22.2869 203.599 22.3909 203.308C22.4992 203.014 22.6466 202.765 22.8329 202.561C23.0236 202.357 23.2467 202.203 23.5024 202.099C23.7624 201.991 24.0441 201.937 24.3474 201.937C24.6507 201.937 24.9324 201.991 25.1924 202.099C25.4524 202.203 25.6756 202.357 25.8619 202.561C26.0526 202.765 26.2021 203.014 26.3104 203.308C26.4187 203.599 26.4729 203.928 26.4729 204.296ZM25.3939 204.296C25.3939 204.032 25.3657 203.809 25.3094 203.627C25.2574 203.441 25.1837 203.291 25.0884 203.178C24.9931 203.061 24.8804 202.979 24.7504 202.931C24.6247 202.879 24.4904 202.853 24.3474 202.853C24.2044 202.853 24.0701 202.879 23.9444 202.931C23.8187 202.979 23.7082 203.061 23.6129 203.178C23.5219 203.291 23.4504 203.441 23.3984 203.627C23.3464 203.809 23.3204 204.032 23.3204 204.296C23.3204 204.556 23.3464 204.775 23.3984 204.953C23.4504 205.131 23.5219 205.276 23.6129 205.388C23.7082 205.497 23.8187 205.575 23.9444 205.622C24.0701 205.67 24.2044 205.694 24.3474 205.694C24.4904 205.694 24.6247 205.67 24.7504 205.622C24.8804 205.575 24.9931 205.497 25.0884 205.388C25.1837 205.276 25.2574 205.131 25.3094 204.953C25.3657 204.775 25.3939 204.556 25.3939 204.296Z" fill="#D3D3D3"/>
<path d="M181.07 236.14V245.5H179.731V239.084C179.731 238.98 179.733 238.868 179.737 238.746C179.746 238.621 179.757 238.495 179.77 238.369L176.76 243.927C176.643 244.157 176.463 244.271 176.221 244.271H176.006C175.759 244.271 175.579 244.157 175.467 243.927L172.412 238.356C172.425 238.482 172.433 238.608 172.438 238.733C172.446 238.859 172.451 238.976 172.451 239.084V245.5H171.112V236.14H172.249C172.383 236.14 172.487 236.153 172.561 236.179C172.635 236.201 172.702 236.272 172.763 236.393L175.766 241.834C175.831 241.96 175.891 242.09 175.948 242.224C176.008 242.354 176.062 242.488 176.11 242.627C176.162 242.488 176.216 242.352 176.273 242.218C176.333 242.079 176.396 241.947 176.461 241.821L179.419 236.393C179.479 236.272 179.546 236.201 179.62 236.179C179.694 236.153 179.798 236.14 179.932 236.14H181.07ZM187.041 242.601C186.543 242.618 186.122 242.659 185.78 242.724C185.438 242.785 185.16 242.865 184.948 242.965C184.736 243.06 184.582 243.175 184.487 243.309C184.396 243.444 184.35 243.591 184.35 243.751C184.35 243.907 184.374 244.042 184.422 244.154C184.474 244.263 184.543 244.354 184.63 244.427C184.721 244.497 184.825 244.549 184.942 244.583C185.063 244.614 185.195 244.629 185.338 244.629C185.702 244.629 186.014 244.562 186.274 244.427C186.538 244.289 186.794 244.089 187.041 243.83V242.601ZM183.336 239.793C184.086 239.095 184.978 238.746 186.014 238.746C186.395 238.746 186.733 238.809 187.028 238.935C187.327 239.056 187.576 239.23 187.776 239.455C187.979 239.68 188.133 239.949 188.237 240.261C188.345 240.569 188.4 240.911 188.4 241.288V245.5H187.776C187.641 245.5 187.539 245.48 187.47 245.441C187.401 245.398 187.342 245.314 187.295 245.188L187.158 244.648C186.989 244.8 186.822 244.937 186.658 245.058C186.493 245.175 186.322 245.275 186.144 245.357C185.971 245.439 185.782 245.5 185.579 245.539C185.379 245.582 185.158 245.604 184.916 245.604C184.647 245.604 184.396 245.567 184.162 245.493C183.932 245.42 183.733 245.309 183.564 245.162C183.395 245.01 183.26 244.824 183.161 244.603C183.065 244.382 183.018 244.122 183.018 243.823C183.018 243.567 183.085 243.318 183.219 243.075C183.358 242.833 183.583 242.616 183.895 242.425C184.211 242.23 184.625 242.07 185.137 241.944C185.652 241.819 186.287 241.747 187.041 241.73V241.288C187.041 240.811 186.939 240.456 186.736 240.222C186.532 239.988 186.233 239.871 185.839 239.871C185.57 239.871 185.345 239.906 185.163 239.975C184.981 240.04 184.822 240.111 184.688 240.189C184.554 240.267 184.435 240.341 184.331 240.41C184.227 240.475 184.116 240.508 183.999 240.508C183.904 240.508 183.821 240.484 183.752 240.436C183.687 240.384 183.633 240.322 183.59 240.248L183.336 239.793ZM196.391 238.87L192.738 247.385C192.691 247.485 192.632 247.563 192.563 247.619C192.498 247.675 192.396 247.704 192.257 247.704H191.224L192.446 245.051L189.742 238.87H190.957C191.074 238.87 191.163 238.898 191.224 238.954C191.289 239.006 191.337 239.069 191.367 239.143L192.946 242.906C192.985 243.015 193.02 243.123 193.05 243.231C193.085 243.335 193.118 243.444 193.148 243.556C193.183 243.444 193.217 243.333 193.252 243.225C193.287 243.117 193.326 243.008 193.369 242.9L194.883 239.143C194.914 239.065 194.964 239 195.033 238.948C195.107 238.896 195.187 238.87 195.273 238.87H196.391ZM200.627 238.766C201.117 238.766 201.559 238.846 201.953 239.006C202.352 239.167 202.69 239.394 202.967 239.689C203.249 239.984 203.465 240.341 203.617 240.761C203.769 241.182 203.844 241.654 203.844 242.178C203.844 242.703 203.769 243.175 203.617 243.595C203.465 244.016 203.249 244.375 202.967 244.674C202.69 244.969 202.352 245.197 201.953 245.357C201.559 245.517 201.117 245.598 200.627 245.598C200.133 245.598 199.687 245.517 199.288 245.357C198.894 245.197 198.556 244.969 198.274 244.674C197.992 244.375 197.776 244.016 197.624 243.595C197.472 243.175 197.396 242.703 197.396 242.178C197.396 241.654 197.472 241.182 197.624 240.761C197.776 240.341 197.992 239.984 198.274 239.689C198.556 239.394 198.894 239.167 199.288 239.006C199.687 238.846 200.133 238.766 200.627 238.766ZM200.627 244.505C201.225 244.505 201.669 244.306 201.959 243.907C202.254 243.504 202.401 242.93 202.401 242.185C202.401 241.44 202.254 240.865 201.959 240.462C201.669 240.055 201.225 239.851 200.627 239.851C200.02 239.851 199.57 240.055 199.275 240.462C198.98 240.865 198.833 241.44 198.833 242.185C198.833 242.93 198.98 243.504 199.275 243.907C199.57 244.306 200.02 244.505 200.627 244.505ZM215.269 244.18C215.421 244.18 215.54 244.226 215.627 244.317C215.713 244.404 215.757 244.516 215.757 244.655V245.5H209.426V245.025C209.426 244.93 209.445 244.83 209.484 244.726C209.523 244.622 209.586 244.527 209.673 244.44L212.585 241.522C212.832 241.275 213.05 241.039 213.241 240.813C213.436 240.588 213.601 240.363 213.735 240.137C213.874 239.912 213.978 239.685 214.047 239.455C214.121 239.221 214.158 238.976 214.158 238.72C214.158 238.473 214.119 238.257 214.041 238.07C213.967 237.88 213.863 237.724 213.729 237.602C213.599 237.477 213.44 237.384 213.254 237.323C213.072 237.258 212.871 237.225 212.65 237.225C212.437 237.225 212.24 237.256 212.058 237.316C211.88 237.377 211.72 237.462 211.577 237.57C211.438 237.678 211.321 237.808 211.226 237.96C211.135 238.107 211.068 238.27 211.025 238.447C210.96 238.625 210.875 238.744 210.771 238.805C210.671 238.866 210.524 238.879 210.329 238.844L209.595 238.714C209.66 238.272 209.781 237.884 209.959 237.55C210.141 237.217 210.368 236.939 210.641 236.718C210.914 236.493 211.226 236.324 211.577 236.211C211.932 236.094 212.316 236.036 212.728 236.036C213.144 236.036 213.525 236.099 213.872 236.224C214.223 236.346 214.524 236.521 214.775 236.751C215.031 236.976 215.23 237.251 215.373 237.576C215.516 237.901 215.588 238.268 215.588 238.675C215.588 239.022 215.536 239.342 215.432 239.637C215.332 239.932 215.195 240.213 215.022 240.482C214.849 240.751 214.645 241.013 214.411 241.268C214.181 241.52 213.939 241.775 213.683 242.035L211.421 244.349C211.607 244.297 211.794 244.256 211.98 244.226C212.171 244.196 212.351 244.18 212.52 244.18H215.269Z" fill="#D3D3D3"/>
<path d="M201 199.5V101.5" stroke="#0EBDCA" stroke-width="8" stroke-linecap="round"/>
<path d="M186 199.5V159.86" stroke="#0EE788" stroke-width="8" stroke-linecap="round"/>
<path d="M279.07 236.14V245.5H277.731V239.084C277.731 238.98 277.733 238.868 277.737 238.746C277.746 238.621 277.757 238.495 277.77 238.369L274.76 243.927C274.643 244.157 274.463 244.271 274.221 244.271H274.006C273.759 244.271 273.579 244.157 273.467 243.927L270.412 238.356C270.425 238.482 270.433 238.608 270.438 238.733C270.446 238.859 270.451 238.976 270.451 239.084V245.5H269.112V236.14H270.249C270.383 236.14 270.487 236.153 270.561 236.179C270.635 236.201 270.702 236.272 270.763 236.393L273.766 241.834C273.831 241.96 273.891 242.09 273.948 242.224C274.008 242.354 274.062 242.488 274.11 242.627C274.162 242.488 274.216 242.352 274.273 242.218C274.333 242.079 274.396 241.947 274.461 241.821L277.419 236.393C277.479 236.272 277.546 236.201 277.62 236.179C277.694 236.153 277.798 236.14 277.932 236.14H279.07ZM285.041 242.601C284.543 242.618 284.122 242.659 283.78 242.724C283.438 242.785 283.16 242.865 282.948 242.965C282.736 243.06 282.582 243.175 282.487 243.309C282.396 243.444 282.35 243.591 282.35 243.751C282.35 243.907 282.374 244.042 282.422 244.154C282.474 244.263 282.543 244.354 282.63 244.427C282.721 244.497 282.825 244.549 282.942 244.583C283.063 244.614 283.195 244.629 283.338 244.629C283.702 244.629 284.014 244.562 284.274 244.427C284.538 244.289 284.794 244.089 285.041 243.83V242.601ZM281.336 239.793C282.086 239.095 282.978 238.746 284.014 238.746C284.395 238.746 284.733 238.809 285.028 238.935C285.327 239.056 285.576 239.23 285.776 239.455C285.979 239.68 286.133 239.949 286.237 240.261C286.345 240.569 286.4 240.911 286.4 241.288V245.5H285.776C285.641 245.5 285.539 245.48 285.47 245.441C285.401 245.398 285.342 245.314 285.295 245.188L285.158 244.648C284.989 244.8 284.822 244.937 284.658 245.058C284.493 245.175 284.322 245.275 284.144 245.357C283.971 245.439 283.782 245.5 283.579 245.539C283.379 245.582 283.158 245.604 282.916 245.604C282.647 245.604 282.396 245.567 282.162 245.493C281.932 245.42 281.733 245.309 281.564 245.162C281.395 245.01 281.26 244.824 281.161 244.603C281.065 244.382 281.018 244.122 281.018 243.823C281.018 243.567 281.085 243.318 281.219 243.075C281.358 242.833 281.583 242.616 281.895 242.425C282.211 242.23 282.625 242.07 283.137 241.944C283.652 241.819 284.287 241.747 285.041 241.73V241.288C285.041 240.811 284.939 240.456 284.736 240.222C284.532 239.988 284.233 239.871 283.839 239.871C283.57 239.871 283.345 239.906 283.163 239.975C282.981 240.04 282.822 240.111 282.688 240.189C282.554 240.267 282.435 240.341 282.331 240.41C282.227 240.475 282.116 240.508 281.999 240.508C281.904 240.508 281.821 240.484 281.752 240.436C281.687 240.384 281.633 240.322 281.59 240.248L281.336 239.793ZM294.391 238.87L290.738 247.385C290.691 247.485 290.632 247.563 290.563 247.619C290.498 247.675 290.396 247.704 290.257 247.704H289.224L290.446 245.051L287.742 238.87H288.957C289.074 238.87 289.163 238.898 289.224 238.954C289.289 239.006 289.337 239.069 289.367 239.143L290.946 242.906C290.985 243.015 291.02 243.123 291.05 243.231C291.085 243.335 291.118 243.444 291.148 243.556C291.183 243.444 291.217 243.333 291.252 243.225C291.287 243.117 291.326 243.008 291.369 242.9L292.883 239.143C292.914 239.065 292.964 239 293.033 238.948C293.107 238.896 293.187 238.87 293.273 238.87H294.391ZM298.627 238.766C299.117 238.766 299.559 238.846 299.953 239.006C300.352 239.167 300.69 239.394 300.967 239.689C301.249 239.984 301.465 240.341 301.617 240.761C301.769 241.182 301.844 241.654 301.844 242.178C301.844 242.703 301.769 243.175 301.617 243.595C301.465 244.016 301.249 244.375 300.967 244.674C300.69 244.969 300.352 245.197 299.953 245.357C299.559 245.517 299.117 245.598 298.627 245.598C298.133 245.598 297.687 245.517 297.288 245.357C296.894 245.197 296.556 244.969 296.274 244.674C295.992 244.375 295.776 244.016 295.624 243.595C295.472 243.175 295.396 242.703 295.396 242.178C295.396 241.654 295.472 241.182 295.624 240.761C295.776 240.341 295.992 239.984 296.274 239.689C296.556 239.394 296.894 239.167 297.288 239.006C297.687 238.846 298.133 238.766 298.627 238.766ZM298.627 244.505C299.225 244.505 299.669 244.306 299.959 243.907C300.254 243.504 300.401 242.93 300.401 242.185C300.401 241.44 300.254 240.865 299.959 240.462C299.669 240.055 299.225 239.851 298.627 239.851C298.02 239.851 297.57 240.055 297.275 240.462C296.98 240.865 296.833 241.44 296.833 242.185C296.833 242.93 296.98 243.504 297.275 243.907C297.57 244.306 298.02 244.505 298.627 244.505ZM307.64 238.714C307.705 238.272 307.826 237.884 308.004 237.55C308.186 237.217 308.414 236.939 308.687 236.718C308.96 236.493 309.272 236.324 309.623 236.211C309.978 236.094 310.361 236.036 310.773 236.036C311.189 236.036 311.566 236.097 311.904 236.218C312.246 236.335 312.539 236.5 312.782 236.712C313.029 236.924 313.217 237.178 313.347 237.472C313.481 237.767 313.549 238.09 313.549 238.441C313.549 238.74 313.512 239.004 313.438 239.234C313.369 239.459 313.267 239.659 313.133 239.832C313.003 240.005 312.842 240.15 312.652 240.267C312.461 240.384 312.246 240.482 312.008 240.56C312.589 240.729 313.024 241 313.315 241.372C313.605 241.741 313.75 242.204 313.75 242.763C313.75 243.214 313.666 243.615 313.497 243.966C313.328 244.317 313.098 244.614 312.808 244.856C312.522 245.099 312.186 245.285 311.8 245.415C311.419 245.541 311.014 245.604 310.585 245.604C310.104 245.604 309.688 245.548 309.337 245.435C308.986 245.318 308.682 245.153 308.427 244.941C308.175 244.724 307.965 244.464 307.796 244.161C307.627 243.858 307.484 243.517 307.367 243.14L307.972 242.887C308.132 242.818 308.284 242.798 308.427 242.828C308.574 242.859 308.68 242.939 308.745 243.069C308.814 243.208 308.892 243.357 308.979 243.517C309.066 243.673 309.176 243.819 309.311 243.953C309.449 244.083 309.618 244.193 309.818 244.284C310.021 244.371 310.27 244.414 310.565 244.414C310.864 244.414 311.124 244.367 311.345 244.271C311.57 244.172 311.757 244.046 311.904 243.894C312.056 243.738 312.168 243.565 312.242 243.374C312.316 243.184 312.353 242.995 312.353 242.809C312.353 242.575 312.324 242.36 312.268 242.165C312.212 241.966 312.101 241.797 311.937 241.658C311.776 241.52 311.547 241.411 311.248 241.333C310.953 241.251 310.565 241.21 310.084 241.21V240.202C310.478 240.198 310.81 240.159 311.079 240.085C311.352 240.007 311.568 239.903 311.729 239.773C311.893 239.639 312.01 239.479 312.08 239.292C312.153 239.106 312.19 238.902 312.19 238.681C312.19 238.443 312.153 238.233 312.08 238.051C312.006 237.869 311.902 237.717 311.768 237.596C311.638 237.47 311.482 237.377 311.3 237.316C311.118 237.256 310.916 237.225 310.695 237.225C310.483 237.225 310.286 237.256 310.104 237.316C309.926 237.377 309.766 237.462 309.623 237.57C309.484 237.678 309.367 237.808 309.272 237.96C309.176 238.107 309.107 238.27 309.064 238.447C309.003 238.625 308.921 238.744 308.817 238.805C308.717 238.866 308.57 238.879 308.375 238.844L307.64 238.714Z" fill="#D3D3D3"/>
<path d="M299 199.5L299 66.5" stroke="#0EBDCA" stroke-width="8" stroke-linecap="round"/>
<path d="M284 199.5L284 173.5" stroke="#0EE788" stroke-width="8" stroke-linecap="round"/>
<path d="M377.07 236.14V245.5H375.731V239.084C375.731 238.98 375.733 238.868 375.737 238.746C375.746 238.621 375.757 238.495 375.77 238.369L372.76 243.927C372.643 244.157 372.463 244.271 372.221 244.271H372.006C371.759 244.271 371.579 244.157 371.467 243.927L368.412 238.356C368.425 238.482 368.433 238.608 368.438 238.733C368.446 238.859 368.451 238.976 368.451 239.084V245.5H367.112V236.14H368.249C368.383 236.14 368.487 236.153 368.561 236.179C368.635 236.201 368.702 236.272 368.763 236.393L371.766 241.834C371.831 241.96 371.891 242.09 371.948 242.224C372.008 242.354 372.062 242.488 372.11 242.627C372.162 242.488 372.216 242.352 372.273 242.218C372.333 242.079 372.396 241.947 372.461 241.821L375.419 236.393C375.479 236.272 375.546 236.201 375.62 236.179C375.694 236.153 375.798 236.14 375.932 236.14H377.07ZM383.041 242.601C382.543 242.618 382.122 242.659 381.78 242.724C381.438 242.785 381.16 242.865 380.948 242.965C380.736 243.06 380.582 243.175 380.487 243.309C380.396 243.444 380.35 243.591 380.35 243.751C380.35 243.907 380.374 244.042 380.422 244.154C380.474 244.263 380.543 244.354 380.63 244.427C380.721 244.497 380.825 244.549 380.942 244.583C381.063 244.614 381.195 244.629 381.338 244.629C381.702 244.629 382.014 244.562 382.274 244.427C382.538 244.289 382.794 244.089 383.041 243.83V242.601ZM379.336 239.793C380.086 239.095 380.978 238.746 382.014 238.746C382.395 238.746 382.733 238.809 383.028 238.935C383.327 239.056 383.576 239.23 383.776 239.455C383.979 239.68 384.133 239.949 384.237 240.261C384.345 240.569 384.4 240.911 384.4 241.288V245.5H383.776C383.641 245.5 383.539 245.48 383.47 245.441C383.401 245.398 383.342 245.314 383.295 245.188L383.158 244.648C382.989 244.8 382.822 244.937 382.658 245.058C382.493 245.175 382.322 245.275 382.144 245.357C381.971 245.439 381.782 245.5 381.579 245.539C381.379 245.582 381.158 245.604 380.916 245.604C380.647 245.604 380.396 245.567 380.162 245.493C379.932 245.42 379.733 245.309 379.564 245.162C379.395 245.01 379.26 244.824 379.161 244.603C379.065 244.382 379.018 244.122 379.018 243.823C379.018 243.567 379.085 243.318 379.219 243.075C379.358 242.833 379.583 242.616 379.895 242.425C380.211 242.23 380.625 242.07 381.137 241.944C381.652 241.819 382.287 241.747 383.041 241.73V241.288C383.041 240.811 382.939 240.456 382.736 240.222C382.532 239.988 382.233 239.871 381.839 239.871C381.57 239.871 381.345 239.906 381.163 239.975C380.981 240.04 380.822 240.111 380.688 240.189C380.554 240.267 380.435 240.341 380.331 240.41C380.227 240.475 380.116 240.508 379.999 240.508C379.904 240.508 379.821 240.484 379.752 240.436C379.687 240.384 379.633 240.322 379.59 240.248L379.336 239.793ZM392.391 238.87L388.738 247.385C388.691 247.485 388.632 247.563 388.563 247.619C388.498 247.675 388.396 247.704 388.257 247.704H387.224L388.446 245.051L385.742 238.87H386.957C387.074 238.87 387.163 238.898 387.224 238.954C387.289 239.006 387.337 239.069 387.367 239.143L388.946 242.906C388.985 243.015 389.02 243.123 389.05 243.231C389.085 243.335 389.118 243.444 389.148 243.556C389.183 243.444 389.217 243.333 389.252 243.225C389.287 243.117 389.326 243.008 389.369 242.9L390.883 239.143C390.914 239.065 390.964 239 391.033 238.948C391.107 238.896 391.187 238.87 391.273 238.87H392.391ZM396.627 238.766C397.117 238.766 397.559 238.846 397.953 239.006C398.352 239.167 398.69 239.394 398.967 239.689C399.249 239.984 399.465 240.341 399.617 240.761C399.769 241.182 399.844 241.654 399.844 242.178C399.844 242.703 399.769 243.175 399.617 243.595C399.465 244.016 399.249 244.375 398.967 244.674C398.69 244.969 398.352 245.197 397.953 245.357C397.559 245.517 397.117 245.598 396.627 245.598C396.133 245.598 395.687 245.517 395.288 245.357C394.894 245.197 394.556 244.969 394.274 244.674C393.992 244.375 393.776 244.016 393.624 243.595C393.472 243.175 393.396 242.703 393.396 242.178C393.396 241.654 393.472 241.182 393.624 240.761C393.776 240.341 393.992 239.984 394.274 239.689C394.556 239.394 394.894 239.167 395.288 239.006C395.687 238.846 396.133 238.766 396.627 238.766ZM396.627 244.505C397.225 244.505 397.669 244.306 397.959 243.907C398.254 243.504 398.401 242.93 398.401 242.185C398.401 241.44 398.254 240.865 397.959 240.462C397.669 240.055 397.225 239.851 396.627 239.851C396.02 239.851 395.57 240.055 395.275 240.462C394.98 240.865 394.833 241.44 394.833 242.185C394.833 242.93 394.98 243.504 395.275 243.907C395.57 244.306 396.02 244.505 396.627 244.505ZM409.56 242.042V238.623C409.56 238.35 409.579 238.051 409.618 237.726L406.472 242.042H409.56ZM412.069 242.042V242.848C412.069 242.926 412.043 242.993 411.991 243.049C411.943 243.106 411.869 243.134 411.77 243.134H410.775V245.5H409.56V243.134H405.51C405.41 243.134 405.324 243.106 405.25 243.049C405.181 242.989 405.135 242.915 405.114 242.828L404.971 242.113L409.462 236.133H410.775V242.042H412.069Z" fill="#D3D3D3"/>
<path d="M397 199.5V120.5" stroke="#0EBDCA" stroke-width="8" stroke-linecap="round"/>
<path d="M382 199.5V167.545" stroke="#0EE788" stroke-width="8" stroke-linecap="round"/>
<path d="M475.07 236.14V245.5H473.731V239.084C473.731 238.98 473.733 238.868 473.737 238.746C473.746 238.621 473.757 238.495 473.77 238.369L470.76 243.927C470.643 244.157 470.463 244.271 470.221 244.271H470.006C469.759 244.271 469.579 244.157 469.467 243.927L466.412 238.356C466.425 238.482 466.433 238.608 466.438 238.733C466.446 238.859 466.451 238.976 466.451 239.084V245.5H465.112V236.14H466.249C466.383 236.14 466.487 236.153 466.561 236.179C466.635 236.201 466.702 236.272 466.763 236.393L469.766 241.834C469.831 241.96 469.891 242.09 469.948 242.224C470.008 242.354 470.062 242.488 470.11 242.627C470.162 242.488 470.216 242.352 470.273 242.218C470.333 242.079 470.396 241.947 470.461 241.821L473.419 236.393C473.479 236.272 473.546 236.201 473.62 236.179C473.694 236.153 473.798 236.14 473.932 236.14H475.07ZM481.041 242.601C480.543 242.618 480.122 242.659 479.78 242.724C479.438 242.785 479.16 242.865 478.948 242.965C478.736 243.06 478.582 243.175 478.487 243.309C478.396 243.444 478.35 243.591 478.35 243.751C478.35 243.907 478.374 244.042 478.422 244.154C478.474 244.263 478.543 244.354 478.63 244.427C478.721 244.497 478.825 244.549 478.942 244.583C479.063 244.614 479.195 244.629 479.338 244.629C479.702 244.629 480.014 244.562 480.274 244.427C480.538 244.289 480.794 244.089 481.041 243.83V242.601ZM477.336 239.793C478.086 239.095 478.978 238.746 480.014 238.746C480.395 238.746 480.733 238.809 481.028 238.935C481.327 239.056 481.576 239.23 481.776 239.455C481.979 239.68 482.133 239.949 482.237 240.261C482.345 240.569 482.4 240.911 482.4 241.288V245.5H481.776C481.641 245.5 481.539 245.48 481.47 245.441C481.401 245.398 481.342 245.314 481.295 245.188L481.158 244.648C480.989 244.8 480.822 244.937 480.658 245.058C480.493 245.175 480.322 245.275 480.144 245.357C479.971 245.439 479.782 245.5 479.579 245.539C479.379 245.582 479.158 245.604 478.916 245.604C478.647 245.604 478.396 245.567 478.162 245.493C477.932 245.42 477.733 245.309 477.564 245.162C477.395 245.01 477.26 244.824 477.161 244.603C477.065 244.382 477.018 244.122 477.018 243.823C477.018 243.567 477.085 243.318 477.219 243.075C477.358 242.833 477.583 242.616 477.895 242.425C478.211 242.23 478.625 242.07 479.137 241.944C479.652 241.819 480.287 241.747 481.041 241.73V241.288C481.041 240.811 480.939 240.456 480.736 240.222C480.532 239.988 480.233 239.871 479.839 239.871C479.57 239.871 479.345 239.906 479.163 239.975C478.981 240.04 478.822 240.111 478.688 240.189C478.554 240.267 478.435 240.341 478.331 240.41C478.227 240.475 478.116 240.508 477.999 240.508C477.904 240.508 477.821 240.484 477.752 240.436C477.687 240.384 477.633 240.322 477.59 240.248L477.336 239.793ZM490.391 238.87L486.738 247.385C486.691 247.485 486.632 247.563 486.563 247.619C486.498 247.675 486.396 247.704 486.257 247.704H485.224L486.446 245.051L483.742 238.87H484.957C485.074 238.87 485.163 238.898 485.224 238.954C485.289 239.006 485.337 239.069 485.367 239.143L486.946 242.906C486.985 243.015 487.02 243.123 487.05 243.231C487.085 243.335 487.118 243.444 487.148 243.556C487.183 243.444 487.217 243.333 487.252 243.225C487.287 243.117 487.326 243.008 487.369 242.9L488.883 239.143C488.914 239.065 488.964 239 489.033 238.948C489.107 238.896 489.187 238.87 489.273 238.87H490.391ZM494.627 238.766C495.117 238.766 495.559 238.846 495.953 239.006C496.352 239.167 496.69 239.394 496.967 239.689C497.249 239.984 497.465 240.341 497.617 240.761C497.769 241.182 497.844 241.654 497.844 242.178C497.844 242.703 497.769 243.175 497.617 243.595C497.465 244.016 497.249 244.375 496.967 244.674C496.69 244.969 496.352 245.197 495.953 245.357C495.559 245.517 495.117 245.598 494.627 245.598C494.133 245.598 493.687 245.517 493.288 245.357C492.894 245.197 492.556 244.969 492.274 244.674C491.992 244.375 491.776 244.016 491.624 243.595C491.472 243.175 491.396 242.703 491.396 242.178C491.396 241.654 491.472 241.182 491.624 240.761C491.776 240.341 491.992 239.984 492.274 239.689C492.556 239.394 492.894 239.167 493.288 239.006C493.687 238.846 494.133 238.766 494.627 238.766ZM494.627 244.505C495.225 244.505 495.669 244.306 495.959 243.907C496.254 243.504 496.401 242.93 496.401 242.185C496.401 241.44 496.254 240.865 495.959 240.462C495.669 240.055 495.225 239.851 494.627 239.851C494.02 239.851 493.57 240.055 493.275 240.462C492.98 240.865 492.833 241.44 492.833 242.185C492.833 242.93 492.98 243.504 493.275 243.907C493.57 244.306 494.02 244.505 494.627 244.505ZM505.376 239.598C505.601 239.55 505.815 239.516 506.019 239.494C506.227 239.472 506.426 239.461 506.617 239.461C507.107 239.461 507.538 239.535 507.911 239.682C508.288 239.825 508.602 240.025 508.853 240.28C509.109 240.536 509.299 240.837 509.425 241.184C509.555 241.526 509.62 241.899 509.62 242.302C509.62 242.8 509.533 243.253 509.36 243.66C509.187 244.068 508.946 244.417 508.639 244.707C508.331 244.993 507.967 245.214 507.547 245.37C507.131 245.526 506.68 245.604 506.195 245.604C505.909 245.604 505.636 245.576 505.376 245.52C505.12 245.463 504.879 245.387 504.654 245.292C504.429 245.192 504.221 245.08 504.03 244.954C503.839 244.824 503.668 244.69 503.517 244.551L503.946 243.953C504.037 243.823 504.158 243.758 504.31 243.758C504.405 243.758 504.509 243.793 504.622 243.862C504.734 243.931 504.864 244.007 505.012 244.089C505.163 244.167 505.341 244.241 505.545 244.31C505.748 244.38 505.991 244.414 506.273 244.414C506.58 244.414 506.855 244.365 507.098 244.265C507.341 244.165 507.544 244.027 507.709 243.849C507.878 243.667 508.006 243.45 508.093 243.199C508.179 242.948 508.223 242.672 508.223 242.373C508.223 242.1 508.181 241.856 508.099 241.639C508.021 241.422 507.902 241.238 507.742 241.086C507.586 240.935 507.388 240.82 507.15 240.742C506.912 240.66 506.637 240.618 506.325 240.618C506.095 240.618 505.859 240.638 505.616 240.677C505.378 240.716 505.135 240.777 504.888 240.859L504.017 240.612L504.784 236.14H509.315V236.744C509.315 236.944 509.252 237.106 509.126 237.232C509 237.358 508.79 237.42 508.496 237.42H505.753L505.376 239.598Z" fill="#D3D3D3"/>
<path d="M495 199.5V110.5" stroke="#0EBDCA" stroke-width="8" stroke-linecap="round"/>
<path d="M480 199.5V163.5" stroke="#0EE788" stroke-width="8" stroke-linecap="round"/>
<path d="M573.07 236.14V245.5H571.731V239.084C571.731 238.98 571.733 238.868 571.737 238.746C571.746 238.621 571.757 238.495 571.77 238.369L568.76 243.927C568.643 244.157 568.463 244.271 568.221 244.271H568.006C567.759 244.271 567.579 244.157 567.467 243.927L564.412 238.356C564.425 238.482 564.433 238.608 564.438 238.733C564.446 238.859 564.451 238.976 564.451 239.084V245.5H563.112V236.14H564.249C564.383 236.14 564.487 236.153 564.561 236.179C564.635 236.201 564.702 236.272 564.763 236.393L567.766 241.834C567.831 241.96 567.891 242.09 567.948 242.224C568.008 242.354 568.062 242.488 568.11 242.627C568.162 242.488 568.216 242.352 568.273 242.218C568.333 242.079 568.396 241.947 568.461 241.821L571.419 236.393C571.479 236.272 571.546 236.201 571.62 236.179C571.694 236.153 571.798 236.14 571.932 236.14H573.07ZM579.041 242.601C578.543 242.618 578.122 242.659 577.78 242.724C577.438 242.785 577.16 242.865 576.948 242.965C576.736 243.06 576.582 243.175 576.487 243.309C576.396 243.444 576.35 243.591 576.35 243.751C576.35 243.907 576.374 244.042 576.422 244.154C576.474 244.263 576.543 244.354 576.63 244.427C576.721 244.497 576.825 244.549 576.942 244.583C577.063 244.614 577.195 244.629 577.338 244.629C577.702 244.629 578.014 244.562 578.274 244.427C578.538 244.289 578.794 244.089 579.041 243.83V242.601ZM575.336 239.793C576.086 239.095 576.978 238.746 578.014 238.746C578.395 238.746 578.733 238.809 579.028 238.935C579.327 239.056 579.576 239.23 579.776 239.455C579.979 239.68 580.133 239.949 580.237 240.261C580.345 240.569 580.4 240.911 580.4 241.288V245.5H579.776C579.641 245.5 579.539 245.48 579.47 245.441C579.401 245.398 579.342 245.314 579.295 245.188L579.158 244.648C578.989 244.8 578.822 244.937 578.658 245.058C578.493 245.175 578.322 245.275 578.144 245.357C577.971 245.439 577.782 245.5 577.579 245.539C577.379 245.582 577.158 245.604 576.916 245.604C576.647 245.604 576.396 245.567 576.162 245.493C575.932 245.42 575.733 245.309 575.564 245.162C575.395 245.01 575.26 244.824 575.161 244.603C575.065 244.382 575.018 244.122 575.018 243.823C575.018 243.567 575.085 243.318 575.219 243.075C575.358 242.833 575.583 242.616 575.895 242.425C576.211 242.23 576.625 242.07 577.137 241.944C577.652 241.819 578.287 241.747 579.041 241.73V241.288C579.041 240.811 578.939 240.456 578.736 240.222C578.532 239.988 578.233 239.871 577.839 239.871C577.57 239.871 577.345 239.906 577.163 239.975C576.981 240.04 576.822 240.111 576.688 240.189C576.554 240.267 576.435 240.341 576.331 240.41C576.227 240.475 576.116 240.508 575.999 240.508C575.904 240.508 575.821 240.484 575.752 240.436C575.687 240.384 575.633 240.322 575.59 240.248L575.336 239.793ZM588.391 238.87L584.738 247.385C584.691 247.485 584.632 247.563 584.563 247.619C584.498 247.675 584.396 247.704 584.257 247.704H583.224L584.446 245.051L581.742 238.87H582.957C583.074 238.87 583.163 238.898 583.224 238.954C583.289 239.006 583.337 239.069 583.367 239.143L584.946 242.906C584.985 243.015 585.02 243.123 585.05 243.231C585.085 243.335 585.118 243.444 585.148 243.556C585.183 243.444 585.217 243.333 585.252 243.225C585.287 243.117 585.326 243.008 585.369 242.9L586.883 239.143C586.914 239.065 586.964 239 587.033 238.948C587.107 238.896 587.187 238.87 587.273 238.87H588.391ZM592.627 238.766C593.117 238.766 593.559 238.846 593.953 239.006C594.352 239.167 594.69 239.394 594.967 239.689C595.249 239.984 595.465 240.341 595.617 240.761C595.769 241.182 595.844 241.654 595.844 242.178C595.844 242.703 595.769 243.175 595.617 243.595C595.465 244.016 595.249 244.375 594.967 244.674C594.69 244.969 594.352 245.197 593.953 245.357C593.559 245.517 593.117 245.598 592.627 245.598C592.133 245.598 591.687 245.517 591.288 245.357C590.894 245.197 590.556 244.969 590.274 244.674C589.992 244.375 589.776 244.016 589.624 243.595C589.472 243.175 589.396 242.703 589.396 242.178C589.396 241.654 589.472 241.182 589.624 240.761C589.776 240.341 589.992 239.984 590.274 239.689C590.556 239.394 590.894 239.167 591.288 239.006C591.687 238.846 592.133 238.766 592.627 238.766ZM592.627 244.505C593.225 244.505 593.669 244.306 593.959 243.907C594.254 243.504 594.401 242.93 594.401 242.185C594.401 241.44 594.254 240.865 593.959 240.462C593.669 240.055 593.225 239.851 592.627 239.851C592.02 239.851 591.57 240.055 591.275 240.462C590.98 240.865 590.833 241.44 590.833 242.185C590.833 242.93 590.98 243.504 591.275 243.907C591.57 244.306 592.02 244.505 592.627 244.505ZM604.63 244.447C604.912 244.447 605.17 244.401 605.404 244.31C605.638 244.215 605.837 244.085 606.002 243.92C606.171 243.756 606.301 243.561 606.392 243.335C606.483 243.11 606.528 242.865 606.528 242.601C606.528 242.315 606.483 242.059 606.392 241.834C606.305 241.604 606.179 241.411 606.015 241.255C605.854 241.099 605.659 240.98 605.43 240.898C605.204 240.811 604.955 240.768 604.682 240.768C604.4 240.768 604.145 240.816 603.915 240.911C603.69 241.006 603.497 241.136 603.337 241.301C603.176 241.466 603.053 241.658 602.966 241.879C602.879 242.1 602.836 242.334 602.836 242.581C602.836 242.859 602.875 243.112 602.953 243.342C603.031 243.572 603.146 243.769 603.298 243.933C603.449 244.094 603.636 244.219 603.857 244.31C604.082 244.401 604.34 244.447 604.63 244.447ZM604.117 239.585C604.047 239.672 603.98 239.754 603.915 239.832C603.854 239.91 603.794 239.988 603.733 240.066C603.932 239.953 604.151 239.864 604.39 239.799C604.628 239.734 604.884 239.702 605.157 239.702C605.521 239.702 605.869 239.763 606.203 239.884C606.537 240.001 606.829 240.179 607.081 240.417C607.336 240.651 607.54 240.943 607.692 241.294C607.843 241.641 607.919 242.042 607.919 242.497C607.919 242.93 607.839 243.335 607.679 243.712C607.523 244.089 607.302 244.419 607.016 244.7C606.73 244.978 606.385 245.199 605.982 245.363C605.583 245.524 605.141 245.604 604.656 245.604C604.171 245.604 603.733 245.526 603.343 245.37C602.953 245.214 602.619 244.995 602.342 244.713C602.069 244.427 601.859 244.085 601.712 243.686C601.564 243.288 601.491 242.844 601.491 242.354C601.491 241.929 601.582 241.485 601.764 241.021C601.946 240.558 602.227 240.07 602.609 239.559L604.91 236.471C604.979 236.38 605.079 236.302 605.209 236.237C605.343 236.172 605.492 236.14 605.657 236.14H606.892L604.117 239.585Z" fill="#D3D3D3"/>
<path d="M593 199.5L593 83.5" stroke="#0EBDCA" stroke-width="8" stroke-linecap="round"/>
<path d="M578 199.5L578 175.5" stroke="#0EE788" stroke-width="8" stroke-linecap="round"/>
</svg>
