<svg width="180" height="180" viewBox="0 0 180 180" fill="none" xmlns="http://www.w3.org/2000/svg">
<path d="M44.1045 95.7981L50.053 78.8439L56.0126 95.7981H44.1045ZM84.0725 128H88.4534L86.8695 123.915L60.1133 54.9154L59.3705 53H57.3162H42.8035H40.7505L40.0071 54.9137L13.2036 123.914L11.6162 128H16H27.109C28.8595 128 30.5532 127.525 31.9681 126.386L31.996 126.364L32.0235 126.34C33.1098 125.422 33.9976 124.307 34.5295 122.97L34.5518 122.914L34.5718 122.857L38.4995 111.689H61.573L65.5006 122.857L65.5265 122.93L65.5563 123.003C66.123 124.381 66.9962 125.561 68.1636 126.491L68.2173 126.534L68.2728 126.574C69.6934 127.603 71.3646 128 73.058 128H84.0725ZM139.473 111.063H130.324V98.184H139.378C141.35 98.184 142.85 98.3761 143.947 98.6879L143.955 98.6902L143.963 98.6924C145.128 99.0166 145.895 99.4424 146.395 99.8757L146.417 99.8955L146.441 99.9148C146.953 100.341 147.305 100.841 147.531 101.454C147.798 102.177 147.96 103.069 147.96 104.172C147.96 105.159 147.826 106.112 147.56 107.041C147.355 107.73 146.994 108.357 146.432 108.942C145.922 109.473 145.149 109.999 143.99 110.448C142.992 110.816 141.525 111.063 139.473 111.063ZM145.457 79.2595L145.449 79.2753L145.442 79.2912C145.125 79.9862 144.681 80.5167 144.085 80.9344C143.438 81.388 142.538 81.7919 141.299 82.0748C140.002 82.3384 138.455 82.4831 136.636 82.4831H130.324V69.8422H137.487C139.309 69.8422 140.78 70.0034 141.938 70.2821L141.969 70.2894L141.999 70.296C143.118 70.5407 143.881 70.9093 144.401 71.3101C144.864 71.6674 145.234 72.153 145.496 72.867L145.508 72.8992L145.52 72.9312C145.819 73.694 146.022 74.7589 146.022 76.2102C146.022 77.5608 145.793 78.545 145.457 79.2595ZM158.772 88.8665C160.342 87.7318 161.687 86.4476 162.768 84.9994C163.935 83.4466 164.808 81.7651 165.358 79.9601C165.924 78.2017 166.204 76.3766 166.204 74.4983C166.204 71.3384 165.673 68.3887 164.557 65.6941C163.4 62.9006 161.552 60.5541 159.086 58.6699C156.638 56.7435 153.58 55.3614 150.033 54.4332C146.458 53.4577 142.258 53 137.487 53H113.142H110.142V56V125V128H113.142H139.709C144.017 128 147.934 127.463 151.415 126.331L151.424 126.328L151.432 126.326C154.89 125.178 157.897 123.561 160.383 121.428C162.851 119.31 164.748 116.782 166.037 113.86C167.354 110.947 168 107.816 168 104.504C168 99.92 166.7 95.9124 163.881 92.7573C162.488 91.1988 160.77 89.9124 158.772 88.8665Z" fill="#42A08E" stroke="white" stroke-width="6"/>
<path d="M98 50L98 131" stroke="#FFBB49" stroke-width="6"/>
</svg>
