<svg width="180" height="180" viewBox="0 0 180 180" fill="none" xmlns="http://www.w3.org/2000/svg">
<path fill-rule="evenodd" clip-rule="evenodd" d="M30.8889 90H79.1111C82.9 90 86 93.1 86 96.8889V145.111C86 148.9 82.9 152 79.1111 152H30.8889C27.1 152 24 148.9 24 145.111V96.8889C24 93.1 27.1 90 30.8889 90ZM61.8889 138.222H55V110.667H48.1111V103.778H61.8889V138.222Z" fill="#AA80FF"/>
<path fill-rule="evenodd" clip-rule="evenodd" d="M30.8889 23H79.1111C82.9 23 86 26.1 86 29.8889V78.1111C86 81.9 82.9 85 79.1111 85H30.8889C27.1 85 24 81.9 24 78.1111V29.8889C24 26.1 27.1 23 30.8889 23ZM30.8889 78.1116H79.1111V29.8894H30.8889V78.1116Z" fill="white"/>
<path fill-rule="evenodd" clip-rule="evenodd" d="M97.8889 23H146.111C149.9 23 153 26.1 153 29.8889V78.1111C153 81.9 149.9 85 146.111 85H97.8889C94.1 85 91 81.9 91 78.1111V29.8889C91 26.1 94.1 23 97.8889 23ZM118.556 57.4444V64.3333H132.333V71.2222H111.667V57.4444C111.667 53.6211 114.767 50.5556 118.556 50.5556H125.444V43.6667H111.667V36.7778H125.444C129.233 36.7778 132.333 39.8433 132.333 43.6667V50.5556C132.333 54.3789 129.233 57.4444 125.444 57.4444H118.556Z" fill="#F0A0FD"/>
<path fill-rule="evenodd" clip-rule="evenodd" d="M97.8889 90H146.111C149.9 90 153 93.1 153 96.8889V145.111C153 148.9 149.9 152 146.111 152H97.8889C94.1 152 91 148.9 91 145.111V96.8889C91 93.1 94.1 90 97.8889 90ZM97.8889 145.111H146.111V96.8889H97.8889V145.111Z" fill="white"/>
</svg>
