<svg width="180" height="180" viewBox="0 0 180 180" fill="none" xmlns="http://www.w3.org/2000/svg">
<mask id="path-1-outside-1" maskUnits="userSpaceOnUse" x="11" y="11" width="158" height="158" fill="black">
<rect fill="white" x="11" y="11" width="158" height="158"/>
<path fill-rule="evenodd" clip-rule="evenodd" d="M33.2222 17H146.778C155.7 17 163 24.3 163 33.2222V146.778C163 155.7 155.7 163 146.778 163H33.2222C24.3 163 17 155.7 17 146.778V33.2222C17 24.3 24.3 17 33.2222 17ZM77.2345 34.2056C77.722 31.4876 75.9139 28.889 73.1958 28.4014C70.4778 27.9139 67.8791 29.7221 67.3916 32.4401L62.9925 56.9652L58.3251 82.9858L53.7919 108.259L49.2587 133.532C48.7712 136.25 50.5793 138.848 53.2974 139.336C56.0154 139.823 58.6141 138.015 59.1016 135.297L62.7686 114.853L106.198 121.798L101.874 145.79C101.385 148.508 103.191 151.108 105.909 151.598C108.626 152.087 111.226 150.281 111.716 147.564L116.944 118.552L121.363 94.027L126.106 67.7073L130.741 41.9858C131.23 39.2682 129.424 36.6681 126.707 36.1784C123.989 35.6887 121.389 37.4948 120.899 40.2124L117.141 61.069L73.7276 53.7568L77.2345 34.2056ZM107.972 111.954L64.5345 105.009L67.2896 89.6487L110.63 97.2026L107.972 111.954ZM112.403 87.3609L69.0552 79.8056L71.962 63.6003L115.367 70.9112L112.403 87.3609Z"/>
</mask>
<path fill-rule="evenodd" clip-rule="evenodd" d="M33.2222 17H146.778C155.7 17 163 24.3 163 33.2222V146.778C163 155.7 155.7 163 146.778 163H33.2222C24.3 163 17 155.7 17 146.778V33.2222C17 24.3 24.3 17 33.2222 17ZM77.2345 34.2056C77.722 31.4876 75.9139 28.889 73.1958 28.4014C70.4778 27.9139 67.8791 29.7221 67.3916 32.4401L62.9925 56.9652L58.3251 82.9858L53.7919 108.259L49.2587 133.532C48.7712 136.25 50.5793 138.848 53.2974 139.336C56.0154 139.823 58.6141 138.015 59.1016 135.297L62.7686 114.853L106.198 121.798L101.874 145.79C101.385 148.508 103.191 151.108 105.909 151.598C108.626 152.087 111.226 150.281 111.716 147.564L116.944 118.552L121.363 94.027L126.106 67.7073L130.741 41.9858C131.23 39.2682 129.424 36.6681 126.707 36.1784C123.989 35.6887 121.389 37.4948 120.899 40.2124L117.141 61.069L73.7276 53.7568L77.2345 34.2056ZM107.972 111.954L64.5345 105.009L67.2896 89.6487L110.63 97.2026L107.972 111.954ZM112.403 87.3609L69.0552 79.8056L71.962 63.6003L115.367 70.9112L112.403 87.3609Z" fill="#F0A0FD"/>
<path d="M73.1958 28.4014L74.2551 22.4957L74.2551 22.4957L73.1958 28.4014ZM77.2345 34.2056L83.1402 35.265L83.1402 35.265L77.2345 34.2056ZM67.3916 32.4401L73.2973 33.4994L73.2973 33.4994L67.3916 32.4401ZM62.9925 56.9652L57.0867 55.9059L57.0867 55.9059L62.9925 56.9652ZM58.3251 82.9858L52.4194 81.9265L52.4194 81.9265L58.3251 82.9858ZM53.7919 108.259L59.6977 109.318L59.6977 109.318L53.7919 108.259ZM49.2587 133.532L43.353 132.472L43.353 132.472L49.2587 133.532ZM53.2974 139.336L54.3567 133.43L54.3567 133.43L53.2974 139.336ZM59.1016 135.297L53.1959 134.238L53.1959 134.238L59.1016 135.297ZM62.7686 114.853L63.716 108.929L57.9023 107.999L56.8629 113.794L62.7686 114.853ZM106.198 121.798L112.103 122.862L113.188 116.839L107.145 115.873L106.198 121.798ZM101.874 145.79L107.779 146.854L107.779 146.854L101.874 145.79ZM105.909 151.598L106.973 145.693L106.973 145.693L105.909 151.598ZM111.716 147.564L105.811 146.5L105.811 146.5L111.716 147.564ZM116.944 118.552L122.849 119.616L122.849 119.616L116.944 118.552ZM121.363 94.027L115.458 92.963L115.458 92.963L121.363 94.027ZM126.106 67.7073L132.011 68.7714L132.011 68.7714L126.106 67.7073ZM130.741 41.9858L136.646 43.0499L136.646 43.0498L130.741 41.9858ZM126.707 36.1784L127.771 30.2735L127.771 30.2735L126.707 36.1784ZM120.899 40.2124L114.994 39.1484L114.994 39.1484L120.899 40.2124ZM117.141 61.069L116.144 66.9857L121.994 67.9709L123.046 62.1331L117.141 61.069ZM73.7276 53.7568L67.8218 52.6975L66.7512 58.6663L72.731 59.6735L73.7276 53.7568ZM64.5345 105.009L58.6287 103.949L57.5492 109.968L63.5871 110.933L64.5345 105.009ZM107.972 111.954L107.024 117.879L112.833 118.808L113.877 113.018L107.972 111.954ZM67.2896 89.6487L68.3199 83.7378L62.438 82.7126L61.3839 88.5893L67.2896 89.6487ZM110.63 97.2026L116.535 98.2666L117.605 92.3278L111.66 91.2917L110.63 97.2026ZM69.0552 79.8056L63.1494 78.7463L62.0849 84.6812L68.0249 85.7165L69.0552 79.8056ZM112.403 87.3609L111.373 93.2718L117.25 94.2962L118.308 88.425L112.403 87.3609ZM71.962 63.6003L72.9585 57.6836L67.1043 56.6976L66.0562 62.5409L71.962 63.6003ZM115.367 70.9112L121.272 71.9752L122.349 66.0025L116.364 64.9945L115.367 70.9112ZM146.778 11H33.2222V23H146.778V11ZM169 33.2222C169 20.9863 159.014 11 146.778 11V23C152.386 23 157 27.6137 157 33.2222H169ZM169 146.778V33.2222H157V146.778H169ZM146.778 169C159.014 169 169 159.014 169 146.778H157C157 152.386 152.386 157 146.778 157V169ZM33.2222 169H146.778V157H33.2222V169ZM11 146.778C11 159.014 20.9863 169 33.2222 169V157C27.6137 157 23 152.386 23 146.778H11ZM11 33.2222V146.778H23V33.2222H11ZM33.2222 11C20.9863 11 11 20.9863 11 33.2222H23C23 27.6137 27.6137 23 33.2222 23V11ZM72.1365 34.3072C71.5929 34.2096 71.2312 33.6899 71.3288 33.1463L83.1402 35.265C84.2128 29.2853 80.2348 23.5683 74.2551 22.4957L72.1365 34.3072ZM73.2973 33.4994C73.1998 34.043 72.6801 34.4047 72.1365 34.3072L74.2551 22.4957C68.2754 21.4231 62.5584 25.4011 61.4858 31.3808L73.2973 33.4994ZM68.8982 58.0246L73.2973 33.4994L61.4858 31.3808L57.0867 55.9059L68.8982 58.0246ZM64.2309 84.0451L68.8982 58.0246L57.0867 55.9059L52.4194 81.9265L64.2309 84.0451ZM59.6977 109.318L64.2309 84.0451L52.4194 81.9265L47.8862 107.199L59.6977 109.318ZM55.1644 134.591L59.6977 109.318L47.8862 107.199L43.353 132.472L55.1644 134.591ZM54.3567 133.43C54.9003 133.528 55.262 134.047 55.1644 134.591L43.353 132.472C42.2804 138.452 46.2584 144.169 52.2381 145.242L54.3567 133.43ZM53.1959 134.238C53.2934 133.694 53.8131 133.333 54.3567 133.43L52.2381 145.242C58.2178 146.314 63.9348 142.336 65.0074 136.356L53.1959 134.238ZM56.8629 113.794L53.1959 134.238L65.0074 136.356L68.6744 115.913L56.8629 113.794ZM107.145 115.873L63.716 108.929L61.8213 120.778L105.251 127.722L107.145 115.873ZM107.779 146.854L112.103 122.862L100.293 120.734L95.9696 144.726L107.779 146.854ZM106.973 145.693C107.516 145.791 107.877 146.311 107.779 146.854L95.9696 144.726C94.8922 150.705 98.8656 156.425 104.845 157.503L106.973 145.693ZM105.811 146.5C105.909 145.956 106.429 145.595 106.973 145.693L104.844 157.503C110.823 158.58 116.544 154.606 117.621 148.628L105.811 146.5ZM111.039 117.488L105.811 146.5L117.621 148.628L122.849 119.616L111.039 117.488ZM115.458 92.963L111.039 117.488L122.849 119.616L127.268 95.091L115.458 92.963ZM120.201 66.6433L115.458 92.963L127.268 95.091L132.011 68.7714L120.201 66.6433ZM124.836 40.9218L120.201 66.6433L132.011 68.7714L136.646 43.0499L124.836 40.9218ZM125.643 42.0833C125.099 41.9853 124.738 41.4653 124.836 40.9218L136.646 43.0498C137.723 37.071 133.749 31.3508 127.771 30.2735L125.643 42.0833ZM126.804 41.2765C126.706 41.82 126.186 42.1812 125.643 42.0833L127.771 30.2735C121.792 29.1961 116.072 33.1696 114.994 39.1484L126.804 41.2765ZM123.046 62.1331L126.804 41.2765L114.994 39.1484L111.236 60.005L123.046 62.1331ZM72.731 59.6735L116.144 66.9857L118.137 55.1524L74.7241 47.8401L72.731 59.6735ZM71.3288 33.1463L67.8218 52.6975L79.6333 54.8161L83.1402 35.265L71.3288 33.1463ZM63.5871 110.933L107.024 117.879L108.919 106.029L65.4818 99.084L63.5871 110.933ZM61.3839 88.5893L58.6287 103.949L70.4402 106.068L73.1954 90.708L61.3839 88.5893ZM111.66 91.2917L68.3199 83.7378L66.2594 95.5595L109.6 103.113L111.66 91.2917ZM113.877 113.018L116.535 98.2666L104.725 96.1386L102.067 110.89L113.877 113.018ZM68.0249 85.7165L111.373 93.2718L113.433 81.45L70.0854 73.8947L68.0249 85.7165ZM66.0562 62.5409L63.1494 78.7463L74.9609 80.8649L77.8677 64.6596L66.0562 62.5409ZM116.364 64.9945L72.9585 57.6836L70.9654 69.5169L114.371 76.8278L116.364 64.9945ZM118.308 88.425L121.272 71.9752L109.462 69.8471L106.498 86.2969L118.308 88.425Z" fill="white" mask="url(#path-1-outside-1)"/>
</svg>
