<svg width="180" height="180" viewBox="0 0 180 180" fill="none" xmlns="http://www.w3.org/2000/svg">
<path d="M64.1538 42.5641H67.1538V39.5641C67.1538 31.5256 73.6794 25 81.7179 25C89.7565 25 96.2821 31.5256 96.2821 39.5641V42.5641H99.2821H127.385C133.456 42.5641 138.436 47.544 138.436 53.6154V81.7179V84.7179H141.436C149.474 84.7179 156 91.2435 156 99.2821C156 107.321 149.474 113.846 141.436 113.846H138.436V116.846V144.949C138.436 151.02 133.456 156 127.385 156H103.669C103.201 144.288 93.5441 134.923 81.7179 134.923C69.8918 134.923 60.2354 144.288 59.7665 156H36.0513C29.9799 156 25 151.02 25 144.949V121.233C36.7121 120.765 46.0769 111.108 46.0769 99.2821C46.0769 87.4795 36.7495 77.8381 25.0703 77.3336V53.6154C25.0703 47.5244 29.9995 42.5641 36.0513 42.5641H64.1538Z" fill="#B1DDFE" stroke="white" stroke-width="6"/>
</svg>
