<svg width="180" height="180" viewBox="0 0 180 180" fill="none" xmlns="http://www.w3.org/2000/svg">
<mask id="path-1-outside-1" maskUnits="userSpaceOnUse" x="13" y="87.2712" width="81" height="81" fill="black">
<rect fill="white" x="13" y="87.2712" width="81" height="81"/>
<path fill-rule="evenodd" clip-rule="evenodd" d="M26.6365 93.2712H80.0922C84.2923 93.2712 87.7287 96.7077 87.7287 100.908V154.363C87.7287 158.563 84.2923 162 80.0922 162H26.6365C22.4364 162 19 158.563 19 154.363V100.908C19 96.7077 22.4364 93.2712 26.6365 93.2712ZM66.8871 137.458C66.5914 137.153 66.2261 137.001 65.7912 137.001C65.5476 137.001 65.3215 137.052 65.1127 137.153C64.904 137.255 64.7039 137.382 64.5126 137.535C63.9559 138.026 63.3993 138.433 62.8426 138.755C62.3033 139.076 61.7206 139.339 61.0943 139.542C60.4855 139.746 59.8158 139.89 59.0851 139.974C58.3719 140.059 57.5717 140.102 56.6845 140.102C55.1885 140.102 53.7794 139.83 52.4574 139.288C51.1527 138.729 50.0046 137.916 49.013 136.848C48.0389 135.781 47.2647 134.476 46.6907 132.935C46.134 131.376 45.8557 129.605 45.8557 127.623C45.8557 125.658 46.1166 123.904 46.6385 122.362C47.1604 120.82 47.891 119.524 48.8304 118.474C49.7871 117.406 50.9265 116.593 52.2486 116.034C53.5707 115.475 55.0232 115.195 56.6062 115.195C58.0327 115.195 59.2069 115.339 60.1289 115.627C61.0682 115.915 61.8424 116.237 62.4512 116.593C63.0774 116.949 63.5993 117.271 64.0168 117.559C64.4517 117.847 64.8779 117.991 65.2954 117.991C65.7129 117.991 66.0434 117.906 66.287 117.737C66.5305 117.567 66.7305 117.372 66.8871 117.152L69.5226 113.645C68.7919 112.933 67.9656 112.281 67.0437 111.688C66.1391 111.078 65.1475 110.561 64.069 110.138C62.9905 109.714 61.825 109.384 60.5725 109.147C59.3374 108.909 58.024 108.791 56.6323 108.791C54.771 108.791 53.014 109.002 51.3614 109.426C49.7262 109.833 48.2128 110.434 46.8212 111.231C45.4295 112.01 44.177 112.959 43.0637 114.077C41.9677 115.195 41.0284 116.449 40.2456 117.838C39.4628 119.228 38.8626 120.753 38.4451 122.413C38.045 124.056 37.845 125.793 37.845 127.623C37.845 130.351 38.2712 132.867 39.1235 135.171C39.9759 137.475 41.1936 139.466 42.7766 141.144C44.3597 142.821 46.2819 144.134 48.5433 145.083C50.8048 146.015 53.3532 146.481 56.1887 146.481C59.32 146.481 62.0163 145.989 64.2778 145.007C66.5566 144.024 68.4614 142.584 69.9922 140.686L66.8871 137.458Z"/>
</mask>
<path fill-rule="evenodd" clip-rule="evenodd" d="M26.6365 93.2712H80.0922C84.2923 93.2712 87.7287 96.7077 87.7287 100.908V154.363C87.7287 158.563 84.2923 162 80.0922 162H26.6365C22.4364 162 19 158.563 19 154.363V100.908C19 96.7077 22.4364 93.2712 26.6365 93.2712ZM66.8871 137.458C66.5914 137.153 66.2261 137.001 65.7912 137.001C65.5476 137.001 65.3215 137.052 65.1127 137.153C64.904 137.255 64.7039 137.382 64.5126 137.535C63.9559 138.026 63.3993 138.433 62.8426 138.755C62.3033 139.076 61.7206 139.339 61.0943 139.542C60.4855 139.746 59.8158 139.89 59.0851 139.974C58.3719 140.059 57.5717 140.102 56.6845 140.102C55.1885 140.102 53.7794 139.83 52.4574 139.288C51.1527 138.729 50.0046 137.916 49.013 136.848C48.0389 135.781 47.2647 134.476 46.6907 132.935C46.134 131.376 45.8557 129.605 45.8557 127.623C45.8557 125.658 46.1166 123.904 46.6385 122.362C47.1604 120.82 47.891 119.524 48.8304 118.474C49.7871 117.406 50.9265 116.593 52.2486 116.034C53.5707 115.475 55.0232 115.195 56.6062 115.195C58.0327 115.195 59.2069 115.339 60.1289 115.627C61.0682 115.915 61.8424 116.237 62.4512 116.593C63.0774 116.949 63.5993 117.271 64.0168 117.559C64.4517 117.847 64.8779 117.991 65.2954 117.991C65.7129 117.991 66.0434 117.906 66.287 117.737C66.5305 117.567 66.7305 117.372 66.8871 117.152L69.5226 113.645C68.7919 112.933 67.9656 112.281 67.0437 111.688C66.1391 111.078 65.1475 110.561 64.069 110.138C62.9905 109.714 61.825 109.384 60.5725 109.147C59.3374 108.909 58.024 108.791 56.6323 108.791C54.771 108.791 53.014 109.002 51.3614 109.426C49.7262 109.833 48.2128 110.434 46.8212 111.231C45.4295 112.01 44.177 112.959 43.0637 114.077C41.9677 115.195 41.0284 116.449 40.2456 117.838C39.4628 119.228 38.8626 120.753 38.4451 122.413C38.045 124.056 37.845 125.793 37.845 127.623C37.845 130.351 38.2712 132.867 39.1235 135.171C39.9759 137.475 41.1936 139.466 42.7766 141.144C44.3597 142.821 46.2819 144.134 48.5433 145.083C50.8048 146.015 53.3532 146.481 56.1887 146.481C59.32 146.481 62.0163 145.989 64.2778 145.007C66.5566 144.024 68.4614 142.584 69.9922 140.686L66.8871 137.458Z" fill="#B1DDFE"/>
<path d="M66.8871 137.458L71.211 133.299L71.2028 133.29L71.1946 133.282L66.8871 137.458ZM64.5126 137.535L60.7733 132.842L60.6552 132.936L60.5421 133.036L64.5126 137.535ZM62.8426 138.755L59.8389 133.561L59.8029 133.581L59.7672 133.603L62.8426 138.755ZM61.0943 139.542L59.2415 133.836L59.2177 133.843L59.1939 133.851L61.0943 139.542ZM59.0851 139.974L58.3941 134.014L58.3857 134.015L58.3774 134.016L59.0851 139.974ZM52.4574 139.288L50.0939 144.803L50.1372 144.822L50.1808 144.84L52.4574 139.288ZM49.013 136.848L44.5812 140.893L44.599 140.913L44.617 140.932L49.013 136.848ZM46.6907 132.935L41.0402 134.953L41.0537 134.99L41.0678 135.028L46.6907 132.935ZM46.6385 122.362L52.3218 124.286L52.3218 124.286L46.6385 122.362ZM48.8304 118.474L44.3625 114.469L44.3578 114.474L48.8304 118.474ZM60.1289 115.627L58.3397 121.354L58.3548 121.359L58.37 121.364L60.1289 115.627ZM62.4512 116.593L59.4239 121.773L59.4555 121.792L59.4872 121.81L62.4512 116.593ZM64.0168 117.559L60.6096 122.497L60.6563 122.53L60.7037 122.561L64.0168 117.559ZM66.287 117.737L62.8604 112.811L62.8604 112.811L66.287 117.737ZM66.8871 117.152L62.0904 113.548L62.0427 113.611L61.9966 113.676L66.8871 117.152ZM69.5226 113.645L74.3193 117.249L77.4901 113.03L73.7089 109.347L69.5226 113.645ZM67.0437 111.688L63.6893 116.663L63.7432 116.699L63.7979 116.734L67.0437 111.688ZM60.5725 109.147L59.4408 115.039L59.4484 115.04L59.456 115.042L60.5725 109.147ZM51.3614 109.426L52.8094 115.249L52.8303 115.244L52.8511 115.238L51.3614 109.426ZM46.8212 111.231L49.7529 116.465L49.7771 116.452L49.8011 116.438L46.8212 111.231ZM43.0637 114.077L38.8117 109.844L38.795 109.86L38.7785 109.877L43.0637 114.077ZM40.2456 117.838L35.0182 114.893L35.0182 114.893L40.2456 117.838ZM38.4451 122.413L32.6262 120.95L32.6207 120.972L32.6154 120.994L38.4451 122.413ZM42.7766 141.144L38.4131 145.262L38.4131 145.262L42.7766 141.144ZM48.5433 145.083L46.222 150.616L46.2397 150.623L46.2574 150.63L48.5433 145.083ZM64.2778 145.007L61.9019 139.497L61.8942 139.5L61.8865 139.504L64.2778 145.007ZM69.9922 140.686L74.6621 144.453L77.9825 140.337L74.3162 136.526L69.9922 140.686ZM80.0922 87.2712H26.6365V99.2712H80.0922V87.2712ZM93.7287 100.908C93.7287 93.394 87.606 87.2712 80.0922 87.2712V99.2712C80.9785 99.2712 81.7287 100.021 81.7287 100.908H93.7287ZM93.7287 154.363V100.908H81.7287V154.363H93.7287ZM80.0922 168C87.606 168 93.7287 161.877 93.7287 154.363H81.7287C81.7287 155.25 80.9785 156 80.0922 156V168ZM26.6365 168H80.0922V156H26.6365V168ZM13 154.363C13 161.877 19.1227 168 26.6365 168V156C25.7501 156 25 155.25 25 154.363H13ZM13 100.908V154.363H25V100.908H13ZM26.6365 87.2712C19.1227 87.2712 13 93.394 13 100.908H25C25 100.021 25.7501 99.2712 26.6365 99.2712V87.2712ZM65.7912 143.001C65.2938 143.001 64.6989 142.911 64.0801 142.652C63.4583 142.393 62.9561 142.024 62.5796 141.635L71.1946 133.282C69.7389 131.78 67.806 131.001 65.7912 131.001V143.001ZM67.7397 142.548C67.09 142.864 66.4122 143.001 65.7912 143.001V131.001C64.6831 131.001 63.553 131.239 62.4858 131.759L67.7397 142.548ZM68.2519 142.227C68.1177 142.334 67.947 142.447 67.7397 142.548L62.4858 131.759C61.861 132.063 61.2902 132.43 60.7733 132.842L68.2519 142.227ZM65.8463 143.949C66.7956 143.4 67.6728 142.748 68.4831 142.033L60.5421 133.036C60.2391 133.304 60.003 133.466 59.8389 133.561L65.8463 143.949ZM62.9471 145.249C63.9798 144.914 64.9751 144.469 65.918 143.906L59.7672 133.603C59.6316 133.684 59.4614 133.764 59.2415 133.836L62.9471 145.249ZM59.7762 145.935C60.8599 145.809 61.9412 145.585 62.9948 145.233L59.1939 133.851C59.0298 133.906 58.7716 133.971 58.3941 134.014L59.7762 145.935ZM56.6845 146.102C57.7557 146.102 58.7978 146.051 59.7928 145.933L58.3774 134.016C57.946 134.068 57.3877 134.102 56.6845 134.102V146.102ZM50.1808 144.84C52.259 145.692 54.4449 146.102 56.6845 146.102V134.102C55.932 134.102 55.2999 133.969 54.7339 133.737L50.1808 144.84ZM44.617 140.932C46.1633 142.597 47.9987 143.905 50.0939 144.803L54.8208 133.773C54.3067 133.553 53.8458 133.235 53.409 132.765L44.617 140.932ZM41.0678 135.028C41.8733 137.192 43.0219 139.184 44.5812 140.893L53.4448 132.804C53.0558 132.378 52.6562 131.761 52.3136 130.841L41.0678 135.028ZM39.8557 127.623C39.8557 130.161 40.2116 132.632 41.0402 134.953L52.3412 130.917C52.0564 130.119 51.8557 129.05 51.8557 127.623H39.8557ZM40.9552 120.438C40.1853 122.713 39.8557 125.135 39.8557 127.623H51.8557C51.8557 126.18 52.048 125.095 52.3218 124.286L40.9552 120.438ZM44.3578 114.474C42.8018 116.214 41.6967 118.248 40.9552 120.438L52.3218 124.286C52.6241 123.393 52.9801 122.834 53.3029 122.473L44.3578 114.474ZM49.9115 110.508C47.777 111.41 45.9097 112.743 44.3625 114.469L53.2982 122.478C53.6645 122.07 54.076 121.776 54.5857 121.56L49.9115 110.508ZM56.6062 109.195C54.3032 109.195 52.0458 109.605 49.9115 110.508L54.5857 121.56C55.0956 121.344 55.7432 121.195 56.6062 121.195V109.195ZM61.918 109.9C60.212 109.367 58.379 109.195 56.6062 109.195V121.195C57.6864 121.195 58.2018 121.311 58.3397 121.354L61.918 109.9ZM65.4785 111.413C64.3479 110.752 63.1109 110.266 61.8878 109.891L58.37 121.364C59.0255 121.565 59.3368 121.722 59.4239 121.773L65.4785 111.413ZM67.4241 112.62C66.8173 112.201 66.1358 111.786 65.4152 111.376L59.4872 121.81C60.0191 122.112 60.3813 122.34 60.6096 122.497L67.4241 112.62ZM65.2954 111.991C66.3196 111.991 67.0277 112.356 67.3299 112.556L60.7037 122.561C61.8757 123.337 63.4362 123.991 65.2954 123.991V111.991ZM62.8604 112.811C63.9564 112.049 64.9695 111.991 65.2954 111.991V123.991C66.4562 123.991 68.1305 123.763 69.7135 122.662L62.8604 112.811ZM61.9966 113.676C62.2782 113.28 62.5915 112.998 62.8604 112.811L69.7135 122.662C70.4695 122.136 71.1829 121.465 71.7776 120.628L61.9966 113.676ZM64.7259 110.04L62.0904 113.548L71.6838 120.757L74.3193 117.249L64.7259 110.04ZM63.7979 116.734C64.4071 117.126 64.9138 117.532 65.3362 117.943L73.7089 109.347C72.6701 108.335 71.5242 107.436 70.2894 106.642L63.7979 116.734ZM61.8757 115.722C62.5712 115.996 63.17 116.313 63.6893 116.663L70.3981 106.713C69.1082 105.843 67.7239 105.127 66.2623 104.553L61.8757 115.722ZM59.456 115.042C60.3768 115.216 61.1783 115.449 61.8757 115.722L66.2623 104.553C64.8027 103.98 63.2731 103.551 61.6889 103.251L59.456 115.042ZM56.6323 114.791C57.6839 114.791 58.6157 114.88 59.4408 115.039L61.7041 103.254C60.059 102.938 58.3641 102.791 56.6323 102.791V114.791ZM52.8511 115.238C53.975 114.95 55.2282 114.791 56.6323 114.791V102.791C54.3138 102.791 52.053 103.055 49.8717 103.614L52.8511 115.238ZM49.8011 116.438C50.689 115.93 51.6834 115.529 52.8094 115.249L49.9135 103.603C47.7691 104.137 45.7366 104.938 43.8412 106.023L49.8011 116.438ZM47.3157 118.31C48.0331 117.59 48.8403 116.977 49.7529 116.465L43.8894 105.996C42.0187 107.043 40.3209 108.328 38.8117 109.844L47.3157 118.31ZM45.4729 120.784C46.0027 119.843 46.6273 119.013 47.3489 118.277L38.7785 109.877C37.3082 111.378 36.054 113.055 35.0182 114.893L45.4729 120.784ZM44.264 123.876C44.5607 122.696 44.971 121.675 45.4729 120.784L35.0182 114.893C33.9546 116.781 33.1645 118.809 32.6262 120.95L44.264 123.876ZM43.845 127.623C43.845 126.233 43.9967 124.975 44.2748 123.832L32.6154 120.994C32.0934 123.138 31.845 125.354 31.845 127.623H43.845ZM44.7509 133.089C44.1707 131.521 43.845 129.718 43.845 127.623H31.845C31.845 130.983 32.3717 134.213 33.4962 137.253L44.7509 133.089ZM47.1402 137.025C46.1467 135.973 45.3418 134.687 44.7509 133.089L33.4962 137.253C34.6101 140.264 36.2406 142.96 38.4131 145.262L47.1402 137.025ZM50.8647 139.55C49.3255 138.904 48.1128 138.056 47.1402 137.025L38.4131 145.262C40.6066 147.586 43.2383 149.364 46.222 150.616L50.8647 139.55ZM56.1887 140.481C54.014 140.481 52.2596 140.125 50.8293 139.535L46.2574 150.63C49.3499 151.905 52.6925 152.481 56.1887 152.481V140.481ZM61.8865 139.504C60.5538 140.083 58.7111 140.481 56.1887 140.481V152.481C59.9288 152.481 63.4788 151.896 66.669 150.509L61.8865 139.504ZM65.3224 136.919C64.4146 138.044 63.3025 138.893 61.9019 139.497L66.6536 150.516C69.8106 149.155 72.5082 147.123 74.6621 144.453L65.3224 136.919ZM62.5632 141.618L65.6683 144.846L74.3162 136.526L71.211 133.299L62.5632 141.618Z" fill="white" mask="url(#path-1-outside-1)"/>
<mask id="path-3-outside-2" maskUnits="userSpaceOnUse" x="87.2714" y="87.2712" width="81" height="81" fill="black">
<rect fill="white" x="87.2714" y="87.2712" width="81" height="81"/>
<path fill-rule="evenodd" clip-rule="evenodd" d="M100.908 93.2712H154.364C158.564 93.2712 162 96.7077 162 100.908V154.363C162 158.563 158.564 162 154.364 162H100.908C96.7078 162 93.2714 158.563 93.2714 154.363V100.908C93.2714 96.7077 96.7078 93.2712 100.908 93.2712ZM142.929 135.233C143.819 132.913 144.264 130.376 144.264 127.623C144.264 124.887 143.819 122.367 142.929 120.064C142.056 117.761 140.812 115.778 139.198 114.116C137.6 112.436 135.673 111.128 133.416 110.193C131.159 109.258 128.655 108.791 125.904 108.791H112.116V146.481H125.904C128.655 146.481 131.159 146.013 133.416 145.078C135.673 144.143 137.6 142.844 139.198 141.182C140.812 139.519 142.056 137.537 142.929 135.233ZM135.912 122.298C136.406 123.874 136.653 125.649 136.653 127.623C136.653 129.614 136.406 131.398 135.912 132.974C135.418 134.549 134.709 135.891 133.787 137C132.864 138.091 131.736 138.931 130.401 139.519C129.084 140.091 127.585 140.376 125.904 140.376H119.579V114.895H125.904C127.585 114.895 129.084 115.189 130.401 115.778C131.736 116.367 132.864 117.207 133.787 118.298C134.709 119.389 135.418 120.722 135.912 122.298Z"/>
</mask>
<path fill-rule="evenodd" clip-rule="evenodd" d="M100.908 93.2712H154.364C158.564 93.2712 162 96.7077 162 100.908V154.363C162 158.563 158.564 162 154.364 162H100.908C96.7078 162 93.2714 158.563 93.2714 154.363V100.908C93.2714 96.7077 96.7078 93.2712 100.908 93.2712ZM142.929 135.233C143.819 132.913 144.264 130.376 144.264 127.623C144.264 124.887 143.819 122.367 142.929 120.064C142.056 117.761 140.812 115.778 139.198 114.116C137.6 112.436 135.673 111.128 133.416 110.193C131.159 109.258 128.655 108.791 125.904 108.791H112.116V146.481H125.904C128.655 146.481 131.159 146.013 133.416 145.078C135.673 144.143 137.6 142.844 139.198 141.182C140.812 139.519 142.056 137.537 142.929 135.233ZM135.912 122.298C136.406 123.874 136.653 125.649 136.653 127.623C136.653 129.614 136.406 131.398 135.912 132.974C135.418 134.549 134.709 135.891 133.787 137C132.864 138.091 131.736 138.931 130.401 139.519C129.084 140.091 127.585 140.376 125.904 140.376H119.579V114.895H125.904C127.585 114.895 129.084 115.189 130.401 115.778C131.736 116.367 132.864 117.207 133.787 118.298C134.709 119.389 135.418 120.722 135.912 122.298Z" fill="#91AEFD"/>
<path d="M142.929 135.233L137.327 133.086L137.323 133.096L137.319 133.107L142.929 135.233ZM142.929 120.064L137.319 122.191L137.325 122.208L137.332 122.226L142.929 120.064ZM139.198 114.116L134.851 118.251L134.872 118.273L134.894 118.296L139.198 114.116ZM133.416 110.193L135.713 104.65L135.713 104.65L133.416 110.193ZM112.116 108.791V102.791H106.116V108.791H112.116ZM112.116 146.481H106.116V152.481H112.116V146.481ZM133.416 145.078L131.119 139.535L131.119 139.535L133.416 145.078ZM139.198 141.182L134.894 137.002L134.883 137.013L134.872 137.024L139.198 141.182ZM135.912 122.298L130.187 124.093L130.187 124.093L135.912 122.298ZM135.912 132.974L130.187 131.178L130.187 131.178L135.912 132.974ZM133.787 137L138.368 140.874L138.383 140.856L138.398 140.838L133.787 137ZM130.401 139.519L132.788 145.024L132.806 145.016L132.824 145.009L130.401 139.519ZM119.579 140.376H113.579V146.376H119.579V140.376ZM119.579 114.895V108.895H113.579V114.895H119.579ZM130.401 115.778L127.954 121.256L127.967 121.262L127.979 121.267L130.401 115.778ZM133.787 118.298L129.205 122.172L129.205 122.172L133.787 118.298ZM154.364 87.2712H100.908V99.2712H154.364V87.2712ZM168 100.908C168 93.394 161.877 87.2712 154.364 87.2712V99.2712C155.25 99.2712 156 100.021 156 100.908H168ZM168 154.363V100.908H156V154.363H168ZM154.364 168C161.877 168 168 161.877 168 154.363H156C156 155.25 155.25 156 154.364 156V168ZM100.908 168H154.364V156H100.908V168ZM87.2714 154.363C87.2714 161.877 93.3941 168 100.908 168V156C100.022 156 99.2714 155.25 99.2714 154.363H87.2714ZM87.2714 100.908V154.363H99.2714V100.908H87.2714ZM100.908 87.2712C93.3941 87.2712 87.2714 93.394 87.2714 100.908H99.2714C99.2714 100.021 100.022 99.2712 100.908 99.2712V87.2712ZM138.264 127.623C138.264 129.721 137.927 131.521 137.327 133.086L148.532 137.381C149.711 134.305 150.264 131.031 150.264 127.623H138.264ZM137.332 122.226C137.928 123.768 138.264 125.546 138.264 127.623H150.264C150.264 124.227 149.709 120.966 148.526 117.902L137.332 122.226ZM134.894 118.296C135.902 119.334 136.718 120.605 137.319 122.191L148.54 117.937C147.395 114.917 145.723 112.222 143.502 109.936L134.894 118.296ZM131.119 115.736C132.644 116.368 133.861 117.211 134.851 118.251L143.545 109.98C141.339 107.661 138.701 105.889 135.713 104.65L131.119 115.736ZM125.904 114.791C127.966 114.791 129.677 115.139 131.119 115.736L135.713 104.65C132.641 103.378 129.344 102.791 125.904 102.791V114.791ZM112.116 114.791H125.904V102.791H112.116V114.791ZM118.116 146.481V108.791H106.116V146.481H118.116ZM125.904 140.481H112.116V152.481H125.904V140.481ZM131.119 139.535C129.677 140.133 127.966 140.481 125.904 140.481V152.481C129.344 152.481 132.641 151.894 135.713 150.621L131.119 139.535ZM134.872 137.024C133.882 138.054 132.658 138.898 131.119 139.535L135.713 150.621C138.688 149.388 141.319 147.634 143.524 145.34L134.872 137.024ZM137.319 133.107C136.718 134.692 135.902 135.964 134.894 137.002L143.502 145.362C145.723 143.075 147.395 140.381 148.54 137.36L137.319 133.107ZM142.653 127.623C142.653 125.155 142.345 122.76 141.637 120.502L130.187 124.093C130.467 124.987 130.653 126.142 130.653 127.623H142.653ZM141.637 134.769C142.346 132.507 142.653 130.102 142.653 127.623H130.653C130.653 129.126 130.466 130.289 130.187 131.178L141.637 134.769ZM138.398 140.838C139.889 139.047 140.942 136.984 141.637 134.769L130.187 131.178C129.893 132.114 129.529 132.736 129.175 133.161L138.398 140.838ZM132.824 145.009C134.973 144.06 136.845 142.675 138.368 140.874L129.205 133.126C128.883 133.506 128.498 133.801 127.979 134.03L132.824 145.009ZM125.904 146.376C128.268 146.376 130.6 145.973 132.788 145.024L128.014 134.015C127.567 134.209 126.901 134.376 125.904 134.376V146.376ZM119.579 146.376H125.904V134.376H119.579V146.376ZM113.579 114.895V140.376H125.579V114.895H113.579ZM125.904 108.895H119.579V120.895H125.904V108.895ZM132.849 110.3C130.645 109.315 128.291 108.895 125.904 108.895V120.895C126.878 120.895 127.522 121.063 127.954 121.256L132.849 110.3ZM138.368 114.423C136.845 112.622 134.973 111.237 132.824 110.289L127.979 121.267C128.498 121.496 128.883 121.791 129.205 122.172L138.368 114.423ZM141.637 120.502C140.94 118.282 139.881 116.212 138.368 114.423L129.205 122.172C129.538 122.565 129.895 123.162 130.187 124.093L141.637 120.502Z" fill="white" mask="url(#path-3-outside-2)"/>
<mask id="path-5-outside-3" maskUnits="userSpaceOnUse" x="87.2714" y="13" width="81" height="81" fill="black">
<rect fill="white" x="87.2714" y="13" width="81" height="81"/>
<path fill-rule="evenodd" clip-rule="evenodd" d="M100.908 19H154.364C158.564 19 162 22.4364 162 26.6365V80.0922C162 84.2923 158.564 87.7287 154.364 87.7287H100.908C96.7078 87.7287 93.2714 84.2923 93.2714 80.0922V26.6365C93.2714 22.4364 96.7078 19 100.908 19ZM130.959 65.7934C130.154 66.0878 129.12 66.235 127.859 66.235H121.107V55.9229H127.806C128.997 55.9229 129.996 56.0354 130.802 56.2606C131.625 56.4857 132.29 56.8147 132.798 57.2476C133.306 57.6632 133.674 58.1741 133.902 58.7802C134.13 59.3862 134.243 60.0703 134.243 60.8322C134.243 61.5249 134.147 62.2002 133.954 62.8583C133.762 63.499 133.42 64.0704 132.93 64.5726C132.439 65.0748 131.782 65.4817 130.959 65.7934ZM121.107 50.624V40.4417H126.756C127.859 40.4417 128.814 40.537 129.619 40.7274C130.425 40.9006 131.091 41.1863 131.616 41.5846C132.142 41.9829 132.527 42.5111 132.772 43.1691C133.035 43.8271 133.166 44.6237 133.166 45.5588C133.166 46.4766 133.009 47.2645 132.693 47.9226C132.395 48.5633 131.958 49.0828 131.38 49.4811C130.802 49.8793 130.083 50.1737 129.225 50.3642C128.367 50.5374 127.386 50.624 126.283 50.624H121.107ZM133.298 35.2467C131.493 34.7618 129.313 34.5194 126.756 34.5194H113.225V72.2093H127.99C130.25 72.2093 132.247 71.9322 133.981 71.3781C135.732 70.8066 137.203 70.0187 138.395 69.0144C139.586 68.01 140.488 66.8238 141.101 65.4558C141.731 64.0877 142.047 62.6072 142.047 61.014C142.047 58.8321 141.425 57.0571 140.181 55.6891C138.938 54.3211 137.02 53.334 134.427 52.728C135.583 52.3297 136.582 51.8448 137.422 51.2733C138.263 50.7019 138.946 50.0698 139.472 49.3772C140.015 48.6672 140.409 47.9139 140.654 47.1173C140.917 46.3208 141.048 45.4895 141.048 44.6237C141.048 43.0825 140.785 41.6885 140.26 40.4417C139.734 39.1949 138.894 38.1386 137.738 37.2727C136.599 36.3896 135.119 35.7142 133.298 35.2467Z"/>
</mask>
<path fill-rule="evenodd" clip-rule="evenodd" d="M100.908 19H154.364C158.564 19 162 22.4364 162 26.6365V80.0922C162 84.2923 158.564 87.7287 154.364 87.7287H100.908C96.7078 87.7287 93.2714 84.2923 93.2714 80.0922V26.6365C93.2714 22.4364 96.7078 19 100.908 19ZM130.959 65.7934C130.154 66.0878 129.12 66.235 127.859 66.235H121.107V55.9229H127.806C128.997 55.9229 129.996 56.0354 130.802 56.2606C131.625 56.4857 132.29 56.8147 132.798 57.2476C133.306 57.6632 133.674 58.1741 133.902 58.7802C134.13 59.3862 134.243 60.0703 134.243 60.8322C134.243 61.5249 134.147 62.2002 133.954 62.8583C133.762 63.499 133.42 64.0704 132.93 64.5726C132.439 65.0748 131.782 65.4817 130.959 65.7934ZM121.107 50.624V40.4417H126.756C127.859 40.4417 128.814 40.537 129.619 40.7274C130.425 40.9006 131.091 41.1863 131.616 41.5846C132.142 41.9829 132.527 42.5111 132.772 43.1691C133.035 43.8271 133.166 44.6237 133.166 45.5588C133.166 46.4766 133.009 47.2645 132.693 47.9226C132.395 48.5633 131.958 49.0828 131.38 49.4811C130.802 49.8793 130.083 50.1737 129.225 50.3642C128.367 50.5374 127.386 50.624 126.283 50.624H121.107ZM133.298 35.2467C131.493 34.7618 129.313 34.5194 126.756 34.5194H113.225V72.2093H127.99C130.25 72.2093 132.247 71.9322 133.981 71.3781C135.732 70.8066 137.203 70.0187 138.395 69.0144C139.586 68.01 140.488 66.8238 141.101 65.4558C141.731 64.0877 142.047 62.6072 142.047 61.014C142.047 58.8321 141.425 57.0571 140.181 55.6891C138.938 54.3211 137.02 53.334 134.427 52.728C135.583 52.3297 136.582 51.8448 137.422 51.2733C138.263 50.7019 138.946 50.0698 139.472 49.3772C140.015 48.6672 140.409 47.9139 140.654 47.1173C140.917 46.3208 141.048 45.4895 141.048 44.6237C141.048 43.0825 140.785 41.6885 140.26 40.4417C139.734 39.1949 138.894 38.1386 137.738 37.2727C136.599 36.3896 135.119 35.7142 133.298 35.2467Z" fill="#FFBB49"/>
<path d="M130.959 65.7934L133.018 71.429L133.051 71.4171L133.084 71.4047L130.959 65.7934ZM121.107 66.235H115.107V72.235H121.107V66.235ZM121.107 55.9229V49.9229H115.107V55.9229H121.107ZM130.802 56.2606L129.187 62.0392L129.203 62.0437L129.219 62.0481L130.802 56.2606ZM132.798 57.2476L128.906 61.8141L128.952 61.8532L128.999 61.8913L132.798 57.2476ZM133.902 58.7802L139.519 56.67L139.519 56.67L133.902 58.7802ZM133.954 62.8583L139.7 64.5861L139.706 64.5652L139.713 64.5442L133.954 62.8583ZM121.107 40.4417V34.4417H115.107V40.4417H121.107ZM121.107 50.624H115.107V56.624H121.107V50.624ZM129.619 40.7274L128.239 46.5665L128.299 46.5806L128.359 46.5935L129.619 40.7274ZM131.616 41.5846L135.24 36.803L135.24 36.803L131.616 41.5846ZM132.772 43.1691L127.15 45.2642L127.174 45.3294L127.2 45.3939L132.772 43.1691ZM132.693 47.9226L127.282 45.33L127.267 45.3619L127.252 45.3939L132.693 47.9226ZM129.225 50.3642L130.412 56.2457L130.469 56.2342L130.525 56.2217L129.225 50.3642ZM133.298 35.2467L131.74 41.0411L131.773 41.0499L131.806 41.0583L133.298 35.2467ZM113.225 34.5194V28.5194H107.225V34.5194H113.225ZM113.225 72.2093H107.225V78.2093H113.225V72.2093ZM133.981 71.3781L135.807 77.0934L135.824 77.0878L135.842 77.0822L133.981 71.3781ZM138.395 69.0144L134.527 64.4275L134.527 64.4275L138.395 69.0144ZM141.101 65.4558L135.652 62.9442L135.638 62.9731L135.625 63.0021L141.101 65.4558ZM134.427 52.728L132.473 47.0552L112.8 53.8332L133.061 58.5704L134.427 52.728ZM137.422 51.2733L140.795 56.2356L140.795 56.2356L137.422 51.2733ZM139.472 49.3772L134.706 45.7323L134.699 45.7416L134.692 45.7509L139.472 49.3772ZM140.654 47.1173L134.956 45.2379L134.937 45.2948L134.92 45.352L140.654 47.1173ZM140.26 40.4417L145.789 38.1115L145.789 38.1115L140.26 40.4417ZM137.738 37.2727L134.06 42.0136L134.1 42.0447L134.141 42.0751L137.738 37.2727ZM154.364 13H100.908V25H154.364V13ZM168 26.6365C168 19.1227 161.877 13 154.364 13V25C155.25 25 156 25.7501 156 26.6365H168ZM168 80.0922V26.6365H156V80.0922H168ZM154.364 93.7287C161.877 93.7287 168 87.606 168 80.0922H156C156 80.9785 155.25 81.7287 154.364 81.7287V93.7287ZM100.908 93.7287H154.364V81.7287H100.908V93.7287ZM87.2714 80.0922C87.2714 87.606 93.3941 93.7287 100.908 93.7287V81.7287C100.022 81.7287 99.2714 80.9785 99.2714 80.0922H87.2714ZM87.2714 26.6365V80.0922H99.2714V26.6365H87.2714ZM100.908 13C93.3941 13 87.2714 19.1227 87.2714 26.6365H99.2714C99.2714 25.7501 100.022 25 100.908 25V13ZM127.859 72.235C129.523 72.235 131.32 72.0494 133.018 71.429L128.9 60.1578C128.964 60.1347 128.922 60.1577 128.734 60.1846C128.548 60.2111 128.263 60.235 127.859 60.235V72.235ZM121.107 72.235H127.859V60.235H121.107V72.235ZM115.107 55.9229V66.235H127.107V55.9229H115.107ZM127.806 49.9229H121.107V61.9229H127.806V49.9229ZM132.416 50.4819C130.915 50.0624 129.333 49.9229 127.806 49.9229V61.9229C128.662 61.9229 129.077 62.0085 129.187 62.0392L132.416 50.4819ZM136.69 52.6812C135.352 51.5404 133.829 50.8681 132.384 50.4731L129.219 62.0481C129.421 62.1033 129.229 62.089 128.906 61.8141L136.69 52.6812ZM139.519 56.67C138.914 55.0599 137.912 53.6795 136.598 52.6039L128.999 61.8913C128.866 61.7822 128.72 61.635 128.586 61.4484C128.451 61.2615 128.352 61.0693 128.285 60.8903L139.519 56.67ZM140.243 60.8322C140.243 59.4744 140.04 58.0585 139.519 56.67L128.285 60.8903C128.253 60.8043 128.242 60.7478 128.239 60.7328C128.237 60.7192 128.243 60.7493 128.243 60.8322H140.243ZM139.713 64.5442C140.067 63.3329 140.243 62.0896 140.243 60.8322H128.243C128.243 60.9602 128.227 61.0675 128.196 61.1723L139.713 64.5442ZM137.222 68.7647C138.354 67.6054 139.215 66.1993 139.7 64.5861L128.209 61.1304C128.254 60.9802 128.32 60.8295 128.404 60.6892C128.487 60.55 128.572 60.4476 128.637 60.3805L137.222 68.7647ZM133.084 71.4047C134.523 70.8599 135.987 70.03 137.222 68.7647L128.637 60.3805C128.892 60.1196 129.042 60.1036 128.835 60.1822L133.084 71.4047ZM115.107 40.4417V50.624H127.107V40.4417H115.107ZM126.756 34.4417H121.107V46.4417H126.756V34.4417ZM131 34.8884C129.621 34.5623 128.18 34.4417 126.756 34.4417V46.4417C127.538 46.4417 128.007 46.5116 128.239 46.5665L131 34.8884ZM135.24 36.803C133.864 35.7596 132.335 35.1741 130.88 34.8614L128.359 46.5935C128.515 46.6271 128.317 46.6131 127.992 46.3663L135.24 36.803ZM138.394 41.074C137.779 39.4216 136.733 37.9344 135.24 36.803L127.992 46.3663C127.792 46.2152 127.607 46.0283 127.452 45.8158C127.299 45.6056 127.204 45.4109 127.15 45.2642L138.394 41.074ZM139.166 45.5588C139.166 44.0923 138.964 42.4966 138.344 40.9443L127.2 45.3939C127.15 45.2694 127.143 45.2075 127.148 45.2364C127.153 45.2661 127.166 45.3684 127.166 45.5588H139.166ZM138.104 50.5151C138.894 48.8669 139.166 47.149 139.166 45.5588H127.166C127.166 45.8042 127.123 45.6622 127.282 45.33L138.104 50.5151ZM134.784 54.4217C136.25 53.4115 137.388 52.0566 138.134 50.4512L127.252 45.3939C127.318 45.2516 127.417 45.0883 127.554 44.9258C127.691 44.7631 127.838 44.6347 127.975 44.5404L134.784 54.4217ZM130.525 56.2217C131.954 55.9046 133.432 55.3535 134.784 54.4217L127.975 44.5404C128.074 44.4721 128.135 44.4476 128.132 44.4489C128.127 44.4509 128.064 44.4759 127.925 44.5067L130.525 56.2217ZM126.283 56.624C127.687 56.624 129.078 56.5149 130.412 56.2457L128.038 44.4827C127.656 44.5598 127.085 44.624 126.283 44.624V56.624ZM121.107 56.624H126.283V44.624H121.107V56.624ZM126.756 40.5194C128.966 40.5194 130.592 40.7324 131.74 41.0411L134.855 29.4523C132.395 28.7912 129.66 28.5194 126.756 28.5194V40.5194ZM113.225 40.5194H126.756V28.5194H113.225V40.5194ZM119.225 72.2093V34.5194H107.225V72.2093H119.225ZM127.99 66.2093H113.225V78.2093H127.99V66.2093ZM132.154 65.6628C131.133 65.9892 129.773 66.2093 127.99 66.2093V78.2093C130.727 78.2093 133.36 77.8753 135.807 77.0934L132.154 65.6628ZM134.527 64.4275C134.024 64.8516 133.268 65.2993 132.12 65.674L135.842 77.0822C138.196 76.314 140.383 75.1859 142.262 73.6012L134.527 64.4275ZM135.625 63.0021C135.396 63.5147 135.056 63.9809 134.527 64.4275L142.262 73.6012C144.115 72.0391 145.58 70.1329 146.576 67.9094L135.625 63.0021ZM136.047 61.014C136.047 61.791 135.898 62.4087 135.652 62.9442L146.55 67.9674C147.564 65.7667 148.047 63.4233 148.047 61.014H136.047ZM135.741 59.7251C135.804 59.7943 136.047 60.0394 136.047 61.014H148.047C148.047 57.6248 147.045 54.3199 144.621 51.6532L135.741 59.7251ZM133.061 58.5704C134.968 59.0161 135.603 59.5727 135.741 59.7251L144.621 51.6532C142.272 49.0694 139.071 47.6519 135.793 46.8855L133.061 58.5704ZM134.05 46.3111C133.726 46.5308 133.225 46.7962 132.473 47.0552L136.382 58.4007C137.942 57.8632 139.437 57.1588 140.795 56.2356L134.05 46.3111ZM134.692 45.7509C134.62 45.8455 134.441 46.0451 134.05 46.3111L140.795 56.2356C142.085 55.3586 143.273 54.2942 144.252 53.0034L134.692 45.7509ZM134.92 45.352C134.898 45.4219 134.849 45.5454 134.706 45.7323L144.238 53.0221C145.181 51.7889 145.92 50.4059 146.388 48.8826L134.92 45.352ZM135.048 44.6237C135.048 44.8718 135.012 45.0672 134.956 45.2379L146.352 48.9967C146.821 47.5743 147.048 46.1073 147.048 44.6237H135.048ZM134.731 42.7719C134.905 43.1856 135.048 43.7722 135.048 44.6237H147.048C147.048 42.3929 146.666 40.1915 145.789 38.1115L134.731 42.7719ZM134.141 42.0751C134.505 42.3475 134.647 42.5724 134.731 42.7719L145.789 38.1115C144.822 35.8174 143.283 33.9297 141.335 32.4704L134.141 42.0751ZM131.806 41.0583C133.065 41.3814 133.735 41.7612 134.06 42.0136L141.415 32.5319C139.464 31.018 137.174 30.0471 134.789 29.4351L131.806 41.0583Z" fill="white" mask="url(#path-5-outside-3)"/>
<mask id="path-7-outside-4" maskUnits="userSpaceOnUse" x="13" y="13" width="81" height="81" fill="black">
<rect fill="white" x="13" y="13" width="81" height="81"/>
<path fill-rule="evenodd" clip-rule="evenodd" d="M26.6365 19H80.0922C84.2923 19 87.7287 22.4364 87.7287 26.6365V80.0922C87.7287 84.2923 84.2923 87.7287 80.0922 87.7287H26.6365C22.4364 87.7287 19 84.2923 19 80.0922V26.6365C19 22.4364 22.4364 19 26.6365 19ZM54.9086 46.364L59.0178 57.897H47.737L51.8201 46.416C52.0644 45.8099 52.3174 45.0999 52.5791 44.286C52.8583 43.4548 53.1201 42.5544 53.3643 41.5846C53.6086 42.537 53.8616 43.4202 54.1234 44.2341C54.4026 45.048 54.6643 45.758 54.9086 46.364ZM66.1109 72.2093H72.2093L57.3951 34.5194H49.3598L34.5194 72.2093H40.6702C41.3332 72.2093 41.8829 72.0361 42.3191 71.6898C42.7553 71.3261 43.0607 70.9279 43.2352 70.4949L45.8002 63.2998H60.9285L63.4935 70.4949C63.7029 70.9971 64.017 71.4127 64.4358 71.7418C64.872 72.0535 65.4304 72.2093 66.1109 72.2093Z"/>
</mask>
<path fill-rule="evenodd" clip-rule="evenodd" d="M26.6365 19H80.0922C84.2923 19 87.7287 22.4364 87.7287 26.6365V80.0922C87.7287 84.2923 84.2923 87.7287 80.0922 87.7287H26.6365C22.4364 87.7287 19 84.2923 19 80.0922V26.6365C19 22.4364 22.4364 19 26.6365 19ZM54.9086 46.364L59.0178 57.897H47.737L51.8201 46.416C52.0644 45.8099 52.3174 45.0999 52.5791 44.286C52.8583 43.4548 53.1201 42.5544 53.3643 41.5846C53.6086 42.537 53.8616 43.4202 54.1234 44.2341C54.4026 45.048 54.6643 45.758 54.9086 46.364ZM66.1109 72.2093H72.2093L57.3951 34.5194H49.3598L34.5194 72.2093H40.6702C41.3332 72.2093 41.8829 72.0361 42.3191 71.6898C42.7553 71.3261 43.0607 70.9279 43.2352 70.4949L45.8002 63.2998H60.9285L63.4935 70.4949C63.7029 70.9971 64.017 71.4127 64.4358 71.7418C64.872 72.0535 65.4304 72.2093 66.1109 72.2093Z" fill="#FF9091"/>
<path d="M59.0178 57.897V63.897H67.5251L64.6698 55.8832L59.0178 57.897ZM54.9086 46.364L60.5605 44.3502L60.5194 44.2347L60.4735 44.121L54.9086 46.364ZM47.737 57.897L42.0839 55.8865L39.2351 63.897H47.737V57.897ZM51.8201 46.416L46.2551 44.173L46.2086 44.2883L46.167 44.4055L51.8201 46.416ZM52.5791 44.286L46.8914 42.3756L46.8791 42.4123L46.8672 42.4491L52.5791 44.286ZM53.3643 41.5846L59.1762 40.0939L47.5461 40.119L53.3643 41.5846ZM54.1234 44.2341L48.4115 46.071L48.4292 46.1261L48.448 46.1809L54.1234 44.2341ZM72.2093 72.2093V78.2093H81.0145L77.7934 70.0144L72.2093 72.2093ZM57.3951 34.5194L62.9792 32.3245L61.4836 28.5194H57.3951V34.5194ZM49.3598 34.5194V28.5194H45.2739L43.777 32.3211L49.3598 34.5194ZM34.5194 72.2093L28.9366 70.0111L25.7085 78.2093H34.5194V72.2093ZM42.3191 71.6898L46.0499 76.3889L46.106 76.3443L46.161 76.2985L42.3191 71.6898ZM43.2352 70.4949L48.8002 72.7379L48.8458 72.6247L48.8868 72.5097L43.2352 70.4949ZM45.8002 63.2998V57.2998H41.5693L40.1486 61.2851L45.8002 63.2998ZM60.9285 63.2998L66.5801 61.2851L65.1594 57.2998H60.9285V63.2998ZM63.4935 70.4949L57.8419 72.5097L57.8949 72.6583L57.9556 72.804L63.4935 70.4949ZM64.4358 71.7418L60.729 76.4598L60.8364 76.5442L60.9475 76.6236L64.4358 71.7418ZM80.0922 13H26.6365V25H80.0922V13ZM93.7287 26.6365C93.7287 19.1227 87.606 13 80.0922 13V25C80.9785 25 81.7287 25.7501 81.7287 26.6365H93.7287ZM93.7287 80.0922V26.6365H81.7287V80.0922H93.7287ZM80.0922 93.7287C87.606 93.7287 93.7287 87.606 93.7287 80.0922H81.7287C81.7287 80.9785 80.9785 81.7287 80.0922 81.7287V93.7287ZM26.6365 93.7287H80.0922V81.7287H26.6365V93.7287ZM13 80.0922C13 87.606 19.1227 93.7287 26.6365 93.7287V81.7287C25.7501 81.7287 25 80.9785 25 80.0922H13ZM13 26.6365V80.0922H25V26.6365H13ZM26.6365 13C19.1227 13 13 19.1227 13 26.6365H25C25 25.7501 25.7501 25 26.6365 25V13ZM64.6698 55.8832L60.5605 44.3502L49.2566 48.3779L53.3659 59.9108L64.6698 55.8832ZM47.737 63.897H59.0178V51.897H47.737V63.897ZM46.167 44.4055L42.0839 55.8865L53.3902 59.9075L57.4732 48.4265L46.167 44.4055ZM46.8672 42.4491C46.637 43.1651 46.4321 43.7338 46.2551 44.173L57.3851 48.659C57.6966 47.886 57.9978 47.0348 58.291 46.1229L46.8672 42.4491ZM47.5461 40.119C47.3344 40.9592 47.1151 41.7096 46.8914 42.3756L58.2669 46.1964C58.6015 45.2001 58.9057 44.1495 59.1826 43.0503L47.5461 40.119ZM59.8353 42.3972C59.6153 41.7131 59.395 40.9468 59.1762 40.0939L47.5525 43.0753C47.8223 44.1273 48.108 45.1273 48.4115 46.071L59.8353 42.3972ZM60.4735 44.121C60.2787 43.6376 60.0537 43.0306 59.7988 42.2873L48.448 46.1809C48.7514 47.0653 49.0499 47.8783 49.3436 48.6071L60.4735 44.121ZM72.2093 66.2093H66.1109V78.2093H72.2093V66.2093ZM51.8109 36.7143L66.6252 74.4042L77.7934 70.0144L62.9792 32.3245L51.8109 36.7143ZM49.3598 40.5194H57.3951V28.5194H49.3598V40.5194ZM40.1022 74.4075L54.9426 36.7176L43.777 32.3211L28.9366 70.0111L40.1022 74.4075ZM40.6702 66.2093H34.5194V78.2093H40.6702V66.2093ZM38.5883 66.9907C39.4055 66.342 40.2463 66.2093 40.6702 66.2093V78.2093C42.4201 78.2093 44.3603 77.7303 46.0499 76.3889L38.5883 66.9907ZM37.6702 68.252C37.9381 67.5873 38.316 67.2156 38.4772 67.0811L46.161 76.2985C47.1947 75.4367 48.1833 74.2684 48.8002 72.7379L37.6702 68.252ZM40.1486 61.2851L37.5836 68.4802L48.8868 72.5097L51.4518 65.3146L40.1486 61.2851ZM60.9285 57.2998H45.8002V69.2998H60.9285V57.2998ZM69.1451 68.4802L66.5801 61.2851L55.2769 65.3146L57.8419 72.5097L69.1451 68.4802ZM68.1426 67.0237C68.548 67.3423 68.8552 67.7632 69.0314 68.1859L57.9556 72.804C58.5506 74.231 59.486 75.4832 60.729 76.4598L68.1426 67.0237ZM66.1109 66.2093C66.343 66.2093 67.0981 66.2698 67.924 66.8599L60.9475 76.6236C62.6459 77.8371 64.5177 78.2093 66.1109 78.2093V66.2093Z" fill="white" mask="url(#path-7-outside-4)"/>
</svg>
