<svg width="180" height="180" viewBox="0 0 180 180" fill="none" xmlns="http://www.w3.org/2000/svg">
<mask id="path-1-outside-1" maskUnits="userSpaceOnUse" x="36" y="6" width="109" height="168" fill="black">
<rect fill="white" x="36" y="6" width="109" height="168"/>
<path fill-rule="evenodd" clip-rule="evenodd" d="M122.441 104.547C122.818 104.929 123.036 105.443 123.036 105.979V165.595C123.036 166.699 123.931 167.595 125.036 167.595H136.911C138.015 167.595 138.911 166.699 138.911 165.595V14.951C138.911 13.4053 137.24 12.4581 135.969 13.3367C117.609 26.0203 106.605 52.1733 106.607 69.9193C106.608 80.2622 111.593 93.5826 122.441 104.547ZM78.4057 63.6858C79.5103 63.6858 80.4057 62.7904 80.4057 61.6858V15.2558C80.4057 14.1513 81.3012 13.2558 82.4057 13.2558H92.0451C93.1497 13.2558 94.0451 14.1513 94.0451 15.2558V58.117C94.0451 74.874 87.2881 82.963 76.3275 93.965C75.9532 94.3407 75.7396 94.8519 75.7396 95.3824V165.597C75.7396 166.701 74.8442 167.597 73.7396 167.597H62.3055C61.201 167.597 60.3055 166.701 60.3055 165.597V95.3824C60.3055 94.8519 60.0907 94.3394 59.7162 93.9637C47.9054 82.1147 42 74.8948 42 58.117V15.2558C42 14.1513 42.8954 13.2558 44 13.2558H53.6394C54.744 13.2558 55.6394 14.1513 55.6394 15.2558V61.6858C55.6394 62.7904 56.5348 63.6858 57.6394 63.6858H60.1002C61.2048 63.6858 62.1002 62.7904 62.1002 61.6858V15.2558C62.1002 14.1513 62.9956 13.2558 64.1002 13.2558H71.9449C73.0495 13.2558 73.9449 14.1513 73.9449 15.2558V61.6858C73.9449 62.7904 74.8404 63.6858 75.945 63.6858H78.4057Z"/>
</mask>
<path fill-rule="evenodd" clip-rule="evenodd" d="M122.441 104.547C122.818 104.929 123.036 105.443 123.036 105.979V165.595C123.036 166.699 123.931 167.595 125.036 167.595H136.911C138.015 167.595 138.911 166.699 138.911 165.595V14.951C138.911 13.4053 137.24 12.4581 135.969 13.3367C117.609 26.0203 106.605 52.1733 106.607 69.9193C106.608 80.2622 111.593 93.5826 122.441 104.547ZM78.4057 63.6858C79.5103 63.6858 80.4057 62.7904 80.4057 61.6858V15.2558C80.4057 14.1513 81.3012 13.2558 82.4057 13.2558H92.0451C93.1497 13.2558 94.0451 14.1513 94.0451 15.2558V58.117C94.0451 74.874 87.2881 82.963 76.3275 93.965C75.9532 94.3407 75.7396 94.8519 75.7396 95.3824V165.597C75.7396 166.701 74.8442 167.597 73.7396 167.597H62.3055C61.201 167.597 60.3055 166.701 60.3055 165.597V95.3824C60.3055 94.8519 60.0907 94.3394 59.7162 93.9637C47.9054 82.1147 42 74.8948 42 58.117V15.2558C42 14.1513 42.8954 13.2558 44 13.2558H53.6394C54.744 13.2558 55.6394 14.1513 55.6394 15.2558V61.6858C55.6394 62.7904 56.5348 63.6858 57.6394 63.6858H60.1002C61.2048 63.6858 62.1002 62.7904 62.1002 61.6858V15.2558C62.1002 14.1513 62.9956 13.2558 64.1002 13.2558H71.9449C73.0495 13.2558 73.9449 14.1513 73.9449 15.2558V61.6858C73.9449 62.7904 74.8404 63.6858 75.945 63.6858H78.4057Z" fill="#424242"/>
<path d="M106.607 69.9193L100.607 69.9199L100.607 69.9199L106.607 69.9193ZM76.3275 93.965L80.5781 98.1996L80.5782 98.1996L76.3275 93.965ZM59.7162 93.9637L63.9657 89.728L63.9657 89.728L59.7162 93.9637ZM135.969 13.3367L132.558 8.40012L135.969 13.3367ZM122.441 104.547L118.175 108.767L122.441 104.547ZM129.036 165.595V105.979H117.036V165.595H129.036ZM136.911 161.595H125.036V173.595H136.911V161.595ZM132.911 14.951V165.595H144.911V14.951H132.911ZM112.607 69.9187C112.606 62.1436 115.058 52.0682 119.795 42.3605C124.524 32.6679 131.269 23.8763 139.379 18.2732L132.558 8.40012C122.309 15.4807 114.372 26.1074 109.01 37.0987C103.655 48.0748 100.606 59.949 100.607 69.9199L112.607 69.9187ZM126.706 100.328C116.848 90.3628 112.608 78.5164 112.607 69.9187L100.607 69.9199C100.608 82.008 106.339 96.8025 118.175 108.767L126.706 100.328ZM74.4057 61.6858C74.4057 59.4767 76.1966 57.6858 78.4057 57.6858V69.6858C82.824 69.6858 86.4057 66.1041 86.4057 61.6858H74.4057ZM74.4057 15.2558V61.6858H86.4057V15.2558H74.4057ZM82.4057 7.25585C77.9874 7.25585 74.4057 10.8376 74.4057 15.2558H86.4057C86.4057 17.465 84.6149 19.2558 82.4057 19.2558V7.25585ZM92.0451 7.25585H82.4057V19.2558H92.0451V7.25585ZM100.045 15.2558C100.045 10.8376 96.4634 7.25585 92.0451 7.25585V19.2558C89.836 19.2558 88.0451 17.465 88.0451 15.2558H100.045ZM100.045 58.117V15.2558H88.0451V58.117H100.045ZM80.5782 98.1996C86.0565 92.7005 91.0328 87.4118 94.5382 81.1189C98.1496 74.6357 100.045 67.3987 100.045 58.117H88.0451C88.0451 65.5923 86.5621 70.7783 84.0549 75.2793C81.4416 79.9707 77.5591 84.2274 72.0769 89.7303L80.5782 98.1996ZM81.7396 95.3824C81.7396 96.4575 81.3113 97.4637 80.5781 98.1996L72.0769 89.7303C70.5951 91.2177 69.7396 93.2464 69.7396 95.3824H81.7396ZM81.7396 165.597V95.3824H69.7396V165.597H81.7396ZM73.7396 173.597C78.1579 173.597 81.7396 170.015 81.7396 165.597H69.7396C69.7396 163.387 71.5305 161.597 73.7396 161.597V173.597ZM62.3055 173.597H73.7396V161.597H62.3055V173.597ZM54.3055 165.597C54.3055 170.015 57.8873 173.597 62.3055 173.597V161.597C64.5147 161.597 66.3055 163.387 66.3055 165.597H54.3055ZM54.3055 95.3824V165.597H66.3055V95.3824H54.3055ZM55.4667 98.1995C54.7366 97.467 54.3055 96.463 54.3055 95.3824H66.3055C66.3055 93.2409 65.4448 91.2118 63.9657 89.728L55.4667 98.1995ZM36 58.117C36 67.2928 37.6341 74.3304 41.1684 80.7741C44.5806 86.9951 49.5911 92.3048 55.4667 98.1995L63.9657 89.728C58.0305 83.7735 54.1829 79.5489 51.6897 75.0032C49.3186 70.6803 48 65.719 48 58.117H36ZM36 15.2558V58.117H48V15.2558H36ZM44 7.25585C39.5817 7.25585 36 10.8376 36 15.2558H48C48 17.465 46.2091 19.2558 44 19.2558V7.25585ZM53.6394 7.25585H44V19.2558H53.6394V7.25585ZM61.6394 15.2558C61.6394 10.8376 58.0577 7.25585 53.6394 7.25585V19.2558C51.4303 19.2558 49.6394 17.465 49.6394 15.2558H61.6394ZM61.6394 61.6858V15.2558H49.6394V61.6858H61.6394ZM57.6394 57.6858C59.8485 57.6858 61.6394 59.4766 61.6394 61.6858H49.6394C49.6394 66.1041 53.2212 69.6858 57.6394 69.6858V57.6858ZM60.1002 57.6858H57.6394V69.6858H60.1002V57.6858ZM56.1002 61.6858C56.1002 59.4767 57.8911 57.6858 60.1002 57.6858V69.6858C64.5185 69.6858 68.1002 66.1041 68.1002 61.6858H56.1002ZM56.1002 15.2558V61.6858H68.1002V15.2558H56.1002ZM64.1002 7.25585C59.6819 7.25585 56.1002 10.8376 56.1002 15.2558H68.1002C68.1002 17.465 66.3093 19.2558 64.1002 19.2558V7.25585ZM71.9449 7.25585H64.1002V19.2558H71.9449V7.25585ZM79.9449 15.2558C79.9449 10.8376 76.3632 7.25585 71.9449 7.25585V19.2558C69.7358 19.2558 67.9449 17.465 67.9449 15.2558H79.9449ZM79.9449 61.6858V15.2558H67.9449V61.6858H79.9449ZM75.945 57.6858C78.1541 57.6858 79.9449 59.4766 79.9449 61.6858H67.9449C67.9449 66.1041 71.5267 69.6858 75.945 69.6858V57.6858ZM78.4057 57.6858H75.945V69.6858H78.4057V57.6858ZM144.911 14.951C144.911 8.9813 138.146 4.54011 132.558 8.40012L139.379 18.2732C136.335 20.3761 132.911 17.8294 132.911 14.951H144.911ZM136.911 173.595C141.329 173.595 144.911 170.013 144.911 165.595H132.911C132.911 163.386 134.702 161.595 136.911 161.595V173.595ZM129.036 105.979C129.036 103.813 128.16 101.797 126.706 100.328L118.175 108.767C117.476 108.06 117.036 107.072 117.036 105.979H129.036ZM117.036 165.595C117.036 170.013 120.617 173.595 125.036 173.595V161.595C127.245 161.595 129.036 163.386 129.036 165.595H117.036Z" fill="white" mask="url(#path-1-outside-1)"/>
</svg>
