<svg width="180" height="180" viewBox="0 0 180 180" fill="none" xmlns="http://www.w3.org/2000/svg">
<path d="M44.7628 78.5113C51.6084 83.89 57.0195 75.4013 68.4782 67.542C68.9712 67.2038 69.5952 67.1143 70.1702 67.2781C77.4094 69.3404 82.7998 69.2662 86.7628 67.8571C86.7628 84.7028 78.7628 87.0113 56.2628 112.511C38.704 132.411 48.2652 150.44 55.7064 157.5C56.0617 157.837 56.5312 158.011 57.021 158.011H118.489C120.741 158.011 126.176 149.875 126.021 147.628C124.944 132.049 130.786 104.028 132.263 97.0113C134.263 87.5113 138.263 67.0113 130.263 47.0113C122.263 27.0113 102.263 21.5113 86.7628 20.0113C77.5818 19.1228 69.2962 15.2558 64.0572 12.0227C62.493 11.0574 60.3105 12.3803 60.6429 14.188C61.3938 18.2715 62.4145 23.1115 63.417 26.0674C63.6206 26.6679 63.5654 27.3334 63.2267 27.8695C52.8242 44.3323 40.1696 53.6046 34.7628 59.0113C29.2628 64.5113 37.7628 73.0113 44.7628 78.5113Z" fill="#816666"/>
<path d="M96.2628 44.5113C97.6796 52.1856 96.788 64.2925 86.7628 67.8571M86.7628 67.8571C82.7998 69.2662 77.4094 69.3404 70.1702 67.2781C69.5952 67.1143 68.9712 67.2038 68.4782 67.542C57.0195 75.4013 51.6084 83.89 44.7628 78.5113C37.7628 73.0113 29.2628 64.5113 34.7628 59.0113C40.1696 53.6046 52.8242 44.3323 63.2267 27.8695C63.5654 27.3334 63.6206 26.6679 63.417 26.0674C62.4145 23.1115 61.3938 18.2715 60.6429 14.188C60.3105 12.3803 62.493 11.0574 64.0572 12.0227C69.2962 15.2558 77.5818 19.1228 86.7628 20.0113C102.263 21.5113 122.263 27.0113 130.263 47.0113C138.263 67.0113 134.263 87.5113 132.263 97.0113C130.786 104.028 124.944 132.049 126.021 147.628C126.176 149.875 120.741 158.011 118.489 158.011C84.8585 158.011 64.2593 158.011 57.021 158.011C56.5312 158.011 56.0617 157.837 55.7064 157.5C48.2652 150.44 38.704 132.411 56.2628 112.511C78.7628 87.0113 86.7628 84.7028 86.7628 67.8571ZM87.7628 9.01133C101.263 8.678 131.063 14.1113 142.263 44.5113C153.463 74.9113 145.596 104.678 140.263 115.011M44.7628 170.511H142.263" stroke="white" stroke-width="6" stroke-linecap="round"/>
</svg>
