<svg width="208" height="191" viewBox="0 0 208 191" fill="none" xmlns="http://www.w3.org/2000/svg">
<path d="M109.568 97.8115C111.714 84.0826 109.207 73.499 103.509 66.2898C97.8065 59.0744 89.2606 55.6913 80.2846 55.6913C73.9506 55.6913 68.8428 57.4288 64.8648 60.4726C60.9165 63.4937 58.2903 67.6402 56.605 72.1344C53.2661 81.038 53.4282 91.7995 54.7029 99.8725C55.8044 106.849 59.1128 125.255 63.5002 141.956C65.689 150.287 68.1799 158.326 70.8458 164.331C72.1719 167.318 73.6103 169.963 75.1757 171.909C76.6504 173.742 78.7647 175.606 81.5184 175.606C84.0502 175.606 86.1168 174.165 87.6784 172.512C89.2736 170.823 90.7213 168.521 92.0469 165.904C94.7087 160.648 97.1867 153.491 99.4141 145.669C103.881 129.982 107.502 111.036 109.568 97.8115Z" fill="#FE8775" stroke="white" stroke-width="6"/>
<path d="M69.4935 54.2847L70.7366 55.1727L72.1859 54.6896C78.8661 52.4629 86.7296 52.8275 93.4598 55.8187L95.0266 56.5151L96.4219 55.5185C103.778 50.264 108.042 45.5324 109.801 41.1344C111.684 36.4265 110.578 32.4061 108.104 29.3816C106.084 26.9125 103.342 24.6445 99.7259 25.0062C98.2875 25.15 96.9299 25.6968 95.6328 26.5545C95.4278 24.626 95.0794 22.7066 94.3398 21.0257C93.5493 19.2289 92.2961 17.6746 90.3603 16.6761C88.5022 15.7177 86.2988 15.4191 83.8432 15.5361L83.9858 18.5327L83.8431 15.5361C81.0838 15.6675 78.8316 16.6003 77.1682 18.271C75.5642 19.8821 74.7694 21.9178 74.3593 23.8056C74.1365 24.8314 74.0131 25.8802 73.9487 26.8971C73.1555 26.3298 72.2931 25.8123 71.3649 25.4166C69.6201 24.673 67.6058 24.3474 65.4373 24.9294C63.317 25.4984 61.371 26.8491 59.554 28.8573C57.417 31.2193 56.6168 33.9531 56.8178 36.7023C57.0105 39.3381 58.1056 41.8363 59.4638 44.0003C62.1722 48.3153 66.4336 52.0991 69.4935 54.2847Z" fill="#42A08E" stroke="white" stroke-width="6"/>
<path d="M57.2549 85.0115L72.0598 85.0115M59.7224 107.219L74.5272 107.219M65.8911 134.772L78.2285 134.772" stroke="white" stroke-width="6" stroke-linecap="round"/>
<path d="M153.6 124.43C161.218 112.809 163.301 102.134 161.085 93.2159C158.867 84.2905 152.479 77.6831 144.302 73.9798C138.532 71.3666 133.163 70.842 128.283 71.9735C123.44 73.0965 119.337 75.7901 115.948 79.1887C109.233 85.9218 104.941 95.7916 102.771 103.671C100.896 110.481 96.3161 128.613 93.4226 145.636C91.9792 154.128 90.9317 162.478 90.8825 169.049C90.858 172.317 91.0773 175.319 91.7004 177.738C92.2875 180.016 93.4443 182.586 95.9527 183.722C98.259 184.767 100.736 184.307 102.841 183.445C104.99 182.565 107.259 181.065 109.546 179.228C114.14 175.538 119.349 170.041 124.606 163.835C135.147 151.389 146.262 135.624 153.6 124.43Z" fill="#FE8775" stroke="white" stroke-width="6"/>
<path d="M135.052 68.2468L135.819 69.5685L137.338 69.7264C144.342 70.4541 151.354 74.0304 156.251 79.5319L157.391 80.8127L159.073 80.4805C167.942 78.729 173.778 76.1779 177.195 72.8974C180.853 69.3858 181.504 65.2673 180.498 61.4912C179.676 58.4087 178.115 55.2118 174.671 54.0492C173.302 53.5868 171.839 53.5247 170.304 53.7708C170.913 51.9296 171.388 50.0375 171.407 48.2011C171.428 46.2382 170.928 44.3053 169.577 42.5971C168.28 40.9575 166.396 39.7764 164.11 38.8699L163.004 41.6584L164.11 38.8699C161.543 37.8511 159.106 37.7716 156.902 38.6073C154.776 39.4131 153.212 40.9396 152.06 42.49C151.433 43.3325 150.888 44.237 150.41 45.1368C149.922 44.2927 149.35 43.4655 148.667 42.7222C147.385 41.3249 145.684 40.1973 143.469 39.8327C141.302 39.4763 138.973 39.9038 136.489 40.9835C133.568 42.2534 131.711 44.4136 130.76 47.0008C129.848 49.4814 129.815 52.2089 130.159 54.7405C130.846 59.7885 133.167 64.9933 135.052 68.2468Z" fill="#42A08E" stroke="white" stroke-width="6"/>
<path d="M111.227 91.187L124.713 97.295M104.313 112.434L117.799 118.542M98.5643 140.078L109.803 145.168" stroke="white" stroke-width="6" stroke-linecap="round"/>
</svg>
