<svg width="268" height="244" viewBox="0 0 268 244" fill="none" xmlns="http://www.w3.org/2000/svg">
<circle cx="133.5" cy="121.5" r="82.5" stroke="#0EBDCA" stroke-width="8"/>
<path d="M52.8295 138.778C50.2522 126.744 50.3997 114.287 53.261 102.318C56.1223 90.3491 61.6249 79.1719 69.3659 69.6053C77.1068 60.0387 86.8898 52.325 97.9983 47.0293C109.107 41.7337 121.259 38.9903 133.565 39" stroke="#0EE788" stroke-width="8"/>
<g filter="url(#filter0_d)">
<circle cx="133.5" cy="121.5" r="43.5" fill="#FFFEFD"/>
</g>
<circle cx="45" cy="236" r="4" fill="#0EBDCA"/>
<path d="M63.0235 236.411C63.3615 236.411 63.6583 236.368 63.914 236.281C64.174 236.194 64.3885 236.073 64.5575 235.917C64.7308 235.757 64.8608 235.564 64.9475 235.338C65.0342 235.113 65.0775 234.862 65.0775 234.584C65.0775 234.311 65.0342 234.067 64.9475 233.85C64.8652 233.633 64.7395 233.449 64.5705 233.297C64.4015 233.146 64.187 233.031 63.927 232.953C63.6713 232.871 63.3702 232.829 63.0235 232.829H61.6325V236.411H63.0235ZM63.0235 231.64C63.6345 231.64 64.1632 231.711 64.6095 231.854C65.0602 231.997 65.4307 232.199 65.721 232.459C66.0157 232.715 66.2345 233.024 66.3775 233.388C66.5205 233.748 66.592 234.147 66.592 234.584C66.592 235.031 66.5162 235.44 66.3645 235.813C66.2128 236.181 65.9875 236.5 65.6885 236.768C65.3895 237.033 65.0168 237.241 64.5705 237.392C64.1285 237.54 63.6128 237.613 63.0235 237.613H61.6325V241H60.1115V231.64H63.0235ZM72.4545 236.938C72.4545 236.703 72.4198 236.487 72.3505 236.287C72.2855 236.084 72.188 235.908 72.058 235.761C71.928 235.609 71.7655 235.492 71.5705 235.41C71.3798 235.323 71.1588 235.28 70.9075 235.28C70.4005 235.28 70.0018 235.425 69.7115 235.715C69.4212 236.006 69.237 236.413 69.159 236.938H72.4545ZM69.12 237.795C69.1373 238.172 69.1958 238.5 69.2955 238.777C69.3952 239.05 69.5273 239.277 69.692 239.459C69.861 239.641 70.0603 239.778 70.29 239.869C70.524 239.956 70.784 239.999 71.07 239.999C71.343 239.999 71.5792 239.969 71.7785 239.908C71.9778 239.843 72.1512 239.774 72.2985 239.7C72.4458 239.622 72.5715 239.553 72.6755 239.492C72.7795 239.427 72.8748 239.394 72.9615 239.394C73.0742 239.394 73.1608 239.438 73.2215 239.524L73.618 240.038C73.4533 240.233 73.267 240.398 73.059 240.532C72.851 240.666 72.63 240.777 72.396 240.863C72.162 240.946 71.9215 241.004 71.6745 241.039C71.4275 241.078 71.187 241.098 70.953 241.098C70.4937 241.098 70.0668 241.022 69.6725 240.87C69.2825 240.714 68.9423 240.486 68.652 240.188C68.366 239.888 68.1407 239.518 67.976 239.076C67.8157 238.634 67.7355 238.125 67.7355 237.548C67.7355 237.089 67.807 236.66 67.95 236.261C68.0973 235.863 68.3053 235.516 68.574 235.221C68.847 234.927 69.1763 234.695 69.562 234.526C69.952 234.353 70.3918 234.266 70.8815 234.266C71.2888 234.266 71.6658 234.333 72.0125 234.468C72.3592 234.597 72.6582 234.79 72.9095 235.046C73.1608 235.302 73.3558 235.616 73.4945 235.988C73.6375 236.357 73.709 236.777 73.709 237.249C73.709 237.466 73.6852 237.611 73.6375 237.685C73.5898 237.759 73.5032 237.795 73.3775 237.795H69.12ZM76.9817 235.598C77.1897 235.178 77.4411 234.849 77.7357 234.61C78.0304 234.368 78.3836 234.246 78.7952 234.246C78.9382 234.246 79.0726 234.264 79.1982 234.298C79.3239 234.329 79.4366 234.376 79.5362 234.441L79.4387 235.494C79.4214 235.568 79.3932 235.62 79.3542 235.65C79.3196 235.676 79.2719 235.689 79.2112 235.689C79.1462 235.689 79.0531 235.679 78.9317 235.657C78.8104 235.631 78.6826 235.618 78.5482 235.618C78.3532 235.618 78.1799 235.646 78.0282 235.702C77.8809 235.759 77.7466 235.841 77.6252 235.949C77.5082 236.058 77.4042 236.19 77.3132 236.346C77.2222 236.502 77.1377 236.68 77.0597 236.879V241H75.6622V234.37H76.4747C76.6221 234.37 76.7239 234.398 76.7802 234.454C76.8366 234.506 76.8756 234.6 76.8972 234.734L76.9817 235.598ZM85.0315 235.572C84.9968 235.633 84.9578 235.676 84.9145 235.702C84.8712 235.728 84.817 235.741 84.752 235.741C84.6783 235.741 84.5982 235.72 84.5115 235.676C84.4248 235.629 84.323 235.577 84.206 235.52C84.089 235.464 83.9503 235.414 83.79 235.371C83.634 235.323 83.4498 235.299 83.2375 235.299C83.0642 235.299 82.906 235.321 82.763 235.364C82.6243 235.403 82.5052 235.462 82.4055 235.54C82.3102 235.614 82.2365 235.702 82.1845 235.806C82.1325 235.906 82.1065 236.014 82.1065 236.131C82.1065 236.287 82.1542 236.417 82.2495 236.521C82.3448 236.625 82.4705 236.716 82.6265 236.794C82.7825 236.868 82.9602 236.935 83.1595 236.996C83.3588 237.057 83.5625 237.122 83.7705 237.191C83.9785 237.26 84.1822 237.34 84.3815 237.431C84.5808 237.522 84.7585 237.635 84.9145 237.769C85.0705 237.899 85.1962 238.06 85.2915 238.25C85.3868 238.437 85.4345 238.664 85.4345 238.933C85.4345 239.245 85.3782 239.533 85.2655 239.797C85.1528 240.062 84.9882 240.291 84.7715 240.486C84.5548 240.681 84.284 240.833 83.959 240.941C83.6383 241.05 83.27 241.104 82.854 241.104C82.6243 241.104 82.4012 241.082 82.1845 241.039C81.9722 241 81.7685 240.946 81.5735 240.876C81.3828 240.803 81.203 240.716 81.034 240.616C80.8693 240.517 80.722 240.408 80.592 240.291L80.917 239.758C80.956 239.693 81.0037 239.644 81.06 239.609C81.1207 239.57 81.1943 239.55 81.281 239.55C81.372 239.55 81.4608 239.581 81.5475 239.641C81.6385 239.698 81.7425 239.761 81.8595 239.83C81.9808 239.899 82.126 239.964 82.295 240.025C82.464 240.081 82.6742 240.109 82.9255 240.109C83.1335 240.109 83.3133 240.086 83.465 240.038C83.6167 239.986 83.7423 239.917 83.842 239.83C83.9417 239.743 84.0153 239.646 84.063 239.537C84.1107 239.425 84.1345 239.306 84.1345 239.18C84.1345 239.011 84.0868 238.872 83.9915 238.764C83.8962 238.656 83.7683 238.562 83.608 238.484C83.452 238.406 83.2722 238.337 83.0685 238.276C82.8692 238.216 82.6655 238.151 82.4575 238.081C82.2495 238.012 82.0437 237.932 81.84 237.841C81.6407 237.75 81.4608 237.635 81.3005 237.496C81.1445 237.353 81.0188 237.182 80.9235 236.983C80.8282 236.779 80.7805 236.532 80.7805 236.242C80.7805 235.978 80.8325 235.726 80.9365 235.488C81.0448 235.25 81.2008 235.039 81.4045 234.857C81.6125 234.675 81.866 234.532 82.165 234.428C82.4683 234.32 82.8172 234.266 83.2115 234.266C83.6578 234.266 84.063 234.337 84.427 234.48C84.791 234.623 85.0965 234.818 85.3435 235.065L85.0315 235.572ZM90.2643 234.266C90.754 234.266 91.196 234.346 91.5903 234.506C91.989 234.667 92.327 234.894 92.6043 235.189C92.886 235.484 93.1026 235.841 93.2543 236.261C93.406 236.682 93.4818 237.154 93.4818 237.678C93.4818 238.203 93.406 238.675 93.2543 239.095C93.1026 239.516 92.886 239.875 92.6043 240.174C92.327 240.469 91.989 240.697 91.5903 240.857C91.196 241.017 90.754 241.098 90.2643 241.098C89.7703 241.098 89.324 241.017 88.9253 240.857C88.531 240.697 88.193 240.469 87.9113 240.174C87.6296 239.875 87.413 239.516 87.2613 239.095C87.1096 238.675 87.0338 238.203 87.0338 237.678C87.0338 237.154 87.1096 236.682 87.2613 236.261C87.413 235.841 87.6296 235.484 87.9113 235.189C88.193 234.894 88.531 234.667 88.9253 234.506C89.324 234.346 89.7703 234.266 90.2643 234.266ZM90.2643 240.005C90.8623 240.005 91.3065 239.806 91.5968 239.407C91.8915 239.004 92.0388 238.43 92.0388 237.685C92.0388 236.94 91.8915 236.365 91.5968 235.962C91.3065 235.555 90.8623 235.351 90.2643 235.351C89.6576 235.351 89.207 235.555 88.9123 235.962C88.6176 236.365 88.4703 236.94 88.4703 237.685C88.4703 238.43 88.6176 239.004 88.9123 239.407C89.207 239.806 89.6576 240.005 90.2643 240.005ZM96.781 235.247C96.924 235.1 97.0714 234.968 97.223 234.851C97.379 234.73 97.5437 234.626 97.717 234.539C97.8904 234.452 98.0745 234.385 98.2695 234.337C98.4645 234.29 98.6769 234.266 98.9065 234.266C99.2705 234.266 99.589 234.327 99.862 234.448C100.139 234.569 100.371 234.74 100.558 234.961C100.748 235.182 100.891 235.449 100.987 235.761C101.082 236.069 101.13 236.409 101.13 236.781V241H99.7385V236.781C99.7385 236.335 99.6345 235.988 99.4265 235.741C99.2229 235.494 98.9109 235.371 98.4905 235.371C98.1785 235.371 97.8882 235.442 97.6195 235.585C97.3552 235.728 97.106 235.923 96.872 236.17V241H95.4745V234.37H96.3195C96.5102 234.37 96.6315 234.459 96.6835 234.636L96.781 235.247ZM106.954 238.101C106.456 238.118 106.035 238.159 105.693 238.224C105.351 238.285 105.073 238.365 104.861 238.465C104.649 238.56 104.495 238.675 104.4 238.809C104.309 238.944 104.263 239.091 104.263 239.251C104.263 239.407 104.287 239.542 104.335 239.654C104.387 239.763 104.456 239.854 104.543 239.927C104.634 239.997 104.738 240.049 104.855 240.083C104.976 240.114 105.108 240.129 105.251 240.129C105.615 240.129 105.927 240.062 106.187 239.927C106.451 239.789 106.707 239.589 106.954 239.33V238.101ZM103.249 235.293C103.999 234.595 104.891 234.246 105.927 234.246C106.308 234.246 106.646 234.309 106.941 234.435C107.24 234.556 107.489 234.73 107.689 234.955C107.892 235.18 108.046 235.449 108.15 235.761C108.258 236.069 108.313 236.411 108.313 236.788V241H107.689C107.554 241 107.452 240.98 107.383 240.941C107.314 240.898 107.255 240.814 107.208 240.688L107.071 240.148C106.902 240.3 106.735 240.437 106.571 240.558C106.406 240.675 106.235 240.775 106.057 240.857C105.884 240.939 105.695 241 105.492 241.039C105.292 241.082 105.071 241.104 104.829 241.104C104.56 241.104 104.309 241.067 104.075 240.993C103.845 240.92 103.646 240.809 103.477 240.662C103.308 240.51 103.173 240.324 103.074 240.103C102.978 239.882 102.931 239.622 102.931 239.323C102.931 239.067 102.998 238.818 103.132 238.575C103.271 238.333 103.496 238.116 103.808 237.925C104.124 237.73 104.538 237.57 105.05 237.444C105.565 237.319 106.2 237.247 106.954 237.23V236.788C106.954 236.311 106.852 235.956 106.649 235.722C106.445 235.488 106.146 235.371 105.752 235.371C105.483 235.371 105.258 235.406 105.076 235.475C104.894 235.54 104.735 235.611 104.601 235.689C104.467 235.767 104.348 235.841 104.244 235.91C104.14 235.975 104.029 236.008 103.912 236.008C103.817 236.008 103.734 235.984 103.665 235.936C103.6 235.884 103.546 235.822 103.503 235.748L103.249 235.293ZM112.023 231.38V241H110.626V231.38H112.023Z" fill="#262C31"/>
<circle cx="159" cy="236" r="4" fill="#0EE788"/>
<path d="M181.775 236.391V240.096C180.843 240.768 179.76 241.104 178.525 241.104C177.767 241.104 177.08 240.987 176.465 240.753C175.854 240.515 175.331 240.185 174.898 239.765C174.465 239.34 174.131 238.835 173.897 238.25C173.663 237.665 173.546 237.022 173.546 236.32C173.546 235.614 173.659 234.968 173.884 234.383C174.109 233.794 174.432 233.289 174.853 232.868C175.273 232.444 175.78 232.117 176.374 231.887C176.967 231.653 177.635 231.536 178.376 231.536C178.753 231.536 179.101 231.566 179.422 231.627C179.747 231.683 180.048 231.763 180.326 231.867C180.603 231.971 180.859 232.097 181.093 232.244C181.327 232.392 181.541 232.556 181.736 232.738L181.301 233.434C181.231 233.542 181.142 233.609 181.034 233.635C180.926 233.661 180.809 233.635 180.683 233.557C180.557 233.484 180.423 233.406 180.28 233.323C180.141 233.241 179.981 233.165 179.799 233.096C179.617 233.022 179.407 232.964 179.169 232.92C178.93 232.873 178.649 232.849 178.324 232.849C177.83 232.849 177.383 232.931 176.985 233.096C176.59 233.256 176.252 233.488 175.971 233.791C175.689 234.09 175.472 234.454 175.321 234.883C175.169 235.312 175.093 235.791 175.093 236.32C175.093 236.879 175.173 237.379 175.334 237.821C175.494 238.259 175.721 238.632 176.016 238.939C176.311 239.243 176.666 239.475 177.082 239.635C177.502 239.795 177.97 239.875 178.486 239.875C178.872 239.875 179.214 239.834 179.513 239.752C179.816 239.67 180.113 239.555 180.404 239.407V237.548H179.097C178.997 237.548 178.919 237.522 178.863 237.47C178.807 237.414 178.779 237.343 178.779 237.256V236.391H181.775ZM185.177 235.598C185.385 235.178 185.637 234.849 185.931 234.61C186.226 234.368 186.579 234.246 186.991 234.246C187.134 234.246 187.268 234.264 187.394 234.298C187.52 234.329 187.632 234.376 187.732 234.441L187.634 235.494C187.617 235.568 187.589 235.62 187.55 235.65C187.515 235.676 187.468 235.689 187.407 235.689C187.342 235.689 187.249 235.679 187.127 235.657C187.006 235.631 186.878 235.618 186.744 235.618C186.549 235.618 186.376 235.646 186.224 235.702C186.077 235.759 185.942 235.841 185.821 235.949C185.704 236.058 185.6 236.19 185.509 236.346C185.418 236.502 185.333 236.68 185.255 236.879V241H183.858V234.37H184.67C184.818 234.37 184.92 234.398 184.976 234.454C185.032 234.506 185.071 234.6 185.093 234.734L185.177 235.598ZM194.897 234.37V241H194.052C193.865 241 193.746 240.911 193.694 240.733L193.59 240.116C193.452 240.263 193.304 240.398 193.148 240.519C192.997 240.64 192.834 240.744 192.661 240.831C192.487 240.918 192.301 240.985 192.102 241.033C191.907 241.08 191.697 241.104 191.471 241.104C191.107 241.104 190.787 241.043 190.509 240.922C190.232 240.801 189.998 240.629 189.807 240.408C189.621 240.187 189.48 239.923 189.385 239.615C189.289 239.303 189.242 238.961 189.242 238.588V234.37H190.639V238.588C190.639 239.035 190.741 239.381 190.945 239.628C191.153 239.875 191.467 239.999 191.887 239.999C192.195 239.999 192.481 239.93 192.745 239.791C193.014 239.648 193.265 239.453 193.499 239.206V234.37H194.897ZM198.641 239.336C198.836 239.587 199.049 239.765 199.278 239.869C199.512 239.969 199.77 240.018 200.052 240.018C200.598 240.018 201.023 239.819 201.326 239.42C201.634 239.022 201.787 238.428 201.787 237.639C201.787 237.232 201.753 236.885 201.683 236.599C201.614 236.309 201.514 236.073 201.384 235.891C201.254 235.709 201.096 235.577 200.91 235.494C200.724 235.412 200.513 235.371 200.279 235.371C199.924 235.371 199.616 235.449 199.356 235.605C199.101 235.757 198.862 235.975 198.641 236.261V239.336ZM198.57 235.332C198.847 235.007 199.161 234.745 199.512 234.545C199.868 234.346 200.279 234.246 200.747 234.246C201.12 234.246 201.458 234.322 201.761 234.474C202.065 234.621 202.325 234.838 202.541 235.124C202.758 235.41 202.925 235.765 203.042 236.19C203.163 236.61 203.224 237.093 203.224 237.639C203.224 238.129 203.157 238.586 203.022 239.011C202.892 239.431 202.704 239.797 202.457 240.109C202.21 240.417 201.911 240.66 201.56 240.837C201.209 241.011 200.812 241.098 200.37 241.098C199.98 241.098 199.649 241.035 199.376 240.909C199.107 240.783 198.862 240.61 198.641 240.389V243.204H197.244V234.37H198.089C198.28 234.37 198.401 234.459 198.453 234.636L198.57 235.332ZM208.774 238.101C208.276 238.118 207.856 238.159 207.513 238.224C207.171 238.285 206.894 238.365 206.681 238.465C206.469 238.56 206.315 238.675 206.22 238.809C206.129 238.944 206.083 239.091 206.083 239.251C206.083 239.407 206.107 239.542 206.155 239.654C206.207 239.763 206.276 239.854 206.363 239.927C206.454 239.997 206.558 240.049 206.675 240.083C206.796 240.114 206.928 240.129 207.071 240.129C207.435 240.129 207.747 240.062 208.007 239.927C208.272 239.789 208.527 239.589 208.774 239.33V238.101ZM205.069 235.293C205.819 234.595 206.712 234.246 207.747 234.246C208.129 234.246 208.467 234.309 208.761 234.435C209.06 234.556 209.309 234.73 209.509 234.955C209.712 235.18 209.866 235.449 209.97 235.761C210.079 236.069 210.133 236.411 210.133 236.788V241H209.509C209.374 241 209.273 240.98 209.203 240.941C209.134 240.898 209.075 240.814 209.028 240.688L208.891 240.148C208.722 240.3 208.555 240.437 208.391 240.558C208.226 240.675 208.055 240.775 207.877 240.857C207.704 240.939 207.515 241 207.312 241.039C207.112 241.082 206.891 241.104 206.649 241.104C206.38 241.104 206.129 241.067 205.895 240.993C205.665 240.92 205.466 240.809 205.297 240.662C205.128 240.51 204.993 240.324 204.894 240.103C204.798 239.882 204.751 239.622 204.751 239.323C204.751 239.067 204.818 238.818 204.952 238.575C205.091 238.333 205.316 238.116 205.628 237.925C205.945 237.73 206.358 237.57 206.87 237.444C207.385 237.319 208.02 237.247 208.774 237.23V236.788C208.774 236.311 208.672 235.956 208.469 235.722C208.265 235.488 207.966 235.371 207.572 235.371C207.303 235.371 207.078 235.406 206.896 235.475C206.714 235.54 206.556 235.611 206.421 235.689C206.287 235.767 206.168 235.841 206.064 235.91C205.96 235.975 205.849 236.008 205.732 236.008C205.637 236.008 205.555 235.984 205.485 235.936C205.42 235.884 205.366 235.822 205.323 235.748L205.069 235.293ZM213.843 231.38V241H212.446V231.38H213.843Z" fill="#262C31"/>
<rect x="17" y="61" width="64" height="34" rx="3" fill="#262C31"/>
<path d="M37.848 82.16C38.0613 82.16 38.2293 82.2213 38.352 82.344C38.48 82.4613 38.544 82.6187 38.544 82.816V84H30.608V83.344C30.608 83.2107 30.6347 83.072 30.688 82.928C30.7467 82.7787 30.8373 82.6453 30.96 82.528L34.472 79.008C34.7653 78.7093 35.0267 78.424 35.256 78.152C35.4907 77.88 35.6853 77.6107 35.84 77.344C35.9947 77.0773 36.112 76.808 36.192 76.536C36.2773 76.2587 36.32 75.968 36.32 75.664C36.32 75.3867 36.28 75.144 36.2 74.936C36.12 74.7227 36.0053 74.544 35.856 74.4C35.712 74.256 35.536 74.1493 35.328 74.08C35.1253 74.0053 34.896 73.968 34.64 73.968C34.4053 73.968 34.1867 74.0027 33.984 74.072C33.7867 74.136 33.6107 74.2293 33.456 74.352C33.3013 74.4693 33.1707 74.608 33.064 74.768C32.9573 74.928 32.8773 75.104 32.824 75.296C32.7333 75.5413 32.616 75.704 32.472 75.784C32.328 75.864 32.12 75.8827 31.848 75.84L30.808 75.656C30.888 75.1013 31.0427 74.616 31.272 74.2C31.5013 73.7787 31.7867 73.4293 32.128 73.152C32.4747 72.8693 32.8693 72.6587 33.312 72.52C33.76 72.376 34.24 72.304 34.752 72.304C35.2853 72.304 35.7733 72.384 36.216 72.544C36.6587 72.6987 37.0373 72.92 37.352 73.208C37.6667 73.496 37.912 73.8427 38.088 74.248C38.264 74.6533 38.352 75.104 38.352 75.6C38.352 76.0267 38.288 76.4213 38.16 76.784C38.0373 77.1467 37.8693 77.4933 37.656 77.824C37.448 78.1547 37.2027 78.4747 36.92 78.784C36.6373 79.0933 36.3413 79.408 36.032 79.728L33.424 82.392C33.6747 82.3173 33.9227 82.2613 34.168 82.224C34.4187 82.1813 34.656 82.16 34.88 82.16H37.848ZM44.7213 82.584C45.0466 82.584 45.3319 82.5387 45.5773 82.448C45.8226 82.352 46.0279 82.2213 46.1933 82.056C46.3639 81.8907 46.4919 81.6933 46.5773 81.464C46.6626 81.2347 46.7053 80.9867 46.7053 80.72C46.7053 80.0853 46.5293 79.6053 46.1773 79.28C45.8253 78.9547 45.3399 78.792 44.7213 78.792C44.1026 78.792 43.6173 78.9547 43.2653 79.28C42.9133 79.6053 42.7373 80.0853 42.7373 80.72C42.7373 80.9867 42.7799 81.2347 42.8653 81.464C42.9506 81.6933 43.0759 81.8907 43.2413 82.056C43.4119 82.2213 43.6199 82.352 43.8653 82.448C44.1106 82.5387 44.3959 82.584 44.7213 82.584ZM44.7213 73.792C44.4279 73.792 44.1746 73.8373 43.9613 73.928C43.7479 74.0187 43.5693 74.1413 43.4253 74.296C43.2866 74.4453 43.1826 74.6187 43.1133 74.816C43.0493 75.0133 43.0173 75.2213 43.0173 75.44C43.0173 75.6693 43.0439 75.8933 43.0973 76.112C43.1559 76.3253 43.2519 76.5173 43.3853 76.688C43.5186 76.8533 43.6946 76.9867 43.9133 77.088C44.1319 77.1893 44.4013 77.24 44.7213 77.24C45.0413 77.24 45.3106 77.1893 45.5293 77.088C45.7479 76.9867 45.9239 76.8533 46.0573 76.688C46.1906 76.5173 46.2839 76.3253 46.3373 76.112C46.3959 75.8933 46.4253 75.6693 46.4253 75.44C46.4253 75.2213 46.3906 75.0133 46.3213 74.816C46.2519 74.6187 46.1479 74.4453 46.0093 74.296C45.8706 74.1413 45.6946 74.0187 45.4813 73.928C45.2679 73.8373 45.0146 73.792 44.7213 73.792ZM46.6733 77.968C47.3773 78.1973 47.8973 78.5493 48.2333 79.024C48.5693 79.4933 48.7373 80.0693 48.7373 80.752C48.7373 81.264 48.6386 81.728 48.4413 82.144C48.2493 82.56 47.9773 82.9147 47.6253 83.208C47.2733 83.5013 46.8493 83.728 46.3533 83.888C45.8626 84.048 45.3186 84.128 44.7213 84.128C44.1239 84.128 43.5773 84.048 43.0813 83.888C42.5906 83.728 42.1693 83.5013 41.8173 83.208C41.4653 82.9147 41.1906 82.56 40.9933 82.144C40.8013 81.728 40.7053 81.264 40.7053 80.752C40.7053 80.0693 40.8733 79.4933 41.2093 79.024C41.5453 78.5493 42.0653 78.1973 42.7693 77.968C42.2093 77.7333 41.7879 77.4 41.5053 76.968C41.2279 76.536 41.0893 76.016 41.0893 75.408C41.0893 74.9707 41.1773 74.5627 41.3533 74.184C41.5346 73.8053 41.7853 73.4773 42.1053 73.2C42.4253 72.9173 42.8066 72.6987 43.2493 72.544C43.6973 72.384 44.1879 72.304 44.7213 72.304C45.2546 72.304 45.7426 72.384 46.1853 72.544C46.6333 72.6987 47.0173 72.9173 47.3373 73.2C47.6573 73.4773 47.9053 73.8053 48.0813 74.184C48.2626 74.5627 48.3533 74.9707 48.3533 75.408C48.3533 76.016 48.2119 76.536 47.9293 76.968C47.6519 77.4 47.2333 77.7333 46.6733 77.968ZM56.1225 75.232C56.1225 75.6693 56.0478 76.064 55.8985 76.416C55.7545 76.768 55.5598 77.0693 55.3145 77.32C55.0692 77.5653 54.7838 77.7547 54.4585 77.888C54.1332 78.0213 53.7945 78.088 53.4425 78.088C53.0585 78.088 52.7038 78.0213 52.3785 77.888C52.0532 77.7547 51.7705 77.5653 51.5305 77.32C51.2958 77.0693 51.1118 76.768 50.9785 76.416C50.8452 76.064 50.7785 75.6693 50.7785 75.232C50.7785 74.784 50.8452 74.3787 50.9785 74.016C51.1118 73.6533 51.2958 73.3467 51.5305 73.096C51.7705 72.8453 52.0532 72.6533 52.3785 72.52C52.7038 72.3813 53.0585 72.312 53.4425 72.312C53.8265 72.312 54.1812 72.3813 54.5065 72.52C54.8372 72.6533 55.1225 72.8453 55.3625 73.096C55.6025 73.3467 55.7892 73.6533 55.9225 74.016C56.0558 74.3787 56.1225 74.784 56.1225 75.232ZM54.6025 75.232C54.6025 74.9227 54.5705 74.664 54.5065 74.456C54.4478 74.248 54.3652 74.08 54.2585 73.952C54.1572 73.824 54.0345 73.7333 53.8905 73.68C53.7518 73.6213 53.6025 73.592 53.4425 73.592C53.2825 73.592 53.1332 73.6213 52.9945 73.68C52.8558 73.7333 52.7358 73.824 52.6345 73.952C52.5385 74.08 52.4612 74.248 52.4025 74.456C52.3438 74.664 52.3145 74.9227 52.3145 75.232C52.3145 75.5307 52.3438 75.7813 52.4025 75.984C52.4612 76.1813 52.5385 76.3413 52.6345 76.464C52.7358 76.5867 52.8558 76.6747 52.9945 76.728C53.1332 76.7813 53.2825 76.808 53.4425 76.808C53.6025 76.808 53.7518 76.7813 53.8905 76.728C54.0345 76.6747 54.1572 76.5867 54.2585 76.464C54.3652 76.3413 54.4478 76.1813 54.5065 75.984C54.5705 75.7813 54.6025 75.5307 54.6025 75.232ZM59.9705 72.744C60.0398 72.664 60.1198 72.592 60.2105 72.528C60.3065 72.464 60.4398 72.432 60.6105 72.432H62.0505L53.4585 83.704C53.3892 83.7893 53.3065 83.8613 53.2105 83.92C53.1145 83.9733 52.9972 84 52.8585 84H51.3865L59.9705 72.744ZM62.6585 81.28C62.6585 81.7173 62.5838 82.112 62.4345 82.464C62.2905 82.816 62.0958 83.1173 61.8505 83.368C61.6052 83.6133 61.3198 83.8053 60.9945 83.944C60.6692 84.0773 60.3305 84.144 59.9785 84.144C59.5945 84.144 59.2398 84.0773 58.9145 83.944C58.5892 83.8053 58.3065 83.6133 58.0665 83.368C57.8318 83.1173 57.6478 82.816 57.5145 82.464C57.3812 82.112 57.3145 81.7173 57.3145 81.28C57.3145 80.832 57.3812 80.4267 57.5145 80.064C57.6478 79.7013 57.8318 79.3947 58.0665 79.144C58.3065 78.8933 58.5892 78.7013 58.9145 78.568C59.2398 78.4293 59.5945 78.36 59.9785 78.36C60.3625 78.36 60.7172 78.4293 61.0425 78.568C61.3732 78.7013 61.6558 78.8933 61.8905 79.144C62.1305 79.3947 62.3172 79.7013 62.4505 80.064C62.5892 80.4267 62.6585 80.832 62.6585 81.28ZM61.1305 81.28C61.1305 80.9707 61.1012 80.712 61.0425 80.504C60.9838 80.296 60.9012 80.128 60.7945 80C60.6932 79.872 60.5705 79.7813 60.4265 79.728C60.2878 79.6693 60.1385 79.64 59.9785 79.64C59.8185 79.64 59.6692 79.6693 59.5305 79.728C59.3918 79.7813 59.2718 79.872 59.1705 80C59.0692 80.128 58.9892 80.296 58.9305 80.504C58.8772 80.712 58.8505 80.9707 58.8505 81.28C58.8505 81.5787 58.8772 81.8293 58.9305 82.032C58.9892 82.2347 59.0692 82.3973 59.1705 82.52C59.2718 82.6427 59.3918 82.7307 59.5305 82.784C59.6692 82.8373 59.8185 82.864 59.9785 82.864C60.1385 82.864 60.2878 82.8373 60.4265 82.784C60.5705 82.7307 60.6932 82.6427 60.7945 82.52C60.9012 82.3973 60.9838 82.2347 61.0425 82.032C61.1012 81.8293 61.1305 81.5787 61.1305 81.28Z" fill="#D3D3D3"/>
<defs>
<filter id="filter0_d" x="86" y="74" width="95" height="95" filterUnits="userSpaceOnUse" color-interpolation-filters="sRGB">
<feFlood flood-opacity="0" result="BackgroundImageFix"/>
<feColorMatrix in="SourceAlpha" type="matrix" values="0 0 0 0 0 0 0 0 0 0 0 0 0 0 0 0 0 0 127 0"/>
<feOffset/>
<feGaussianBlur stdDeviation="2"/>
<feColorMatrix type="matrix" values="0 0 0 0 0 0 0 0 0 0 0 0 0 0 0 0 0 0 0.25 0"/>
<feBlend mode="normal" in2="BackgroundImageFix" result="effect1_dropShadow"/>
<feBlend mode="normal" in="SourceGraphic" in2="effect1_dropShadow" result="shape"/>
</filter>
</defs>
</svg>
