<svg width="180" height="180" viewBox="0 0 180 180" fill="none" xmlns="http://www.w3.org/2000/svg">
<path d="M92.7425 100.635L91.2199 98.0505L92.7425 100.635L130.108 78.6262C131.634 77.7274 132.57 76.0887 132.57 74.318V31.3152C132.57 29.473 131.557 27.78 129.934 26.9091L92.5682 6.86489C91.0885 6.0711 89.3091 6.07311 87.8311 6.87024L50.673 26.9114C49.0552 27.784 48.0466 29.474 48.0466 31.3121V74.3211C48.0466 76.0877 48.9787 77.7231 50.4987 78.6233L87.657 100.629C89.2245 101.558 91.1728 101.56 92.7425 100.635Z" fill="#AA80FF" stroke="white" stroke-width="6"/>
<path d="M50.6742 80.2497C49.1721 79.4252 47.3525 79.4273 45.8523 80.2552L9.58405 100.271C7.98987 101.151 7 102.828 7 104.649V147.684C7 149.433 7.91335 151.054 9.40869 151.96L45.6771 173.939C47.2662 174.902 49.2581 174.904 50.8495 173.945L87.3203 151.964C88.8214 151.059 89.7392 149.434 89.7392 147.681V104.652C89.7392 102.827 88.7449 101.147 87.1451 100.269L50.6742 80.2497Z" fill="#91AEFD" stroke="white" stroke-width="6"/>
<path d="M134.552 80.2497C133.05 79.4252 131.23 79.4273 129.73 80.2552L93.4618 100.271C91.8676 101.151 90.8777 102.828 90.8777 104.649V147.684C90.8777 149.433 91.7911 151.054 93.2864 151.96L129.555 173.939C131.144 174.902 133.136 174.904 134.727 173.945L171.198 151.964C172.699 151.059 173.617 149.434 173.617 147.681V104.652C173.617 102.827 172.623 101.147 171.023 100.269L134.552 80.2497Z" fill="#F0A0FD" stroke="white" stroke-width="6"/>
</svg>
