<svg width="180" height="180" viewBox="0 0 180 180" fill="none" xmlns="http://www.w3.org/2000/svg">
<path d="M104.278 131.949L104.276 131.95C99.3068 134.473 95.7901 136.237 89.875 136.237C83.7151 136.237 80.4092 134.606 75.5379 131.983L75.5049 131.966L75.4715 131.949L75.3304 131.877C69.5105 128.928 62.6957 125.475 51.4375 125.475C40.1793 125.475 33.3644 128.928 27.5446 131.877C27.4975 131.901 27.4504 131.925 27.4035 131.949L27.4013 131.95L27.3203 131.991C22.3885 134.495 18.9565 136.237 13 136.237H10V139.237V154.228V157.228H13C24.1123 157.228 31.1718 153.724 37.034 150.754L37.0362 150.753L37.1172 150.712C42.049 148.208 45.481 146.465 51.4375 146.465C57.4503 146.465 60.9141 148.102 65.7745 150.719L65.8075 150.737L65.8409 150.754L65.9821 150.826C71.8019 153.775 78.6167 157.228 89.875 157.228C101.133 157.228 107.948 153.775 113.768 150.826L113.909 150.754L113.911 150.753C118.881 148.23 122.397 146.465 128.312 146.465C134.472 146.465 137.778 148.096 142.649 150.719L142.682 150.737L142.716 150.754L142.737 150.765C148.587 153.729 155.493 157.228 166.75 157.228H169.75V154.228V139.237V136.237H166.75C160.59 136.237 157.284 134.606 152.413 131.983L152.38 131.966L152.346 131.949C146.484 128.979 139.425 125.475 128.312 125.475C117.2 125.475 110.141 128.979 104.278 131.949Z" fill="#B1DDFE" stroke="white" stroke-width="6"/>
<path d="M75.5379 97.7727L75.5049 97.755L75.4715 97.738L75.3304 97.6665C69.5105 94.7174 62.6957 91.2642 51.4375 91.2642C40.4904 91.2642 33.7351 94.606 28.0652 97.4108C27.853 97.5158 27.6423 97.62 27.4329 97.7233C27.2085 97.8338 26.9872 97.943 26.7688 98.0508C22.0865 100.362 18.7139 102.027 13 102.027H10V105.027V120.017V123.017H13C23.92 123.017 30.9347 119.554 36.6894 116.714C36.7952 116.661 36.9005 116.609 37.0054 116.558L37.0533 116.534L37.1004 116.509C41.9718 113.886 45.2777 112.255 51.4375 112.255C57.5973 112.255 60.9032 113.886 65.7745 116.509L65.8075 116.526L65.841 116.543L65.9821 116.615C71.8019 119.564 78.6167 123.017 89.875 123.017C100.822 123.017 107.577 119.675 113.247 116.871C113.46 116.765 113.671 116.661 113.88 116.558L113.928 116.534L113.975 116.509C118.847 113.886 122.153 112.255 128.312 112.255C134.472 112.255 137.778 113.886 142.649 116.509L142.682 116.526L142.716 116.543L142.737 116.554C148.587 119.518 155.493 123.017 166.75 123.017H169.75V120.017V105.027V102.027H166.75C160.59 102.027 157.284 100.396 152.413 97.7727L152.38 97.755L152.346 97.738C146.484 94.7679 139.425 91.2642 128.312 91.2642C117.392 91.2642 110.378 94.727 104.623 97.5678C104.518 97.6198 104.413 97.6716 104.308 97.7231C104.136 97.8078 103.966 97.8917 103.797 97.9749C99.0355 100.323 95.5794 102.027 89.875 102.027C83.7151 102.027 80.4092 100.396 75.5379 97.7727Z" fill="#91AEFD" stroke="white" stroke-width="6"/>
<path d="M150.991 32.15L152.346 29.4739L152.325 29.4631C146.475 26.499 139.569 23 128.312 23C117.056 23 110.15 26.499 104.3 29.4631L104.294 29.466C104.127 29.5483 103.961 29.6299 103.797 29.7107C99.0355 32.0585 95.5794 33.7625 89.875 33.7625C83.7151 33.7625 80.4092 32.1316 75.5379 29.5086L75.4908 29.4832L75.4429 29.4596C75.2332 29.3562 75.0223 29.2518 74.8098 29.1467C69.1398 26.3418 62.3845 23 51.4375 23C40.1793 23 33.3644 26.4533 27.5446 29.4024C27.4975 29.4263 27.4504 29.4501 27.4035 29.4739L27.4013 29.475L27.3203 29.5161C22.3885 32.02 18.9565 33.7625 13 33.7625H10V36.7625V51.5994V54.5994H13C23.92 54.5994 30.9347 51.1366 36.6894 48.2957C36.7952 48.2435 36.9005 48.1915 37.0054 48.1398L37.0208 48.1322L37.0362 48.1244L37.1172 48.0832C42.049 45.5793 45.481 43.8369 51.4375 43.8369C57.4503 43.8369 60.9141 45.4736 65.7745 48.0908L65.8075 48.1085L65.841 48.1255L65.9821 48.197C71.8019 51.1461 78.6167 54.5994 89.875 54.5994C100.822 54.5994 107.577 51.2576 113.247 48.4527C113.46 48.3476 113.671 48.2432 113.88 48.1398C114.052 48.0553 114.222 47.9716 114.39 47.8886C119.152 45.5408 122.608 43.8369 128.312 43.8369C134.472 43.8369 137.778 45.4677 142.649 48.0908L142.682 48.1085L142.716 48.1255L142.737 48.1363C148.587 51.1004 155.493 54.5994 166.75 54.5994H169.75V51.5994V36.6087V33.6087H166.75C160.576 33.6087 157.266 31.9714 152.349 29.475L150.991 32.15Z" fill="#AA80FF" stroke="white" stroke-width="6"/>
<path d="M104.259 63.5384L104.307 63.5148C104.412 63.463 104.517 63.411 104.623 63.3588C110.378 60.518 117.392 57.0552 128.312 57.0552C139.425 57.0552 146.484 60.5589 152.346 63.5291L152.38 63.546L152.413 63.5638C157.284 66.1868 160.59 67.8177 166.75 67.8177H169.75V70.8177V85.8083V88.8083H166.75C155.493 88.8083 148.587 85.3093 142.737 82.3452L142.716 82.3344L142.682 82.3175L142.649 82.2997C137.778 79.6767 134.472 78.0458 128.312 78.0458C122.608 78.0458 119.152 79.7498 114.39 82.0976C114.221 82.1808 114.051 82.2648 113.879 82.3496L104.259 63.5384ZM104.259 63.5384L104.212 63.5638M104.259 63.5384L104.212 63.5638M104.212 63.5638C99.3407 66.1868 96.0348 67.8177 89.875 67.8177C83.7151 67.8177 80.4092 66.1868 75.5379 63.5638L75.5049 63.546M104.212 63.5638L75.5049 63.546M75.5049 63.546L75.4715 63.5291M75.5049 63.546L75.4715 63.5291M75.4715 63.5291L75.3304 63.4576C69.5105 60.5085 62.6957 57.0552 51.4375 57.0552C40.4904 57.0552 33.7351 60.397 28.0652 63.2018C27.8527 63.307 27.6417 63.4113 27.4321 63.5148L27.3841 63.5384M75.4715 63.5291L27.3841 63.5384M27.3841 63.5384L27.3371 63.5638M27.3841 63.5384L27.3371 63.5638M27.3371 63.5638C22.4657 66.1868 19.1598 67.8177 13 67.8177H10M27.3371 63.5638L10 67.8177M10 67.8177V70.8177M10 67.8177V70.8177M10 70.8177V85.8083V88.8083M10 70.8177V88.8083M10 88.8083H13M10 88.8083H13M13 88.8083C23.92 88.8083 30.9347 85.3455 36.6894 82.5046C36.7949 82.4526 36.8999 82.4007 37.0045 82.3491M13 88.8083L37.0045 82.3491M37.0045 82.3491C37.1764 82.2645 37.3466 82.1806 37.515 82.0975C42.277 79.7498 45.733 78.0458 51.4375 78.0458C57.3769 78.0458 60.9195 79.6854 65.7745 82.2997L65.8075 82.3175L65.841 82.3344L65.9821 82.4059C71.8019 85.355 78.6167 88.8083 89.875 88.8083C100.822 88.8083 107.577 85.4665 113.247 82.6616C113.459 82.5569 113.669 82.4529 113.878 82.3498L37.0045 82.3491Z" fill="#F0A0FD" stroke="white" stroke-width="6"/>
</svg>
