<svg width="180" height="180" viewBox="0 0 180 180" fill="none" xmlns="http://www.w3.org/2000/svg">
<rect x="32" y="18" width="116.382" height="145" rx="5" fill="#B1DDFE" stroke="white" stroke-width="6"/>
<path d="M66.3431 54.6538C67.8317 53.3797 69.4235 52.1878 71.1188 51.0781C72.8554 49.9684 74.716 49.0025 76.7007 48.1805C78.7267 47.3585 80.8975 46.7214 83.2129 46.2693C85.5697 45.7761 88.0919 45.5295 90.7795 45.5295C94.5008 45.5295 97.8706 46.0433 100.889 47.0708C103.907 48.0572 106.492 49.4957 108.642 51.3863C110.792 53.2358 112.446 55.4758 113.603 58.1062C114.802 60.7366 115.402 63.6752 115.402 66.9222C115.402 70.0458 114.947 72.7584 114.037 75.06C113.169 77.3205 112.053 79.2933 110.688 80.9784C109.365 82.6635 107.897 84.1226 106.285 85.3556C104.672 86.5886 103.142 87.7394 101.695 88.808C100.248 89.8766 98.987 90.9452 97.912 92.0138C96.8783 93.0413 96.2374 94.1921 95.9893 95.4662L94.4388 104.282H82.7168L81.5384 94.2948C81.2489 92.322 81.497 90.6164 82.2826 89.1779C83.0682 87.6983 84.1226 86.3625 85.4457 85.1706C86.7688 83.9376 88.2366 82.7663 89.8492 81.6565C91.5031 80.5057 93.033 79.2933 94.4388 78.0192C95.8859 76.704 97.085 75.2449 98.036 73.642C99.0283 71.998 99.5245 70.0663 99.5245 67.8469C99.5245 65.1343 98.5735 62.9765 96.6715 61.3736C94.8109 59.7707 92.3301 58.9693 89.229 58.9693C86.9549 58.9693 85.0322 59.2159 83.461 59.7091C81.9312 60.2023 80.608 60.7571 79.4916 61.3736C78.3753 61.949 77.4243 62.4833 76.6387 62.9765C75.8531 63.4697 75.1088 63.7163 74.4059 63.7163C72.8347 63.7163 71.6563 63.0382 70.8707 61.6819L66.3431 54.6538ZM77.9411 127.031C77.9411 125.675 78.1892 124.401 78.6854 123.209C79.2229 121.976 79.9465 120.928 80.8561 120.065C81.7658 119.16 82.8201 118.462 84.0192 117.969C85.2596 117.434 86.6034 117.167 88.0506 117.167C89.4564 117.167 90.7795 117.434 92.0199 117.969C93.2604 118.462 94.3354 119.16 95.245 120.065C96.1547 120.928 96.8576 121.976 97.3538 123.209C97.8913 124.401 98.1601 125.675 98.1601 127.031C98.1601 128.428 97.8913 129.723 97.3538 130.915C96.8576 132.107 96.1547 133.155 95.245 134.059C94.3354 134.922 93.2604 135.6 92.0199 136.094C90.7795 136.587 89.4564 136.833 88.0506 136.833C86.6034 136.833 85.2596 136.587 84.0192 136.094C82.8201 135.6 81.7658 134.922 80.8561 134.059C79.9465 133.155 79.2229 132.107 78.6854 130.915C78.1892 129.723 77.9411 128.428 77.9411 127.031Z" fill="white"/>
</svg>
